M48
;DRILL file {KiCad (5.0.0)} date 08/10/18 21:54:09
;FORMAT={-:-/ absolute / metric / decimal}
FMAT,2
METRIC,TZ
T1C0.260
T2C0.600
T3C0.700
T4C0.900
T5C0.920
T6C1.000
T7C1.200
T8C1.300
T9C1.700
T10C2.300
%
G90
G05
M71
T1
X109.5Y-72.6
X109.5Y-115.6
X112.Y-72.6
X112.Y-115.6
X113.35Y-84.7
X114.5Y-72.6
X114.5Y-115.6
X117.Y-72.6
X117.Y-115.6
X118.6Y-84.7
X119.5Y-72.6
X119.5Y-115.6
X121.6Y-87.2
X121.6Y-101.7
X121.85Y-98.95
X122.Y-72.6
X122.Y-115.6
X123.6Y-76.95
X124.1Y-88.7
X124.5Y-72.6
X124.5Y-115.6
X125.1Y-98.95
X126.1Y-104.7
X126.6Y-101.7
X127.Y-72.6
X127.Y-115.6
X127.85Y-79.7
X127.85Y-88.95
X129.1Y-95.2
X129.1Y-96.7
X129.5Y-72.6
X129.5Y-115.6
X129.6Y-90.45
X129.6Y-98.2
X129.6Y-104.95
X129.85Y-83.45
X129.85Y-88.95
X130.1Y-91.2
X130.1Y-95.2
X130.1Y-96.7
X132.Y-72.6
X132.Y-115.6
X132.35Y-83.81
X132.35Y-91.2
X132.85Y-90.45
X133.6Y-83.81
X134.5Y-72.6
X134.5Y-115.6
X136.35Y-95.95
X137.Y-72.6
X137.Y-115.6
X139.5Y-72.6
X139.5Y-115.6
X142.Y-72.6
X142.Y-115.6
X142.1Y-89.5
X143.1Y-89.7
X143.85Y-95.2
X143.95Y-88.95
X144.5Y-72.6
X144.5Y-115.6
X145.1Y-88.95
X145.6Y-88.2
X145.6Y-89.7
X147.Y-72.6
X147.Y-115.6
X147.05Y-84.7
X147.35Y-89.7
X149.35Y-99.7
X149.35Y-102.45
X149.5Y-72.6
X149.5Y-115.6
X149.64Y-94.7
X150.35Y-99.95
X150.35Y-102.45
X150.85Y-86.34
X151.3Y-93.99
X151.35Y-75.7
X151.6Y-94.7
X151.8Y-98.2
X152.Y-72.6
X152.Y-115.6
X152.1Y-88.45
X152.1Y-95.41
X152.35Y-90.45
X153.6Y-87.95
X153.85Y-75.7
X153.95Y-85.65
X154.5Y-72.6
X154.5Y-115.6
X154.85Y-87.95
X155.1Y-75.7
X155.9Y-92.75
X155.9Y-94.65
X156.5Y-85.65
X157.Y-72.6
X157.Y-115.6
X157.8Y-92.75
X157.8Y-94.65
X157.95Y-84.2
X159.1Y-98.3
X159.5Y-72.6
X159.5Y-115.6
X159.95Y-98.25
X160.45Y-101.7
X161.1Y-89.95
X161.35Y-91.41
X161.35Y-109.45
X162.Y-72.6
X162.Y-115.6
X162.85Y-82.45
X163.6Y-76.2
X163.6Y-103.95
X164.5Y-72.6
X164.5Y-115.6
X164.6Y-91.2
X165.1Y-79.2
X165.35Y-93.95
X165.6Y-87.2
X166.1Y-83.95
X166.85Y-87.2
X167.Y-72.6
X167.Y-115.6
X167.6Y-83.95
X168.1Y-87.2
X168.15Y-98.85
X169.Y-83.4
X169.1Y-102.95
X169.35Y-95.45
X169.5Y-72.6
X169.5Y-115.6
X170.85Y-96.95
X170.85Y-101.95
X171.15Y-111.65
X171.15Y-112.75
X172.Y-72.6
X172.Y-115.6
X172.35Y-91.45
X172.85Y-83.7
X174.5Y-72.6
X174.5Y-115.6
X175.1Y-93.2
X175.85Y-87.7
X175.85Y-89.7
X176.6Y-94.7
X177.Y-72.6
X177.Y-115.6
X177.35Y-94.7
X177.6Y-86.95
X177.6Y-88.7
X177.6Y-90.45
X179.2Y-84.3
X179.5Y-72.6
X179.5Y-115.6
X180.75Y-85.
X180.759Y-83.759
X181.Y-86.2
X182.Y-72.6
X182.Y-115.6
X182.35Y-95.7
X182.544Y-88.644
X182.6Y-93.2
X182.85Y-86.45
X182.85Y-91.2
X182.85Y-91.95
X184.35Y-95.7
X184.5Y-72.6
X184.5Y-115.6
X187.Y-72.6
X187.Y-115.6
T2
X175.84Y-79.74
X178.38Y-79.74
X180.92Y-79.74
X186.Y-77.2
X186.Y-79.74
X111.2Y-92.93
X111.2Y-95.47
X116.28Y-92.93
X116.28Y-95.47
X118.82Y-92.93
X118.82Y-95.47
X121.36Y-92.93
X121.36Y-95.47
T3
X169.6Y-105.45
X169.6Y-107.95
T4
X184.459Y-85.7
X184.459Y-90.7
T5
X175.39Y-101.2
X175.39Y-103.7
X175.39Y-105.7
X175.39Y-108.2
T6
X142.02Y-109.2
X144.56Y-109.2
X147.1Y-109.2
X149.64Y-109.2
X152.18Y-109.2
X154.72Y-109.2
X139.6Y-77.925
X139.6Y-82.475
T7
X187.159Y-84.7
X187.159Y-91.7
T8
X142.1Y-76.7
X142.1Y-83.7
T9
X110.5Y-109.1
X112.9Y-107.1
X118.4Y-107.1
T10
X178.1Y-98.13
X178.1Y-111.27
T0
M30
