G04 #@! TF.GenerationSoftware,KiCad,Pcbnew,(5.0.0)*
G04 #@! TF.CreationDate,2018-08-10T21:54:07-04:00*
G04 #@! TF.ProjectId,scope-footswitch,73636F70652D666F6F74737769746368,1*
G04 #@! TF.SameCoordinates,Original*
G04 #@! TF.FileFunction,Soldermask,Bot*
G04 #@! TF.FilePolarity,Negative*
%FSLAX46Y46*%
G04 Gerber Fmt 4.6, Leading zero omitted, Abs format (unit mm)*
G04 Created by KiCad (PCBNEW (5.0.0)) date 08/10/18 21:54:07*
%MOMM*%
%LPD*%
G01*
G04 APERTURE LIST*
%ADD10C,0.150000*%
%ADD11C,2.401600*%
%ADD12C,1.801600*%
%ADD13C,0.100000*%
%ADD14C,1.601600*%
%ADD15C,3.401600*%
%ADD16C,1.301600*%
%ADD17C,1.600000*%
%ADD18C,1.401600*%
%ADD19C,1.901600*%
%ADD20C,2.201600*%
%ADD21C,0.701600*%
G04 APERTURE END LIST*
D10*
G36*
X108600000Y-119200000D02*
X188600000Y-119200000D01*
X188600000Y-115200000D01*
X108600000Y-115200000D01*
X108600000Y-119200000D01*
G37*
X108600000Y-119200000D02*
X188600000Y-119200000D01*
X188600000Y-115200000D01*
X108600000Y-115200000D01*
X108600000Y-119200000D01*
G36*
X108600000Y-73200000D02*
X188600000Y-73200000D01*
X188600000Y-69200000D01*
X108600000Y-69200000D01*
X108600000Y-73200000D01*
G37*
X108600000Y-73200000D02*
X188600000Y-73200000D01*
X188600000Y-69200000D01*
X108600000Y-69200000D01*
X108600000Y-73200000D01*
D11*
G04 #@! TO.C,J1*
X118400000Y-107100000D03*
X112900000Y-107100000D03*
X110500000Y-109100000D03*
G04 #@! TD*
D12*
G04 #@! TO.C,P1*
X142020000Y-109200000D03*
X144560000Y-109200000D03*
X147100000Y-109200000D03*
X149640000Y-109200000D03*
X152180000Y-109200000D03*
D13*
G36*
X155214547Y-108301369D02*
X155258269Y-108307854D01*
X155301144Y-108318594D01*
X155342761Y-108333485D01*
X155382717Y-108352383D01*
X155420629Y-108375106D01*
X155456131Y-108401436D01*
X155488881Y-108431119D01*
X155518564Y-108463869D01*
X155544894Y-108499371D01*
X155567617Y-108537283D01*
X155586515Y-108577239D01*
X155601406Y-108618856D01*
X155612146Y-108661731D01*
X155618631Y-108705453D01*
X155620800Y-108749600D01*
X155620800Y-109650400D01*
X155618631Y-109694547D01*
X155612146Y-109738269D01*
X155601406Y-109781144D01*
X155586515Y-109822761D01*
X155567617Y-109862717D01*
X155544894Y-109900629D01*
X155518564Y-109936131D01*
X155488881Y-109968881D01*
X155456131Y-109998564D01*
X155420629Y-110024894D01*
X155382717Y-110047617D01*
X155342761Y-110066515D01*
X155301144Y-110081406D01*
X155258269Y-110092146D01*
X155214547Y-110098631D01*
X155170400Y-110100800D01*
X154269600Y-110100800D01*
X154225453Y-110098631D01*
X154181731Y-110092146D01*
X154138856Y-110081406D01*
X154097239Y-110066515D01*
X154057283Y-110047617D01*
X154019371Y-110024894D01*
X153983869Y-109998564D01*
X153951119Y-109968881D01*
X153921436Y-109936131D01*
X153895106Y-109900629D01*
X153872383Y-109862717D01*
X153853485Y-109822761D01*
X153838594Y-109781144D01*
X153827854Y-109738269D01*
X153821369Y-109694547D01*
X153819200Y-109650400D01*
X153819200Y-108749600D01*
X153821369Y-108705453D01*
X153827854Y-108661731D01*
X153838594Y-108618856D01*
X153853485Y-108577239D01*
X153872383Y-108537283D01*
X153895106Y-108499371D01*
X153921436Y-108463869D01*
X153951119Y-108431119D01*
X153983869Y-108401436D01*
X154019371Y-108375106D01*
X154057283Y-108352383D01*
X154097239Y-108333485D01*
X154138856Y-108318594D01*
X154181731Y-108307854D01*
X154225453Y-108301369D01*
X154269600Y-108299200D01*
X155170400Y-108299200D01*
X155214547Y-108301369D01*
X155214547Y-108301369D01*
G37*
D12*
X154720000Y-109200000D03*
G04 #@! TD*
D14*
G04 #@! TO.C,J2*
X175390000Y-108200000D03*
X175390000Y-105700000D03*
X175390000Y-103700000D03*
X175390000Y-101200000D03*
D15*
X178100000Y-111270000D03*
X178100000Y-98130000D03*
G04 #@! TD*
D13*
G04 #@! TO.C,C24*
G36*
X169957295Y-107300767D02*
X169988882Y-107305452D01*
X170019859Y-107313212D01*
X170049925Y-107323970D01*
X170078792Y-107337623D01*
X170106183Y-107354040D01*
X170131832Y-107373062D01*
X170155493Y-107394507D01*
X170176938Y-107418168D01*
X170195960Y-107443817D01*
X170212377Y-107471208D01*
X170226030Y-107500075D01*
X170236788Y-107530141D01*
X170244548Y-107561118D01*
X170249233Y-107592705D01*
X170250800Y-107624600D01*
X170250800Y-108275400D01*
X170249233Y-108307295D01*
X170244548Y-108338882D01*
X170236788Y-108369859D01*
X170226030Y-108399925D01*
X170212377Y-108428792D01*
X170195960Y-108456183D01*
X170176938Y-108481832D01*
X170155493Y-108505493D01*
X170131832Y-108526938D01*
X170106183Y-108545960D01*
X170078792Y-108562377D01*
X170049925Y-108576030D01*
X170019859Y-108586788D01*
X169988882Y-108594548D01*
X169957295Y-108599233D01*
X169925400Y-108600800D01*
X169274600Y-108600800D01*
X169242705Y-108599233D01*
X169211118Y-108594548D01*
X169180141Y-108586788D01*
X169150075Y-108576030D01*
X169121208Y-108562377D01*
X169093817Y-108545960D01*
X169068168Y-108526938D01*
X169044507Y-108505493D01*
X169023062Y-108481832D01*
X169004040Y-108456183D01*
X168987623Y-108428792D01*
X168973970Y-108399925D01*
X168963212Y-108369859D01*
X168955452Y-108338882D01*
X168950767Y-108307295D01*
X168949200Y-108275400D01*
X168949200Y-107624600D01*
X168950767Y-107592705D01*
X168955452Y-107561118D01*
X168963212Y-107530141D01*
X168973970Y-107500075D01*
X168987623Y-107471208D01*
X169004040Y-107443817D01*
X169023062Y-107418168D01*
X169044507Y-107394507D01*
X169068168Y-107373062D01*
X169093817Y-107354040D01*
X169121208Y-107337623D01*
X169150075Y-107323970D01*
X169180141Y-107313212D01*
X169211118Y-107305452D01*
X169242705Y-107300767D01*
X169274600Y-107299200D01*
X169925400Y-107299200D01*
X169957295Y-107300767D01*
X169957295Y-107300767D01*
G37*
D16*
X169600000Y-107950000D03*
X169600000Y-105450000D03*
G04 #@! TD*
D17*
G04 #@! TO.C,J3*
X187159000Y-91700000D03*
D13*
G36*
X186309176Y-90490089D02*
X186312067Y-90480560D01*
X186316761Y-90471777D01*
X186323079Y-90464079D01*
X186330777Y-90457761D01*
X186339560Y-90453067D01*
X186349089Y-90450176D01*
X186359000Y-90449200D01*
X187959000Y-90449200D01*
X187968911Y-90450176D01*
X187978440Y-90453067D01*
X187987223Y-90457761D01*
X187994921Y-90464079D01*
X188001239Y-90471777D01*
X188005933Y-90480560D01*
X188008824Y-90490089D01*
X188009800Y-90500000D01*
X188009800Y-91700000D01*
X188008836Y-91709789D01*
X188008836Y-91739254D01*
X188008591Y-91744233D01*
X188000896Y-91822363D01*
X188000165Y-91827294D01*
X187984849Y-91904294D01*
X187983638Y-91909131D01*
X187960848Y-91984259D01*
X187959168Y-91988952D01*
X187929124Y-92061484D01*
X187926993Y-92065991D01*
X187889985Y-92135229D01*
X187887422Y-92139505D01*
X187843805Y-92204782D01*
X187840835Y-92208786D01*
X187791030Y-92269474D01*
X187787682Y-92273168D01*
X187732168Y-92328682D01*
X187728474Y-92332030D01*
X187667786Y-92381835D01*
X187663782Y-92384805D01*
X187598505Y-92428422D01*
X187594229Y-92430985D01*
X187524991Y-92467993D01*
X187520484Y-92470124D01*
X187447952Y-92500168D01*
X187443259Y-92501848D01*
X187368131Y-92524638D01*
X187363294Y-92525849D01*
X187286294Y-92541165D01*
X187281363Y-92541896D01*
X187203233Y-92549591D01*
X187198254Y-92549836D01*
X187119746Y-92549836D01*
X187114767Y-92549591D01*
X187036637Y-92541896D01*
X187031706Y-92541165D01*
X186954706Y-92525849D01*
X186949869Y-92524638D01*
X186874741Y-92501848D01*
X186870048Y-92500168D01*
X186797516Y-92470124D01*
X186793009Y-92467993D01*
X186723771Y-92430985D01*
X186719495Y-92428422D01*
X186654218Y-92384805D01*
X186650214Y-92381835D01*
X186589526Y-92332030D01*
X186585832Y-92328682D01*
X186530318Y-92273168D01*
X186526970Y-92269474D01*
X186477165Y-92208786D01*
X186474195Y-92204782D01*
X186430578Y-92139505D01*
X186428015Y-92135229D01*
X186391007Y-92065991D01*
X186388876Y-92061484D01*
X186358832Y-91988952D01*
X186357152Y-91984259D01*
X186334362Y-91909131D01*
X186333151Y-91904294D01*
X186317835Y-91827294D01*
X186317104Y-91822363D01*
X186309409Y-91744233D01*
X186309164Y-91739254D01*
X186309164Y-91709789D01*
X186308200Y-91700000D01*
X186308200Y-90500000D01*
X186309176Y-90490089D01*
X186309176Y-90490089D01*
G37*
D18*
X184459000Y-90700000D03*
X184459000Y-85700000D03*
D17*
X187159000Y-84700000D03*
D13*
G36*
X188008824Y-85909911D02*
X188005933Y-85919440D01*
X188001239Y-85928223D01*
X187994921Y-85935921D01*
X187987223Y-85942239D01*
X187978440Y-85946933D01*
X187968911Y-85949824D01*
X187959000Y-85950800D01*
X186359000Y-85950800D01*
X186349089Y-85949824D01*
X186339560Y-85946933D01*
X186330777Y-85942239D01*
X186323079Y-85935921D01*
X186316761Y-85928223D01*
X186312067Y-85919440D01*
X186309176Y-85909911D01*
X186308200Y-85900000D01*
X186308200Y-84700000D01*
X186309164Y-84690211D01*
X186309164Y-84660746D01*
X186309409Y-84655767D01*
X186317104Y-84577637D01*
X186317835Y-84572706D01*
X186333151Y-84495706D01*
X186334362Y-84490869D01*
X186357152Y-84415741D01*
X186358832Y-84411048D01*
X186388876Y-84338516D01*
X186391007Y-84334009D01*
X186428015Y-84264771D01*
X186430578Y-84260495D01*
X186474195Y-84195218D01*
X186477165Y-84191214D01*
X186526970Y-84130526D01*
X186530318Y-84126832D01*
X186585832Y-84071318D01*
X186589526Y-84067970D01*
X186650214Y-84018165D01*
X186654218Y-84015195D01*
X186719495Y-83971578D01*
X186723771Y-83969015D01*
X186793009Y-83932007D01*
X186797516Y-83929876D01*
X186870048Y-83899832D01*
X186874741Y-83898152D01*
X186949869Y-83875362D01*
X186954706Y-83874151D01*
X187031706Y-83858835D01*
X187036637Y-83858104D01*
X187114767Y-83850409D01*
X187119746Y-83850164D01*
X187198254Y-83850164D01*
X187203233Y-83850409D01*
X187281363Y-83858104D01*
X187286294Y-83858835D01*
X187363294Y-83874151D01*
X187368131Y-83875362D01*
X187443259Y-83898152D01*
X187447952Y-83899832D01*
X187520484Y-83929876D01*
X187524991Y-83932007D01*
X187594229Y-83969015D01*
X187598505Y-83971578D01*
X187663782Y-84015195D01*
X187667786Y-84018165D01*
X187728474Y-84067970D01*
X187732168Y-84071318D01*
X187787682Y-84126832D01*
X187791030Y-84130526D01*
X187840835Y-84191214D01*
X187843805Y-84195218D01*
X187887422Y-84260495D01*
X187889985Y-84264771D01*
X187926993Y-84334009D01*
X187929124Y-84338516D01*
X187959168Y-84411048D01*
X187960848Y-84415741D01*
X187983638Y-84490869D01*
X187984849Y-84495706D01*
X188000165Y-84572706D01*
X188000896Y-84577637D01*
X188008591Y-84655767D01*
X188008836Y-84660746D01*
X188008836Y-84690211D01*
X188009800Y-84700000D01*
X188009800Y-85900000D01*
X188008824Y-85909911D01*
X188008824Y-85909911D01*
G37*
G04 #@! TD*
D16*
G04 #@! TO.C,SW3*
X121360000Y-95470000D03*
X118820000Y-95470000D03*
X116280000Y-95470000D03*
X121360000Y-92930000D03*
X118820000Y-92930000D03*
X116280000Y-92930000D03*
X111200000Y-95470000D03*
X111200000Y-92930000D03*
G04 #@! TD*
G04 #@! TO.C,SW1*
X175840000Y-79740000D03*
X178380000Y-79740000D03*
X180920000Y-79740000D03*
X186000000Y-77200000D03*
X186000000Y-79740000D03*
G04 #@! TD*
D19*
G04 #@! TO.C,SW2*
X139600000Y-77925000D03*
X139600000Y-82475000D03*
D20*
X142100000Y-76700000D03*
X142100000Y-83700000D03*
G04 #@! TD*
D21*
X109500000Y-72600000D03*
X112000000Y-72600000D03*
X114500000Y-72600000D03*
X117000000Y-72600000D03*
X119500000Y-72600000D03*
X122000000Y-72600000D03*
X124500000Y-72600000D03*
X127000000Y-72600000D03*
X129500000Y-72600000D03*
X132000000Y-72600000D03*
X134500000Y-72600000D03*
X137000000Y-72600000D03*
X139500000Y-72600000D03*
X142000000Y-72600000D03*
X144500000Y-72600000D03*
X147000000Y-72600000D03*
X149500000Y-72600000D03*
X152000000Y-72600000D03*
X154500000Y-72600000D03*
X157000000Y-72600000D03*
X159500000Y-72600000D03*
X162000000Y-72600000D03*
X164500000Y-72600000D03*
X167000000Y-72600000D03*
X169500000Y-72600000D03*
X172000000Y-72600000D03*
X174500000Y-72600000D03*
X177000000Y-72600000D03*
X179500000Y-72600000D03*
X182000000Y-72600000D03*
X184500000Y-72600000D03*
X187000000Y-72600000D03*
X161100000Y-89950000D03*
X166100000Y-83950000D03*
X126600000Y-101700000D03*
X125100000Y-98950000D03*
X126100000Y-104700000D03*
X152100000Y-95410000D03*
X152350000Y-90450000D03*
X153600000Y-87950000D03*
X151800000Y-98200000D03*
X159950000Y-98250000D03*
X182850000Y-86450000D03*
X172350000Y-91450000D03*
X165350000Y-93950000D03*
X170850000Y-96950000D03*
X166850000Y-87200000D03*
X168100000Y-87200000D03*
X165600000Y-87200000D03*
X184350000Y-95700000D03*
X182350000Y-95700000D03*
X182600000Y-93200000D03*
X175100000Y-93200000D03*
X182543664Y-88643664D03*
X172850000Y-83700000D03*
X165100000Y-79200000D03*
X129850000Y-83450000D03*
X127850000Y-79700000D03*
X163600000Y-103950000D03*
X163600000Y-76200000D03*
X162850000Y-82450000D03*
X161350000Y-91410000D03*
X155100000Y-75700000D03*
X153850000Y-75700000D03*
X151350000Y-75700000D03*
X133600000Y-83810000D03*
X132350000Y-83810000D03*
X136350000Y-95950000D03*
X129850000Y-88950000D03*
X127850000Y-88950000D03*
X143850000Y-95200000D03*
X123600000Y-76950000D03*
X161350000Y-109450000D03*
X121600000Y-101700000D03*
X129600000Y-104950000D03*
X129600000Y-98200000D03*
X118600000Y-84700000D03*
X121600000Y-87200000D03*
X113350000Y-84700000D03*
X147350000Y-89700000D03*
X145600000Y-88200000D03*
X151600000Y-94700000D03*
X154850000Y-87950000D03*
X152100000Y-88450000D03*
X159100000Y-98300000D03*
X160450000Y-101700000D03*
X164600000Y-91200000D03*
X168150000Y-98850000D03*
X142100000Y-89500000D03*
X147050000Y-84700000D03*
X181000000Y-86200000D03*
X171150000Y-111650000D03*
X171150000Y-112750000D03*
X153950000Y-85650000D03*
X180750000Y-85000000D03*
X180759235Y-83759363D03*
X121850000Y-98950000D03*
X149640000Y-94700000D03*
X124100000Y-88700000D03*
X157800000Y-92750000D03*
X155900000Y-94650000D03*
X157800000Y-94650000D03*
X155900000Y-92750000D03*
X109500000Y-115600000D03*
X112000000Y-115600000D03*
X114500000Y-115600000D03*
X117000000Y-115600000D03*
X119500000Y-115600000D03*
X122000000Y-115600000D03*
X124500000Y-115600000D03*
X127000000Y-115600000D03*
X129500000Y-115600000D03*
X132000000Y-115600000D03*
X134500000Y-115600000D03*
X137000000Y-115600000D03*
X139500000Y-115600000D03*
X142000000Y-115600000D03*
X144500000Y-115600000D03*
X147000000Y-115600000D03*
X149500000Y-115600000D03*
X152000000Y-115600000D03*
X154500000Y-115600000D03*
X157000000Y-115600000D03*
X159500000Y-115600000D03*
X162000000Y-115600000D03*
X164500000Y-115600000D03*
X167000000Y-115600000D03*
X169500000Y-115600000D03*
X172000000Y-115600000D03*
X174500000Y-115600000D03*
X177000000Y-115600000D03*
X179500000Y-115600000D03*
X182000000Y-115600000D03*
X184500000Y-115600000D03*
X187000000Y-115600000D03*
X177600000Y-88700000D03*
X182850000Y-91200000D03*
X182850000Y-91950000D03*
X177600000Y-90450000D03*
X177600000Y-86950000D03*
X170850000Y-101950000D03*
X169100000Y-102950000D03*
X156500000Y-85650000D03*
X157950000Y-84200000D03*
X169000000Y-83400000D03*
X167600000Y-83950000D03*
X150850000Y-86339990D03*
X151300000Y-93990000D03*
X177350000Y-94700000D03*
X176600000Y-94700000D03*
X169350000Y-95450000D03*
X179200000Y-84300000D03*
X132350000Y-91200000D03*
X130100000Y-91200000D03*
X145100000Y-88950000D03*
X143950000Y-88950000D03*
X145600000Y-89700000D03*
X143100000Y-89700000D03*
X129600000Y-90450000D03*
X132850000Y-90450000D03*
X130100000Y-96700000D03*
X130100000Y-95200000D03*
X150350000Y-99950000D03*
X150350000Y-102450000D03*
X129100000Y-96700000D03*
X129100000Y-95200000D03*
X149350000Y-102450000D03*
X149350000Y-99700000D03*
X175850000Y-87700000D03*
X175850000Y-89700000D03*
M02*
