G04 #@! TF.GenerationSoftware,KiCad,Pcbnew,(5.0.0)*
G04 #@! TF.CreationDate,2018-11-19T18:26:54-05:00*
G04 #@! TF.ProjectId,scope-footswitch,73636F70652D666F6F74737769746368,1.3*
G04 #@! TF.SameCoordinates,Original*
G04 #@! TF.FileFunction,Copper,L2,Bot,Signal*
G04 #@! TF.FilePolarity,Positive*
%FSLAX46Y46*%
G04 Gerber Fmt 4.6, Leading zero omitted, Abs format (unit mm)*
G04 Created by KiCad (PCBNEW (5.0.0)) date 11/19/18 18:26:54*
%MOMM*%
%LPD*%
G01*
G04 APERTURE LIST*
G04 #@! TA.AperFunction,ComponentPad*
%ADD10C,2.300000*%
G04 #@! TD*
G04 #@! TA.AperFunction,ComponentPad*
%ADD11C,1.700000*%
G04 #@! TD*
G04 #@! TA.AperFunction,Conductor*
%ADD12C,0.100000*%
G04 #@! TD*
G04 #@! TA.AperFunction,ComponentPad*
%ADD13C,1.500000*%
G04 #@! TD*
G04 #@! TA.AperFunction,ComponentPad*
%ADD14C,3.300000*%
G04 #@! TD*
G04 #@! TA.AperFunction,ComponentPad*
%ADD15C,1.200000*%
G04 #@! TD*
G04 #@! TA.AperFunction,ComponentPad*
%ADD16C,1.600000*%
G04 #@! TD*
G04 #@! TA.AperFunction,ComponentPad*
%ADD17C,1.300000*%
G04 #@! TD*
G04 #@! TA.AperFunction,ComponentPad*
%ADD18C,1.800000*%
G04 #@! TD*
G04 #@! TA.AperFunction,ComponentPad*
%ADD19C,2.100000*%
G04 #@! TD*
G04 #@! TA.AperFunction,ViaPad*
%ADD20C,0.600000*%
G04 #@! TD*
G04 #@! TA.AperFunction,Conductor*
%ADD21C,0.300000*%
G04 #@! TD*
G04 #@! TA.AperFunction,Conductor*
%ADD22C,0.500000*%
G04 #@! TD*
G04 #@! TA.AperFunction,Conductor*
%ADD23C,0.160000*%
G04 #@! TD*
G04 #@! TA.AperFunction,Conductor*
%ADD24C,0.600000*%
G04 #@! TD*
G04 #@! TA.AperFunction,Conductor*
%ADD25C,0.254000*%
G04 #@! TD*
G04 APERTURE END LIST*
D10*
G04 #@! TO.P,J1,3*
G04 #@! TO.N,Net-(J1-Pad3)*
X118400000Y-109100000D03*
G04 #@! TO.P,J1,2*
G04 #@! TO.N,Net-(J1-Pad2)*
X112900000Y-109100000D03*
G04 #@! TO.P,J1,1*
G04 #@! TO.N,GND*
X110500000Y-111100000D03*
G04 #@! TD*
D11*
G04 #@! TO.P,P1,6*
G04 #@! TO.N,Net-(D6-Pad3)*
X142020000Y-109200000D03*
G04 #@! TO.P,P1,5*
G04 #@! TO.N,/UART_TX*
X144560000Y-109200000D03*
G04 #@! TO.P,P1,4*
G04 #@! TO.N,/UART_RX*
X147100000Y-109200000D03*
G04 #@! TO.P,P1,3*
G04 #@! TO.N,Net-(P1-Pad3)*
X149640000Y-109200000D03*
G04 #@! TO.P,P1,2*
G04 #@! TO.N,Net-(P1-Pad2)*
X152180000Y-109200000D03*
D12*
G04 #@! TD*
G04 #@! TO.N,GND*
G04 #@! TO.C,P1*
G36*
X155186657Y-108352046D02*
X155227913Y-108358166D01*
X155268371Y-108368300D01*
X155307640Y-108382351D01*
X155345344Y-108400183D01*
X155381117Y-108421625D01*
X155414617Y-108446471D01*
X155445520Y-108474480D01*
X155473529Y-108505383D01*
X155498375Y-108538883D01*
X155519817Y-108574656D01*
X155537649Y-108612360D01*
X155551700Y-108651629D01*
X155561834Y-108692087D01*
X155567954Y-108733343D01*
X155570000Y-108775000D01*
X155570000Y-109625000D01*
X155567954Y-109666657D01*
X155561834Y-109707913D01*
X155551700Y-109748371D01*
X155537649Y-109787640D01*
X155519817Y-109825344D01*
X155498375Y-109861117D01*
X155473529Y-109894617D01*
X155445520Y-109925520D01*
X155414617Y-109953529D01*
X155381117Y-109978375D01*
X155345344Y-109999817D01*
X155307640Y-110017649D01*
X155268371Y-110031700D01*
X155227913Y-110041834D01*
X155186657Y-110047954D01*
X155145000Y-110050000D01*
X154295000Y-110050000D01*
X154253343Y-110047954D01*
X154212087Y-110041834D01*
X154171629Y-110031700D01*
X154132360Y-110017649D01*
X154094656Y-109999817D01*
X154058883Y-109978375D01*
X154025383Y-109953529D01*
X153994480Y-109925520D01*
X153966471Y-109894617D01*
X153941625Y-109861117D01*
X153920183Y-109825344D01*
X153902351Y-109787640D01*
X153888300Y-109748371D01*
X153878166Y-109707913D01*
X153872046Y-109666657D01*
X153870000Y-109625000D01*
X153870000Y-108775000D01*
X153872046Y-108733343D01*
X153878166Y-108692087D01*
X153888300Y-108651629D01*
X153902351Y-108612360D01*
X153920183Y-108574656D01*
X153941625Y-108538883D01*
X153966471Y-108505383D01*
X153994480Y-108474480D01*
X154025383Y-108446471D01*
X154058883Y-108421625D01*
X154094656Y-108400183D01*
X154132360Y-108382351D01*
X154171629Y-108368300D01*
X154212087Y-108358166D01*
X154253343Y-108352046D01*
X154295000Y-108350000D01*
X155145000Y-108350000D01*
X155186657Y-108352046D01*
X155186657Y-108352046D01*
G37*
D11*
G04 #@! TO.P,P1,1*
G04 #@! TO.N,GND*
X154720000Y-109200000D03*
G04 #@! TD*
D13*
G04 #@! TO.P,J2,1*
G04 #@! TO.N,/HOST_VBUS*
X175390000Y-111200000D03*
G04 #@! TO.P,J2,2*
G04 #@! TO.N,/HOST_DM*
X175390000Y-108700000D03*
G04 #@! TO.P,J2,3*
G04 #@! TO.N,/HOST_DP*
X175390000Y-106700000D03*
G04 #@! TO.P,J2,4*
G04 #@! TO.N,GND*
X175390000Y-104200000D03*
D14*
G04 #@! TO.P,J2,M1*
G04 #@! TO.N,/HOST_SHIELD*
X178100000Y-114270000D03*
G04 #@! TO.P,J2,M2*
X178100000Y-101130000D03*
G04 #@! TD*
D12*
G04 #@! TO.N,/HOST_VBUS*
G04 #@! TO.C,C24*
G36*
X169929405Y-110601445D02*
X169958527Y-110605764D01*
X169987085Y-110612918D01*
X170014805Y-110622836D01*
X170041419Y-110635424D01*
X170066671Y-110650559D01*
X170090318Y-110668097D01*
X170112132Y-110687868D01*
X170131903Y-110709682D01*
X170149441Y-110733329D01*
X170164576Y-110758581D01*
X170177164Y-110785195D01*
X170187082Y-110812915D01*
X170194236Y-110841473D01*
X170198555Y-110870595D01*
X170200000Y-110900000D01*
X170200000Y-111500000D01*
X170198555Y-111529405D01*
X170194236Y-111558527D01*
X170187082Y-111587085D01*
X170177164Y-111614805D01*
X170164576Y-111641419D01*
X170149441Y-111666671D01*
X170131903Y-111690318D01*
X170112132Y-111712132D01*
X170090318Y-111731903D01*
X170066671Y-111749441D01*
X170041419Y-111764576D01*
X170014805Y-111777164D01*
X169987085Y-111787082D01*
X169958527Y-111794236D01*
X169929405Y-111798555D01*
X169900000Y-111800000D01*
X169300000Y-111800000D01*
X169270595Y-111798555D01*
X169241473Y-111794236D01*
X169212915Y-111787082D01*
X169185195Y-111777164D01*
X169158581Y-111764576D01*
X169133329Y-111749441D01*
X169109682Y-111731903D01*
X169087868Y-111712132D01*
X169068097Y-111690318D01*
X169050559Y-111666671D01*
X169035424Y-111641419D01*
X169022836Y-111614805D01*
X169012918Y-111587085D01*
X169005764Y-111558527D01*
X169001445Y-111529405D01*
X169000000Y-111500000D01*
X169000000Y-110900000D01*
X169001445Y-110870595D01*
X169005764Y-110841473D01*
X169012918Y-110812915D01*
X169022836Y-110785195D01*
X169035424Y-110758581D01*
X169050559Y-110733329D01*
X169068097Y-110709682D01*
X169087868Y-110687868D01*
X169109682Y-110668097D01*
X169133329Y-110650559D01*
X169158581Y-110635424D01*
X169185195Y-110622836D01*
X169212915Y-110612918D01*
X169241473Y-110605764D01*
X169270595Y-110601445D01*
X169300000Y-110600000D01*
X169900000Y-110600000D01*
X169929405Y-110601445D01*
X169929405Y-110601445D01*
G37*
D15*
G04 #@! TD*
G04 #@! TO.P,C24,+*
G04 #@! TO.N,/HOST_VBUS*
X169600000Y-111200000D03*
G04 #@! TO.P,C24,-*
G04 #@! TO.N,GND*
X169600000Y-108700000D03*
G04 #@! TD*
D16*
G04 #@! TO.P,J3,M1*
G04 #@! TO.N,/DEVICE_SHIELD*
X187159000Y-91700000D03*
D12*
G04 #@! TD*
G04 #@! TO.N,/DEVICE_SHIELD*
G04 #@! TO.C,J3*
G36*
X187959000Y-90500000D02*
X187959000Y-91700000D01*
X187958036Y-91700000D01*
X187958036Y-91739254D01*
X187950341Y-91817384D01*
X187935025Y-91894384D01*
X187912235Y-91969512D01*
X187882191Y-92042044D01*
X187845183Y-92111282D01*
X187801566Y-92176559D01*
X187751761Y-92237247D01*
X187696247Y-92292761D01*
X187635559Y-92342566D01*
X187570282Y-92386183D01*
X187501044Y-92423191D01*
X187428512Y-92453235D01*
X187353384Y-92476025D01*
X187276384Y-92491341D01*
X187198254Y-92499036D01*
X187119746Y-92499036D01*
X187041616Y-92491341D01*
X186964616Y-92476025D01*
X186889488Y-92453235D01*
X186816956Y-92423191D01*
X186747718Y-92386183D01*
X186682441Y-92342566D01*
X186621753Y-92292761D01*
X186566239Y-92237247D01*
X186516434Y-92176559D01*
X186472817Y-92111282D01*
X186435809Y-92042044D01*
X186405765Y-91969512D01*
X186382975Y-91894384D01*
X186367659Y-91817384D01*
X186359964Y-91739254D01*
X186359964Y-91700000D01*
X186359000Y-91700000D01*
X186359000Y-90500000D01*
X187959000Y-90500000D01*
X187959000Y-90500000D01*
G37*
D17*
G04 #@! TO.P,J3,M3*
G04 #@! TO.N,/DEVICE_SHIELD*
X184459000Y-90700000D03*
G04 #@! TO.P,J3,M4*
X184459000Y-85700000D03*
D16*
G04 #@! TO.P,J3,M2*
X187159000Y-84700000D03*
D12*
G04 #@! TD*
G04 #@! TO.N,/DEVICE_SHIELD*
G04 #@! TO.C,J3*
G36*
X186359000Y-85900000D02*
X186359000Y-84700000D01*
X186359964Y-84700000D01*
X186359964Y-84660746D01*
X186367659Y-84582616D01*
X186382975Y-84505616D01*
X186405765Y-84430488D01*
X186435809Y-84357956D01*
X186472817Y-84288718D01*
X186516434Y-84223441D01*
X186566239Y-84162753D01*
X186621753Y-84107239D01*
X186682441Y-84057434D01*
X186747718Y-84013817D01*
X186816956Y-83976809D01*
X186889488Y-83946765D01*
X186964616Y-83923975D01*
X187041616Y-83908659D01*
X187119746Y-83900964D01*
X187198254Y-83900964D01*
X187276384Y-83908659D01*
X187353384Y-83923975D01*
X187428512Y-83946765D01*
X187501044Y-83976809D01*
X187570282Y-84013817D01*
X187635559Y-84057434D01*
X187696247Y-84107239D01*
X187751761Y-84162753D01*
X187801566Y-84223441D01*
X187845183Y-84288718D01*
X187882191Y-84357956D01*
X187912235Y-84430488D01*
X187935025Y-84505616D01*
X187950341Y-84582616D01*
X187958036Y-84660746D01*
X187958036Y-84700000D01*
X187959000Y-84700000D01*
X187959000Y-85900000D01*
X186359000Y-85900000D01*
X186359000Y-85900000D01*
G37*
D15*
G04 #@! TO.P,SW3,1*
G04 #@! TO.N,Net-(SW3-Pad1)*
X120060000Y-95470000D03*
G04 #@! TO.P,SW3,2*
G04 #@! TO.N,+3V3*
X117520000Y-95470000D03*
G04 #@! TO.P,SW3,3*
G04 #@! TO.N,/MODE_R*
X114980000Y-95470000D03*
G04 #@! TO.P,SW3,4*
G04 #@! TO.N,Net-(R29-Pad1)*
X120060000Y-92930000D03*
G04 #@! TO.P,SW3,5*
G04 #@! TO.N,+3V3*
X117520000Y-92930000D03*
G04 #@! TO.P,SW3,6*
G04 #@! TO.N,Net-(R31-Pad1)*
X114980000Y-92930000D03*
G04 #@! TO.P,SW3,M1*
G04 #@! TO.N,Net-(SW3-PadM1)*
X109900000Y-95470000D03*
G04 #@! TO.P,SW3,M2*
G04 #@! TO.N,Net-(SW3-PadM2)*
X109900000Y-92930000D03*
G04 #@! TD*
G04 #@! TO.P,SW1,4*
G04 #@! TO.N,/EN_DEVICE_5V*
X177140000Y-77740000D03*
G04 #@! TO.P,SW1,5*
G04 #@! TO.N,VBUS*
X179680000Y-77740000D03*
G04 #@! TO.P,SW1,6*
G04 #@! TO.N,/EN_HOST_5V*
X182220000Y-77740000D03*
G04 #@! TO.P,SW1,M1*
G04 #@! TO.N,Net-(SW1-PadM1)*
X187300000Y-75200000D03*
G04 #@! TO.P,SW1,M2*
G04 #@! TO.N,Net-(SW1-PadM2)*
X187300000Y-77740000D03*
G04 #@! TD*
D18*
G04 #@! TO.P,SW2,1*
G04 #@! TO.N,+3V3*
X140600000Y-75925000D03*
G04 #@! TO.P,SW2,2*
G04 #@! TO.N,/BTN_R*
X140600000Y-80475000D03*
D19*
G04 #@! TO.P,SW2,M1*
G04 #@! TO.N,GND*
X143100000Y-74700000D03*
G04 #@! TO.P,SW2,M2*
X143100000Y-81700000D03*
G04 #@! TD*
D20*
G04 #@! TO.N,+3V3*
X161100000Y-89950000D03*
X166100000Y-83950000D03*
X126600000Y-101700000D03*
X125100000Y-98950000D03*
X126100000Y-104700000D03*
X152100000Y-95410000D03*
X152350000Y-90450000D03*
X153600000Y-87950000D03*
X159950000Y-98250000D03*
G04 #@! TO.N,GND*
X121900000Y-92100000D03*
X109500000Y-70600000D03*
X182850000Y-86450000D03*
X172350000Y-91450000D03*
X165350000Y-93950000D03*
X170850000Y-99950000D03*
X166850000Y-87200000D03*
X168100000Y-87200000D03*
X165600000Y-87200000D03*
X184350000Y-95700000D03*
X182350000Y-95700000D03*
X182600000Y-93200000D03*
X182543664Y-88643664D03*
X171250000Y-83600000D03*
X129950000Y-83450000D03*
X128800000Y-77900000D03*
X163600000Y-107200000D03*
X163600000Y-76200000D03*
X162850000Y-82450000D03*
X161350000Y-91410000D03*
X155100000Y-75700000D03*
X153850000Y-75700000D03*
X151350000Y-75700000D03*
X133600000Y-83810000D03*
X132350000Y-83810000D03*
X136350000Y-95950000D03*
X129850000Y-88950000D03*
X127850000Y-88950000D03*
X143850000Y-95200000D03*
X123400000Y-76500000D03*
X161350000Y-112700000D03*
X121600000Y-101700000D03*
X129600000Y-104950000D03*
X128600000Y-97450000D03*
X124050000Y-87150000D03*
X120600000Y-89050000D03*
X147350000Y-89700000D03*
X145600000Y-88200000D03*
X151600000Y-94700000D03*
X154850000Y-87950000D03*
X152100000Y-88450000D03*
X159100000Y-98300000D03*
X160450000Y-101700000D03*
X164600000Y-91200000D03*
X168150000Y-101850000D03*
X148250000Y-83500000D03*
X171150000Y-114650000D03*
X171150000Y-115750000D03*
X153950000Y-85650000D03*
X180750000Y-85000000D03*
X180759235Y-83759363D03*
X121850000Y-98950000D03*
X149950000Y-94650000D03*
X157800000Y-92750000D03*
X155900000Y-94650000D03*
X157800000Y-94650000D03*
X155900000Y-92750000D03*
X109500000Y-117600000D03*
X112000000Y-117600000D03*
X114500000Y-117600000D03*
X117000000Y-117600000D03*
X119500000Y-117600000D03*
X122000000Y-117600000D03*
X124500000Y-117600000D03*
X127000000Y-117600000D03*
X129500000Y-117600000D03*
X132000000Y-117600000D03*
X134500000Y-117600000D03*
X137000000Y-117600000D03*
X139500000Y-117600000D03*
X142000000Y-117600000D03*
X144500000Y-117600000D03*
X147000000Y-117600000D03*
X149500000Y-117600000D03*
X152000000Y-117600000D03*
X154500000Y-117600000D03*
X157000000Y-117600000D03*
X159500000Y-117600000D03*
X162000000Y-117600000D03*
X164500000Y-117600000D03*
X167000000Y-117600000D03*
X169500000Y-117600000D03*
X172000000Y-117600000D03*
X174500000Y-117600000D03*
X177000000Y-117600000D03*
X179500000Y-117600000D03*
X182000000Y-117600000D03*
X184500000Y-117600000D03*
X187000000Y-117600000D03*
X112000000Y-70600000D03*
X114500000Y-70600000D03*
X117000000Y-70600000D03*
X119500000Y-70600000D03*
X122000000Y-70600000D03*
X124500000Y-70600000D03*
X127000000Y-70600000D03*
X129500000Y-70600000D03*
X132000000Y-70600000D03*
X134500000Y-70600000D03*
X137000000Y-70600000D03*
X139500000Y-70600000D03*
X142000000Y-70600000D03*
X144500000Y-70600000D03*
X147000000Y-70600000D03*
X149500000Y-70600000D03*
X152000000Y-70600000D03*
X154500000Y-70600000D03*
X157000000Y-70600000D03*
X159500000Y-70600000D03*
X162000000Y-70600000D03*
X164500000Y-70600000D03*
X167000000Y-70600000D03*
X169500000Y-70600000D03*
X172000000Y-70600000D03*
X174500000Y-70600000D03*
X177000000Y-70600000D03*
X179500000Y-70600000D03*
X182000000Y-70600000D03*
X184500000Y-70600000D03*
X187000000Y-70600000D03*
X143050000Y-88500000D03*
X165100000Y-79200000D03*
X166100000Y-79200000D03*
X167100000Y-79200000D03*
X164100000Y-79200000D03*
X163100000Y-79200000D03*
X171900000Y-95700000D03*
X175100000Y-95800000D03*
X175400000Y-90500000D03*
G04 #@! TO.N,VBUS*
X180040000Y-88710000D03*
X180040000Y-90450000D03*
X180040000Y-86970000D03*
G04 #@! TO.N,/HOST_VBUS*
X170850000Y-104950000D03*
X168150000Y-104950000D03*
G04 #@! TO.N,/BTN*
X144200000Y-87400000D03*
X144200000Y-89500000D03*
G04 #@! TO.N,/EN_DEVICE*
X159450000Y-86500000D03*
X158400000Y-87550000D03*
X167100000Y-86000000D03*
X169200000Y-83900000D03*
G04 #@! TO.N,/NRST*
X138200000Y-89800000D03*
X138200000Y-92400000D03*
G04 #@! TO.N,+5V*
X177350000Y-94700000D03*
X169350000Y-95450000D03*
X177350000Y-86900000D03*
X175000000Y-94700000D03*
X172600000Y-94700000D03*
G04 #@! TO.N,/I2C_SDA*
X150350000Y-90800000D03*
X150350000Y-91990000D03*
X136300000Y-91050000D03*
X136300000Y-89960000D03*
G04 #@! TO.N,/MODE*
X129400000Y-92050000D03*
X132110000Y-92050000D03*
G04 #@! TO.N,/UART_RX*
X152850000Y-99350000D03*
X152850000Y-103000000D03*
G04 #@! TO.N,/UART_TX*
X152200000Y-102500000D03*
X152200000Y-99925000D03*
G04 #@! TO.N,/PWR_EN*
X179480000Y-91060000D03*
X178740000Y-86720000D03*
G04 #@! TD*
D21*
G04 #@! TO.N,+3V3*
X126600000Y-100450000D02*
X125100000Y-98950000D01*
X126600000Y-101700000D02*
X126600000Y-100450000D01*
X126600000Y-104200000D02*
X126600000Y-101700000D01*
X126100000Y-104700000D02*
X126600000Y-104200000D01*
D22*
X166100000Y-83950000D02*
X161100000Y-88950000D01*
X161100000Y-88950000D02*
X161100000Y-89950000D01*
X161100000Y-89950000D02*
X159800000Y-91250000D01*
X159800000Y-91250000D02*
X155000000Y-91250000D01*
X154300000Y-95850000D02*
X154650000Y-96200000D01*
X159950000Y-97825736D02*
X159950000Y-98250000D01*
X158324264Y-96200000D02*
X159950000Y-97825736D01*
X154650000Y-96200000D02*
X158324264Y-96200000D01*
X154240000Y-95410000D02*
X152100000Y-95410000D01*
X154300000Y-95350000D02*
X154240000Y-95410000D01*
X154300000Y-95350000D02*
X154300000Y-95850000D01*
X154300000Y-91950000D02*
X154300000Y-95350000D01*
X154650000Y-91600000D02*
X154300000Y-91950000D01*
X155000000Y-91250000D02*
X154650000Y-91600000D01*
X153500000Y-90450000D02*
X152350000Y-90450000D01*
X154650000Y-91600000D02*
X153500000Y-90450000D01*
X153500000Y-90450000D02*
X153600000Y-90350000D01*
X153600000Y-90550000D02*
X154650000Y-91600000D01*
X153600000Y-89950000D02*
X153600000Y-90550000D01*
X153600000Y-89950000D02*
X153600000Y-87950000D01*
X153600000Y-90350000D02*
X153600000Y-89950000D01*
X117520000Y-92930000D02*
X117520000Y-95470000D01*
X140600000Y-75925000D02*
X137125000Y-72450000D01*
X137125000Y-72450000D02*
X120200000Y-72450000D01*
X117520000Y-75130000D02*
X117520000Y-92930000D01*
X120200000Y-72450000D02*
X117520000Y-75130000D01*
G04 #@! TO.N,GND*
X170850000Y-101950000D02*
X170100000Y-101950000D01*
X170100000Y-101950000D02*
X169100000Y-102950000D01*
D21*
G04 #@! TO.N,VBUS*
X180040000Y-88710000D02*
X180040000Y-90450000D01*
X180040000Y-87350000D02*
X180040000Y-86970000D01*
X180040000Y-88710000D02*
X180040000Y-87350000D01*
D22*
G04 #@! TO.N,/HOST_VBUS*
X168150000Y-104950000D02*
X170850000Y-104950000D01*
D23*
G04 #@! TO.N,/BTN*
X144200000Y-87400000D02*
X144200000Y-89500000D01*
G04 #@! TO.N,/EN_DEVICE*
X159308119Y-86441881D02*
X158318162Y-87431838D01*
X159450000Y-86500000D02*
X158418162Y-87531838D01*
X167100000Y-86000000D02*
X169200000Y-83900000D01*
G04 #@! TO.N,/NRST*
X138200000Y-89800000D02*
X138200000Y-92400000D01*
D22*
G04 #@! TO.N,+5V*
X177350000Y-94700000D02*
X177350000Y-86900000D01*
X175000000Y-94700000D02*
X172600000Y-94700000D01*
D23*
G04 #@! TO.N,/I2C_SDA*
X150350000Y-90800000D02*
X150350000Y-91990000D01*
X136300000Y-91050000D02*
X136300000Y-89960000D01*
G04 #@! TO.N,/MODE*
X129250000Y-92050000D02*
X132110000Y-92050000D01*
G04 #@! TO.N,/UART_RX*
X152850000Y-103000000D02*
X152850000Y-99350000D01*
G04 #@! TO.N,/UART_TX*
X152200000Y-102500000D02*
X152200000Y-100000000D01*
G04 #@! TO.N,/PWR_EN*
X179480000Y-91060000D02*
X179480000Y-87460000D01*
X179480000Y-87460000D02*
X178740000Y-86720000D01*
D22*
G04 #@! TO.N,/DEVICE_SHIELD*
X187159000Y-91700000D02*
X187159000Y-84700000D01*
D24*
X187159000Y-91700000D02*
X187159000Y-93891000D01*
D22*
X187159000Y-91700000D02*
X185909000Y-92950000D01*
X187159000Y-91700000D02*
X185600000Y-91700000D01*
X187159000Y-84700000D02*
X186159000Y-83700000D01*
X187159000Y-84700000D02*
X185350000Y-84700000D01*
X186600000Y-85700000D02*
X185350000Y-86950000D01*
D23*
X187159000Y-84700000D02*
X186850000Y-85450000D01*
X186850000Y-85450000D02*
X186600000Y-85700000D01*
G04 #@! TD*
G04 #@! TO.N,/DEVICE_SHIELD*
G36*
X186323230Y-83590322D02*
X186233694Y-83663801D01*
X186122801Y-83774694D01*
X186049322Y-83864230D01*
X185962193Y-83994628D01*
X185907593Y-84096776D01*
X185847578Y-84241665D01*
X185813956Y-84352502D01*
X185783360Y-84506316D01*
X185772007Y-84621586D01*
X185772007Y-84660890D01*
X185768155Y-84700000D01*
X185768155Y-85900000D01*
X185779508Y-86015268D01*
X185813130Y-86126107D01*
X185867730Y-86228256D01*
X185941209Y-86317791D01*
X186030744Y-86391270D01*
X186132893Y-86445870D01*
X186243732Y-86479492D01*
X186359000Y-86490845D01*
X187959000Y-86490845D01*
X188011501Y-86485674D01*
X188011501Y-89914326D01*
X187959000Y-89909155D01*
X186359000Y-89909155D01*
X186243732Y-89920508D01*
X186132893Y-89954130D01*
X186030744Y-90008730D01*
X185941209Y-90082209D01*
X185867730Y-90171744D01*
X185813130Y-90273893D01*
X185779508Y-90384732D01*
X185768155Y-90500000D01*
X185768155Y-91700000D01*
X185772007Y-91739110D01*
X185772007Y-91778414D01*
X185783360Y-91893684D01*
X185813956Y-92047498D01*
X185847578Y-92158335D01*
X185907593Y-92303224D01*
X185962193Y-92405372D01*
X186049322Y-92535770D01*
X186122801Y-92625306D01*
X186233694Y-92736199D01*
X186323230Y-92809678D01*
X186453628Y-92896807D01*
X186555776Y-92951407D01*
X186700665Y-93011422D01*
X186811502Y-93045044D01*
X186965316Y-93075640D01*
X187080586Y-93086993D01*
X187237414Y-93086993D01*
X187352684Y-93075640D01*
X187506498Y-93045044D01*
X187617335Y-93011422D01*
X187762224Y-92951407D01*
X187864372Y-92896807D01*
X187994770Y-92809678D01*
X188011501Y-92795948D01*
X188011501Y-95120000D01*
X185133138Y-95120000D01*
X184680000Y-94666862D01*
X184680000Y-92450000D01*
X184678463Y-92434393D01*
X184673910Y-92419385D01*
X184666518Y-92405554D01*
X184656569Y-92393431D01*
X183684958Y-91421820D01*
X183983253Y-91421820D01*
X184060089Y-91545080D01*
X184232621Y-91606665D01*
X184413853Y-91633408D01*
X184596819Y-91624280D01*
X184774489Y-91579633D01*
X184857911Y-91545080D01*
X184934747Y-91421820D01*
X184459000Y-90946073D01*
X183983253Y-91421820D01*
X183684958Y-91421820D01*
X183680000Y-91416862D01*
X183680000Y-91140103D01*
X183737180Y-91175747D01*
X184212927Y-90700000D01*
X184705073Y-90700000D01*
X185180820Y-91175747D01*
X185304080Y-91098911D01*
X185365665Y-90926379D01*
X185392408Y-90745147D01*
X185383280Y-90562181D01*
X185338633Y-90384511D01*
X185304080Y-90301089D01*
X185180820Y-90224253D01*
X184705073Y-90700000D01*
X184212927Y-90700000D01*
X183737180Y-90224253D01*
X183680000Y-90259897D01*
X183680000Y-89978180D01*
X183983253Y-89978180D01*
X184459000Y-90453927D01*
X184934747Y-89978180D01*
X184857911Y-89854920D01*
X184685379Y-89793335D01*
X184504147Y-89766592D01*
X184321181Y-89775720D01*
X184143511Y-89820367D01*
X184060089Y-89854920D01*
X183983253Y-89978180D01*
X183680000Y-89978180D01*
X183680000Y-86766660D01*
X183703875Y-86709020D01*
X183738000Y-86537460D01*
X183738000Y-86421820D01*
X183983253Y-86421820D01*
X184060089Y-86545080D01*
X184232621Y-86606665D01*
X184413853Y-86633408D01*
X184596819Y-86624280D01*
X184774489Y-86579633D01*
X184857911Y-86545080D01*
X184934747Y-86421820D01*
X184459000Y-85946073D01*
X183983253Y-86421820D01*
X183738000Y-86421820D01*
X183738000Y-86362540D01*
X183703875Y-86190980D01*
X183683776Y-86142457D01*
X183737180Y-86175747D01*
X184212927Y-85700000D01*
X184705073Y-85700000D01*
X185180820Y-86175747D01*
X185304080Y-86098911D01*
X185365665Y-85926379D01*
X185392408Y-85745147D01*
X185383280Y-85562181D01*
X185338633Y-85384511D01*
X185304080Y-85301089D01*
X185180820Y-85224253D01*
X184705073Y-85700000D01*
X184212927Y-85700000D01*
X183737180Y-85224253D01*
X183680000Y-85259897D01*
X183680000Y-84978180D01*
X183983253Y-84978180D01*
X184459000Y-85453927D01*
X184934747Y-84978180D01*
X184857911Y-84854920D01*
X184685379Y-84793335D01*
X184504147Y-84766592D01*
X184321181Y-84775720D01*
X184143511Y-84820367D01*
X184060089Y-84854920D01*
X183983253Y-84978180D01*
X183680000Y-84978180D01*
X183680000Y-84733138D01*
X184883138Y-83530000D01*
X186413508Y-83530000D01*
X186323230Y-83590322D01*
X186323230Y-83590322D01*
G37*
X186323230Y-83590322D02*
X186233694Y-83663801D01*
X186122801Y-83774694D01*
X186049322Y-83864230D01*
X185962193Y-83994628D01*
X185907593Y-84096776D01*
X185847578Y-84241665D01*
X185813956Y-84352502D01*
X185783360Y-84506316D01*
X185772007Y-84621586D01*
X185772007Y-84660890D01*
X185768155Y-84700000D01*
X185768155Y-85900000D01*
X185779508Y-86015268D01*
X185813130Y-86126107D01*
X185867730Y-86228256D01*
X185941209Y-86317791D01*
X186030744Y-86391270D01*
X186132893Y-86445870D01*
X186243732Y-86479492D01*
X186359000Y-86490845D01*
X187959000Y-86490845D01*
X188011501Y-86485674D01*
X188011501Y-89914326D01*
X187959000Y-89909155D01*
X186359000Y-89909155D01*
X186243732Y-89920508D01*
X186132893Y-89954130D01*
X186030744Y-90008730D01*
X185941209Y-90082209D01*
X185867730Y-90171744D01*
X185813130Y-90273893D01*
X185779508Y-90384732D01*
X185768155Y-90500000D01*
X185768155Y-91700000D01*
X185772007Y-91739110D01*
X185772007Y-91778414D01*
X185783360Y-91893684D01*
X185813956Y-92047498D01*
X185847578Y-92158335D01*
X185907593Y-92303224D01*
X185962193Y-92405372D01*
X186049322Y-92535770D01*
X186122801Y-92625306D01*
X186233694Y-92736199D01*
X186323230Y-92809678D01*
X186453628Y-92896807D01*
X186555776Y-92951407D01*
X186700665Y-93011422D01*
X186811502Y-93045044D01*
X186965316Y-93075640D01*
X187080586Y-93086993D01*
X187237414Y-93086993D01*
X187352684Y-93075640D01*
X187506498Y-93045044D01*
X187617335Y-93011422D01*
X187762224Y-92951407D01*
X187864372Y-92896807D01*
X187994770Y-92809678D01*
X188011501Y-92795948D01*
X188011501Y-95120000D01*
X185133138Y-95120000D01*
X184680000Y-94666862D01*
X184680000Y-92450000D01*
X184678463Y-92434393D01*
X184673910Y-92419385D01*
X184666518Y-92405554D01*
X184656569Y-92393431D01*
X183684958Y-91421820D01*
X183983253Y-91421820D01*
X184060089Y-91545080D01*
X184232621Y-91606665D01*
X184413853Y-91633408D01*
X184596819Y-91624280D01*
X184774489Y-91579633D01*
X184857911Y-91545080D01*
X184934747Y-91421820D01*
X184459000Y-90946073D01*
X183983253Y-91421820D01*
X183684958Y-91421820D01*
X183680000Y-91416862D01*
X183680000Y-91140103D01*
X183737180Y-91175747D01*
X184212927Y-90700000D01*
X184705073Y-90700000D01*
X185180820Y-91175747D01*
X185304080Y-91098911D01*
X185365665Y-90926379D01*
X185392408Y-90745147D01*
X185383280Y-90562181D01*
X185338633Y-90384511D01*
X185304080Y-90301089D01*
X185180820Y-90224253D01*
X184705073Y-90700000D01*
X184212927Y-90700000D01*
X183737180Y-90224253D01*
X183680000Y-90259897D01*
X183680000Y-89978180D01*
X183983253Y-89978180D01*
X184459000Y-90453927D01*
X184934747Y-89978180D01*
X184857911Y-89854920D01*
X184685379Y-89793335D01*
X184504147Y-89766592D01*
X184321181Y-89775720D01*
X184143511Y-89820367D01*
X184060089Y-89854920D01*
X183983253Y-89978180D01*
X183680000Y-89978180D01*
X183680000Y-86766660D01*
X183703875Y-86709020D01*
X183738000Y-86537460D01*
X183738000Y-86421820D01*
X183983253Y-86421820D01*
X184060089Y-86545080D01*
X184232621Y-86606665D01*
X184413853Y-86633408D01*
X184596819Y-86624280D01*
X184774489Y-86579633D01*
X184857911Y-86545080D01*
X184934747Y-86421820D01*
X184459000Y-85946073D01*
X183983253Y-86421820D01*
X183738000Y-86421820D01*
X183738000Y-86362540D01*
X183703875Y-86190980D01*
X183683776Y-86142457D01*
X183737180Y-86175747D01*
X184212927Y-85700000D01*
X184705073Y-85700000D01*
X185180820Y-86175747D01*
X185304080Y-86098911D01*
X185365665Y-85926379D01*
X185392408Y-85745147D01*
X185383280Y-85562181D01*
X185338633Y-85384511D01*
X185304080Y-85301089D01*
X185180820Y-85224253D01*
X184705073Y-85700000D01*
X184212927Y-85700000D01*
X183737180Y-85224253D01*
X183680000Y-85259897D01*
X183680000Y-84978180D01*
X183983253Y-84978180D01*
X184459000Y-85453927D01*
X184934747Y-84978180D01*
X184857911Y-84854920D01*
X184685379Y-84793335D01*
X184504147Y-84766592D01*
X184321181Y-84775720D01*
X184143511Y-84820367D01*
X184060089Y-84854920D01*
X183983253Y-84978180D01*
X183680000Y-84978180D01*
X183680000Y-84733138D01*
X184883138Y-83530000D01*
X186413508Y-83530000D01*
X186323230Y-83590322D01*
D25*
G04 #@! TO.N,GND*
G36*
X188172501Y-74622724D02*
X188170648Y-74618251D01*
X187881749Y-74329352D01*
X187504283Y-74173000D01*
X187095717Y-74173000D01*
X186718251Y-74329352D01*
X186429352Y-74618251D01*
X186273000Y-74995717D01*
X186273000Y-75404283D01*
X186429352Y-75781749D01*
X186718251Y-76070648D01*
X187095717Y-76227000D01*
X187504283Y-76227000D01*
X187881749Y-76070648D01*
X188170648Y-75781749D01*
X188172501Y-75777276D01*
X188172501Y-77162724D01*
X188170648Y-77158251D01*
X187881749Y-76869352D01*
X187504283Y-76713000D01*
X187095717Y-76713000D01*
X186718251Y-76869352D01*
X186429352Y-77158251D01*
X186273000Y-77535717D01*
X186273000Y-77944283D01*
X186429352Y-78321749D01*
X186718251Y-78610648D01*
X187095717Y-78767000D01*
X187504283Y-78767000D01*
X187881749Y-78610648D01*
X188170648Y-78321749D01*
X188172501Y-78317276D01*
X188172501Y-82815000D01*
X184850000Y-82815000D01*
X184606996Y-82863336D01*
X184400987Y-83000987D01*
X183150987Y-84250987D01*
X183013336Y-84456996D01*
X182965000Y-84700000D01*
X182965000Y-91450000D01*
X183013336Y-91693004D01*
X183150987Y-91899013D01*
X183965000Y-92713026D01*
X183965000Y-94700000D01*
X184013336Y-94943004D01*
X184150987Y-95149013D01*
X184650987Y-95649013D01*
X184856996Y-95786664D01*
X185100000Y-95835000D01*
X188172500Y-95835000D01*
X188172500Y-97165000D01*
X174300000Y-97165000D01*
X174054915Y-97214203D01*
X173849396Y-97352584D01*
X173712478Y-97559080D01*
X173665004Y-97802254D01*
X173681419Y-102427254D01*
X173729751Y-102668004D01*
X173867402Y-102874013D01*
X174073411Y-103011664D01*
X174316415Y-103060000D01*
X174645630Y-103060000D01*
X174598088Y-103228483D01*
X175390000Y-104020395D01*
X175404143Y-104006253D01*
X175583748Y-104185858D01*
X175569605Y-104200000D01*
X175583748Y-104214143D01*
X175404143Y-104393748D01*
X175390000Y-104379605D01*
X174598088Y-105171517D01*
X174666077Y-105412460D01*
X175073064Y-105557303D01*
X174723283Y-105702187D01*
X174392187Y-106033283D01*
X174213000Y-106465880D01*
X174213000Y-106934120D01*
X174392187Y-107366717D01*
X174723283Y-107697813D01*
X174728563Y-107700000D01*
X174723283Y-107702187D01*
X174392187Y-108033283D01*
X174213000Y-108465880D01*
X174213000Y-108934120D01*
X174392187Y-109366717D01*
X174723283Y-109697813D01*
X175155880Y-109877000D01*
X175624120Y-109877000D01*
X175953020Y-109740765D01*
X175952336Y-110158951D01*
X175624120Y-110023000D01*
X175155880Y-110023000D01*
X174723283Y-110202187D01*
X174392187Y-110533283D01*
X174213000Y-110965880D01*
X174213000Y-111434120D01*
X174370765Y-111815000D01*
X174083585Y-111815000D01*
X173840581Y-111863336D01*
X173634572Y-112000987D01*
X173496921Y-112206996D01*
X173448585Y-112450000D01*
X173448585Y-116450000D01*
X173496921Y-116693004D01*
X173634572Y-116899013D01*
X173840581Y-117036664D01*
X174083585Y-117085000D01*
X188172500Y-117085000D01*
X188172500Y-118772500D01*
X109027500Y-118772500D01*
X109027500Y-112361025D01*
X109418581Y-112361025D01*
X109535601Y-112643446D01*
X110199663Y-112895018D01*
X110909448Y-112873314D01*
X111464399Y-112643446D01*
X111581419Y-112361025D01*
X110500000Y-111279605D01*
X109418581Y-112361025D01*
X109027500Y-112361025D01*
X109027500Y-112093795D01*
X109238975Y-112181419D01*
X110320395Y-111100000D01*
X109238975Y-110018581D01*
X109027500Y-110106205D01*
X109027500Y-109838975D01*
X109418581Y-109838975D01*
X110500000Y-110920395D01*
X110514142Y-110906252D01*
X110693748Y-111085858D01*
X110679605Y-111100000D01*
X111761025Y-112181419D01*
X112043446Y-112064399D01*
X112295018Y-111400337D01*
X112279719Y-110900000D01*
X168564635Y-110900000D01*
X168564635Y-111500000D01*
X168620611Y-111781412D01*
X168780018Y-112019982D01*
X169018588Y-112179389D01*
X169300000Y-112235365D01*
X169900000Y-112235365D01*
X170181412Y-112179389D01*
X170419982Y-112019982D01*
X170579389Y-111781412D01*
X170635365Y-111500000D01*
X170635365Y-110900000D01*
X170579389Y-110618588D01*
X170419982Y-110380018D01*
X170181412Y-110220611D01*
X169900000Y-110164635D01*
X169300000Y-110164635D01*
X169018588Y-110220611D01*
X168780018Y-110380018D01*
X168620611Y-110618588D01*
X168564635Y-110900000D01*
X112279719Y-110900000D01*
X112273314Y-110690552D01*
X112201713Y-110517693D01*
X112586315Y-110677000D01*
X113213685Y-110677000D01*
X113793299Y-110436916D01*
X114236916Y-109993299D01*
X114477000Y-109413685D01*
X114477000Y-108786315D01*
X116823000Y-108786315D01*
X116823000Y-109413685D01*
X117063084Y-109993299D01*
X117506701Y-110436916D01*
X118086315Y-110677000D01*
X118713685Y-110677000D01*
X119293299Y-110436916D01*
X119736916Y-109993299D01*
X119977000Y-109413685D01*
X119977000Y-108945989D01*
X140743000Y-108945989D01*
X140743000Y-109454011D01*
X140937412Y-109923362D01*
X141296638Y-110282588D01*
X141765989Y-110477000D01*
X142274011Y-110477000D01*
X142743362Y-110282588D01*
X143102588Y-109923362D01*
X143290000Y-109470910D01*
X143477412Y-109923362D01*
X143836638Y-110282588D01*
X144305989Y-110477000D01*
X144814011Y-110477000D01*
X145283362Y-110282588D01*
X145642588Y-109923362D01*
X145830000Y-109470910D01*
X146017412Y-109923362D01*
X146376638Y-110282588D01*
X146845989Y-110477000D01*
X147354011Y-110477000D01*
X147823362Y-110282588D01*
X148182588Y-109923362D01*
X148370000Y-109470910D01*
X148557412Y-109923362D01*
X148916638Y-110282588D01*
X149385989Y-110477000D01*
X149894011Y-110477000D01*
X150363362Y-110282588D01*
X150722588Y-109923362D01*
X150910000Y-109470910D01*
X151097412Y-109923362D01*
X151456638Y-110282588D01*
X151925989Y-110477000D01*
X152434011Y-110477000D01*
X152903362Y-110282588D01*
X153235000Y-109950950D01*
X153235000Y-110176309D01*
X153331673Y-110409698D01*
X153510301Y-110588327D01*
X153743690Y-110685000D01*
X154434250Y-110685000D01*
X154593000Y-110526250D01*
X154593000Y-109327000D01*
X154847000Y-109327000D01*
X154847000Y-110526250D01*
X155005750Y-110685000D01*
X155696310Y-110685000D01*
X155929699Y-110588327D01*
X156108327Y-110409698D01*
X156205000Y-110176309D01*
X156205000Y-109562735D01*
X168916870Y-109562735D01*
X168966383Y-109788164D01*
X169431036Y-109947807D01*
X169921413Y-109917482D01*
X170233617Y-109788164D01*
X170283130Y-109562735D01*
X169600000Y-108879605D01*
X168916870Y-109562735D01*
X156205000Y-109562735D01*
X156205000Y-109485750D01*
X156046250Y-109327000D01*
X154847000Y-109327000D01*
X154593000Y-109327000D01*
X154573000Y-109327000D01*
X154573000Y-109073000D01*
X154593000Y-109073000D01*
X154593000Y-107873750D01*
X154847000Y-107873750D01*
X154847000Y-109073000D01*
X156046250Y-109073000D01*
X156205000Y-108914250D01*
X156205000Y-108531036D01*
X168352193Y-108531036D01*
X168382518Y-109021413D01*
X168511836Y-109333617D01*
X168737265Y-109383130D01*
X169420395Y-108700000D01*
X169779605Y-108700000D01*
X170462735Y-109383130D01*
X170688164Y-109333617D01*
X170847807Y-108868964D01*
X170817482Y-108378587D01*
X170688164Y-108066383D01*
X170462735Y-108016870D01*
X169779605Y-108700000D01*
X169420395Y-108700000D01*
X168737265Y-108016870D01*
X168511836Y-108066383D01*
X168352193Y-108531036D01*
X156205000Y-108531036D01*
X156205000Y-108223691D01*
X156108327Y-107990302D01*
X155955291Y-107837265D01*
X168916870Y-107837265D01*
X169600000Y-108520395D01*
X170283130Y-107837265D01*
X170233617Y-107611836D01*
X169768964Y-107452193D01*
X169278587Y-107482518D01*
X168966383Y-107611836D01*
X168916870Y-107837265D01*
X155955291Y-107837265D01*
X155929699Y-107811673D01*
X155696310Y-107715000D01*
X155005750Y-107715000D01*
X154847000Y-107873750D01*
X154593000Y-107873750D01*
X154434250Y-107715000D01*
X153743690Y-107715000D01*
X153510301Y-107811673D01*
X153331673Y-107990302D01*
X153235000Y-108223691D01*
X153235000Y-108449050D01*
X152903362Y-108117412D01*
X152434011Y-107923000D01*
X151925989Y-107923000D01*
X151456638Y-108117412D01*
X151097412Y-108476638D01*
X150910000Y-108929090D01*
X150722588Y-108476638D01*
X150363362Y-108117412D01*
X149894011Y-107923000D01*
X149385989Y-107923000D01*
X148916638Y-108117412D01*
X148557412Y-108476638D01*
X148370000Y-108929090D01*
X148182588Y-108476638D01*
X147823362Y-108117412D01*
X147354011Y-107923000D01*
X146845989Y-107923000D01*
X146376638Y-108117412D01*
X146017412Y-108476638D01*
X145830000Y-108929090D01*
X145642588Y-108476638D01*
X145283362Y-108117412D01*
X144814011Y-107923000D01*
X144305989Y-107923000D01*
X143836638Y-108117412D01*
X143477412Y-108476638D01*
X143290000Y-108929090D01*
X143102588Y-108476638D01*
X142743362Y-108117412D01*
X142274011Y-107923000D01*
X141765989Y-107923000D01*
X141296638Y-108117412D01*
X140937412Y-108476638D01*
X140743000Y-108945989D01*
X119977000Y-108945989D01*
X119977000Y-108786315D01*
X119736916Y-108206701D01*
X119293299Y-107763084D01*
X118713685Y-107523000D01*
X118086315Y-107523000D01*
X117506701Y-107763084D01*
X117063084Y-108206701D01*
X116823000Y-108786315D01*
X114477000Y-108786315D01*
X114236916Y-108206701D01*
X113793299Y-107763084D01*
X113213685Y-107523000D01*
X112586315Y-107523000D01*
X112006701Y-107763084D01*
X111563084Y-108206701D01*
X111323000Y-108786315D01*
X111323000Y-109413685D01*
X111366875Y-109519608D01*
X110800337Y-109304982D01*
X110090552Y-109326686D01*
X109535601Y-109556554D01*
X109418581Y-109838975D01*
X109027500Y-109838975D01*
X109027500Y-98805391D01*
X124373000Y-98805391D01*
X124373000Y-99094609D01*
X124483679Y-99361813D01*
X124688187Y-99566321D01*
X124955391Y-99677000D01*
X125011000Y-99677000D01*
X126023001Y-100689002D01*
X126023000Y-101248866D01*
X125983679Y-101288187D01*
X125873000Y-101555391D01*
X125873000Y-101844609D01*
X125983679Y-102111813D01*
X126023001Y-102151135D01*
X126023000Y-103960999D01*
X126010999Y-103973000D01*
X125955391Y-103973000D01*
X125688187Y-104083679D01*
X125483679Y-104288187D01*
X125373000Y-104555391D01*
X125373000Y-104844609D01*
X125483679Y-105111813D01*
X125688187Y-105316321D01*
X125955391Y-105427000D01*
X126244609Y-105427000D01*
X126511813Y-105316321D01*
X126716321Y-105111813D01*
X126827000Y-104844609D01*
X126827000Y-104805391D01*
X167423000Y-104805391D01*
X167423000Y-105094609D01*
X167533679Y-105361813D01*
X167738187Y-105566321D01*
X168005391Y-105677000D01*
X168294609Y-105677000D01*
X168415320Y-105627000D01*
X170584680Y-105627000D01*
X170705391Y-105677000D01*
X170994609Y-105677000D01*
X171261813Y-105566321D01*
X171466321Y-105361813D01*
X171577000Y-105094609D01*
X171577000Y-104805391D01*
X171466321Y-104538187D01*
X171261813Y-104333679D01*
X170994609Y-104223000D01*
X170705391Y-104223000D01*
X170584680Y-104273000D01*
X168415320Y-104273000D01*
X168294609Y-104223000D01*
X168005391Y-104223000D01*
X167738187Y-104333679D01*
X167533679Y-104538187D01*
X167423000Y-104805391D01*
X126827000Y-104805391D01*
X126827000Y-104789001D01*
X126967815Y-104648186D01*
X127015994Y-104615994D01*
X127118949Y-104461910D01*
X127143522Y-104425135D01*
X127188304Y-104200000D01*
X127177000Y-104143171D01*
X127177000Y-103995171D01*
X173992799Y-103995171D01*
X174020770Y-104545448D01*
X174177540Y-104923923D01*
X174418483Y-104991912D01*
X175210395Y-104200000D01*
X174418483Y-103408088D01*
X174177540Y-103476077D01*
X173992799Y-103995171D01*
X127177000Y-103995171D01*
X127177000Y-102151134D01*
X127216321Y-102111813D01*
X127327000Y-101844609D01*
X127327000Y-101555391D01*
X127216321Y-101288187D01*
X127177000Y-101248866D01*
X127177000Y-100506827D01*
X127188304Y-100449999D01*
X127177000Y-100393171D01*
X127143522Y-100224866D01*
X127015994Y-100034006D01*
X126967815Y-100001814D01*
X126746392Y-99780391D01*
X151473000Y-99780391D01*
X151473000Y-100069609D01*
X151583679Y-100336813D01*
X151693001Y-100446135D01*
X151693000Y-101978866D01*
X151583679Y-102088187D01*
X151473000Y-102355391D01*
X151473000Y-102644609D01*
X151583679Y-102911813D01*
X151788187Y-103116321D01*
X152055391Y-103227000D01*
X152157127Y-103227000D01*
X152233679Y-103411813D01*
X152438187Y-103616321D01*
X152705391Y-103727000D01*
X152994609Y-103727000D01*
X153261813Y-103616321D01*
X153466321Y-103411813D01*
X153577000Y-103144609D01*
X153577000Y-102855391D01*
X153466321Y-102588187D01*
X153357000Y-102478866D01*
X153357000Y-99871134D01*
X153466321Y-99761813D01*
X153577000Y-99494609D01*
X153577000Y-99205391D01*
X153466321Y-98938187D01*
X153261813Y-98733679D01*
X152994609Y-98623000D01*
X152705391Y-98623000D01*
X152438187Y-98733679D01*
X152233679Y-98938187D01*
X152126061Y-99198000D01*
X152055391Y-99198000D01*
X151788187Y-99308679D01*
X151583679Y-99513187D01*
X151473000Y-99780391D01*
X126746392Y-99780391D01*
X125827000Y-98861000D01*
X125827000Y-98805391D01*
X125716321Y-98538187D01*
X125511813Y-98333679D01*
X125244609Y-98223000D01*
X124955391Y-98223000D01*
X124688187Y-98333679D01*
X124483679Y-98538187D01*
X124373000Y-98805391D01*
X109027500Y-98805391D01*
X109027500Y-96047278D01*
X109029352Y-96051749D01*
X109318251Y-96340648D01*
X109695717Y-96497000D01*
X110104283Y-96497000D01*
X110481749Y-96340648D01*
X110770648Y-96051749D01*
X110927000Y-95674283D01*
X110927000Y-95265717D01*
X113953000Y-95265717D01*
X113953000Y-95674283D01*
X114109352Y-96051749D01*
X114398251Y-96340648D01*
X114775717Y-96497000D01*
X115184283Y-96497000D01*
X115561749Y-96340648D01*
X115850648Y-96051749D01*
X116007000Y-95674283D01*
X116007000Y-95265717D01*
X115850648Y-94888251D01*
X115561749Y-94599352D01*
X115184283Y-94443000D01*
X114775717Y-94443000D01*
X114398251Y-94599352D01*
X114109352Y-94888251D01*
X113953000Y-95265717D01*
X110927000Y-95265717D01*
X110770648Y-94888251D01*
X110481749Y-94599352D01*
X110104283Y-94443000D01*
X109695717Y-94443000D01*
X109318251Y-94599352D01*
X109029352Y-94888251D01*
X109027500Y-94892722D01*
X109027500Y-93507278D01*
X109029352Y-93511749D01*
X109318251Y-93800648D01*
X109695717Y-93957000D01*
X110104283Y-93957000D01*
X110481749Y-93800648D01*
X110770648Y-93511749D01*
X110927000Y-93134283D01*
X110927000Y-92725717D01*
X113953000Y-92725717D01*
X113953000Y-93134283D01*
X114109352Y-93511749D01*
X114398251Y-93800648D01*
X114775717Y-93957000D01*
X115184283Y-93957000D01*
X115561749Y-93800648D01*
X115850648Y-93511749D01*
X116007000Y-93134283D01*
X116007000Y-92725717D01*
X116493000Y-92725717D01*
X116493000Y-93134283D01*
X116649352Y-93511749D01*
X116843000Y-93705397D01*
X116843001Y-94694602D01*
X116649352Y-94888251D01*
X116493000Y-95265717D01*
X116493000Y-95674283D01*
X116649352Y-96051749D01*
X116938251Y-96340648D01*
X117315717Y-96497000D01*
X117724283Y-96497000D01*
X118101749Y-96340648D01*
X118390648Y-96051749D01*
X118547000Y-95674283D01*
X118547000Y-95265717D01*
X119033000Y-95265717D01*
X119033000Y-95674283D01*
X119189352Y-96051749D01*
X119478251Y-96340648D01*
X119855717Y-96497000D01*
X120264283Y-96497000D01*
X120641749Y-96340648D01*
X120930648Y-96051749D01*
X121087000Y-95674283D01*
X121087000Y-95265717D01*
X121086865Y-95265391D01*
X151373000Y-95265391D01*
X151373000Y-95554609D01*
X151483679Y-95821813D01*
X151688187Y-96026321D01*
X151955391Y-96137000D01*
X152244609Y-96137000D01*
X152365320Y-96087000D01*
X153656879Y-96087000D01*
X153662280Y-96114152D01*
X153811911Y-96338090D01*
X153868441Y-96375862D01*
X154124136Y-96631557D01*
X154161910Y-96688090D01*
X154385848Y-96837720D01*
X154583322Y-96877000D01*
X154583323Y-96877000D01*
X154650000Y-96890263D01*
X154716676Y-96877000D01*
X158043843Y-96877000D01*
X159237420Y-98070578D01*
X159223000Y-98105391D01*
X159223000Y-98394609D01*
X159333679Y-98661813D01*
X159538187Y-98866321D01*
X159805391Y-98977000D01*
X160094609Y-98977000D01*
X160361813Y-98866321D01*
X160566321Y-98661813D01*
X160677000Y-98394609D01*
X160677000Y-98105391D01*
X160627000Y-97984680D01*
X160627000Y-97892412D01*
X160640263Y-97825736D01*
X160627000Y-97759058D01*
X160587720Y-97561584D01*
X160438089Y-97337646D01*
X160381562Y-97299876D01*
X158850128Y-95768443D01*
X158812354Y-95711910D01*
X158588416Y-95562280D01*
X158390942Y-95523000D01*
X158390940Y-95523000D01*
X158324264Y-95509737D01*
X158257588Y-95523000D01*
X154977000Y-95523000D01*
X154977000Y-95416676D01*
X154990263Y-95350000D01*
X154981390Y-95305391D01*
X168623000Y-95305391D01*
X168623000Y-95594609D01*
X168733679Y-95861813D01*
X168938187Y-96066321D01*
X169205391Y-96177000D01*
X169494609Y-96177000D01*
X169761813Y-96066321D01*
X169966321Y-95861813D01*
X170077000Y-95594609D01*
X170077000Y-95305391D01*
X169966321Y-95038187D01*
X169761813Y-94833679D01*
X169494609Y-94723000D01*
X169205391Y-94723000D01*
X168938187Y-94833679D01*
X168733679Y-95038187D01*
X168623000Y-95305391D01*
X154981390Y-95305391D01*
X154977000Y-95283322D01*
X154977000Y-94555391D01*
X171873000Y-94555391D01*
X171873000Y-94844609D01*
X171983679Y-95111813D01*
X172188187Y-95316321D01*
X172455391Y-95427000D01*
X172744609Y-95427000D01*
X172865320Y-95377000D01*
X174734680Y-95377000D01*
X174855391Y-95427000D01*
X175144609Y-95427000D01*
X175411813Y-95316321D01*
X175616321Y-95111813D01*
X175727000Y-94844609D01*
X175727000Y-94555391D01*
X175616321Y-94288187D01*
X175411813Y-94083679D01*
X175144609Y-93973000D01*
X174855391Y-93973000D01*
X174734680Y-94023000D01*
X172865320Y-94023000D01*
X172744609Y-93973000D01*
X172455391Y-93973000D01*
X172188187Y-94083679D01*
X171983679Y-94288187D01*
X171873000Y-94555391D01*
X154977000Y-94555391D01*
X154977000Y-92230421D01*
X155081561Y-92125860D01*
X155138089Y-92088089D01*
X155175860Y-92031561D01*
X155280421Y-91927000D01*
X159733324Y-91927000D01*
X159800000Y-91940263D01*
X159866676Y-91927000D01*
X159866678Y-91927000D01*
X160064152Y-91887720D01*
X160288090Y-91738090D01*
X160325864Y-91681557D01*
X161391102Y-90616321D01*
X161511813Y-90566321D01*
X161716321Y-90361813D01*
X161827000Y-90094609D01*
X161827000Y-89805391D01*
X161777000Y-89684680D01*
X161777000Y-89230421D01*
X164252030Y-86755391D01*
X176623000Y-86755391D01*
X176623000Y-87044609D01*
X176673001Y-87165323D01*
X176673000Y-94434680D01*
X176623000Y-94555391D01*
X176623000Y-94844609D01*
X176733679Y-95111813D01*
X176938187Y-95316321D01*
X177205391Y-95427000D01*
X177494609Y-95427000D01*
X177761813Y-95316321D01*
X177966321Y-95111813D01*
X178077000Y-94844609D01*
X178077000Y-94555391D01*
X178027000Y-94434680D01*
X178027000Y-87165320D01*
X178077000Y-87044609D01*
X178077000Y-87019119D01*
X178123679Y-87131813D01*
X178328187Y-87336321D01*
X178595391Y-87447000D01*
X178749995Y-87447000D01*
X178973001Y-87670007D01*
X178973000Y-90538866D01*
X178863679Y-90648187D01*
X178753000Y-90915391D01*
X178753000Y-91204609D01*
X178863679Y-91471813D01*
X179068187Y-91676321D01*
X179335391Y-91787000D01*
X179624609Y-91787000D01*
X179891813Y-91676321D01*
X180096321Y-91471813D01*
X180207000Y-91204609D01*
X180207000Y-91167725D01*
X180451813Y-91066321D01*
X180656321Y-90861813D01*
X180767000Y-90594609D01*
X180767000Y-90305391D01*
X180656321Y-90038187D01*
X180617000Y-89998866D01*
X180617000Y-89161134D01*
X180656321Y-89121813D01*
X180767000Y-88854609D01*
X180767000Y-88565391D01*
X180656321Y-88298187D01*
X180617000Y-88258866D01*
X180617000Y-87421134D01*
X180656321Y-87381813D01*
X180767000Y-87114609D01*
X180767000Y-86825391D01*
X180656321Y-86558187D01*
X180451813Y-86353679D01*
X180184609Y-86243000D01*
X179895391Y-86243000D01*
X179628187Y-86353679D01*
X179449273Y-86532593D01*
X179356321Y-86308187D01*
X179151813Y-86103679D01*
X178884609Y-85993000D01*
X178595391Y-85993000D01*
X178328187Y-86103679D01*
X178123679Y-86308187D01*
X178013000Y-86575391D01*
X178013000Y-86600881D01*
X177966321Y-86488187D01*
X177761813Y-86283679D01*
X177494609Y-86173000D01*
X177205391Y-86173000D01*
X176938187Y-86283679D01*
X176733679Y-86488187D01*
X176623000Y-86755391D01*
X164252030Y-86755391D01*
X165152030Y-85855391D01*
X166373000Y-85855391D01*
X166373000Y-86144609D01*
X166483679Y-86411813D01*
X166688187Y-86616321D01*
X166955391Y-86727000D01*
X167244609Y-86727000D01*
X167511813Y-86616321D01*
X167716321Y-86411813D01*
X167827000Y-86144609D01*
X167827000Y-85990005D01*
X169190007Y-84627000D01*
X169344609Y-84627000D01*
X169611813Y-84516321D01*
X169816321Y-84311813D01*
X169927000Y-84044609D01*
X169927000Y-83755391D01*
X169816321Y-83488187D01*
X169611813Y-83283679D01*
X169344609Y-83173000D01*
X169055391Y-83173000D01*
X168788187Y-83283679D01*
X168583679Y-83488187D01*
X168473000Y-83755391D01*
X168473000Y-83909993D01*
X167109995Y-85273000D01*
X166955391Y-85273000D01*
X166688187Y-85383679D01*
X166483679Y-85588187D01*
X166373000Y-85855391D01*
X165152030Y-85855391D01*
X166391100Y-84616322D01*
X166511813Y-84566321D01*
X166716321Y-84361813D01*
X166827000Y-84094609D01*
X166827000Y-83805391D01*
X166716321Y-83538187D01*
X166511813Y-83333679D01*
X166244609Y-83223000D01*
X165955391Y-83223000D01*
X165688187Y-83333679D01*
X165483679Y-83538187D01*
X165433678Y-83658900D01*
X160668441Y-88424138D01*
X160611910Y-88461911D01*
X160462280Y-88685849D01*
X160444945Y-88773000D01*
X160409737Y-88950000D01*
X160423000Y-89016677D01*
X160423001Y-89669577D01*
X159519579Y-90573000D01*
X155066676Y-90573000D01*
X155000000Y-90559737D01*
X154933323Y-90573000D01*
X154933322Y-90573000D01*
X154735848Y-90612280D01*
X154666224Y-90658801D01*
X154277000Y-90269578D01*
X154277000Y-88215320D01*
X154327000Y-88094609D01*
X154327000Y-87805391D01*
X154216321Y-87538187D01*
X154083525Y-87405391D01*
X157673000Y-87405391D01*
X157673000Y-87694609D01*
X157783679Y-87961813D01*
X157988187Y-88166321D01*
X158255391Y-88277000D01*
X158544609Y-88277000D01*
X158811813Y-88166321D01*
X159016321Y-87961813D01*
X159127000Y-87694609D01*
X159127000Y-87540006D01*
X159440006Y-87227000D01*
X159594609Y-87227000D01*
X159861813Y-87116321D01*
X160066321Y-86911813D01*
X160177000Y-86644609D01*
X160177000Y-86355391D01*
X160066321Y-86088187D01*
X159861813Y-85883679D01*
X159594609Y-85773000D01*
X159305391Y-85773000D01*
X159038187Y-85883679D01*
X158833679Y-86088187D01*
X158755100Y-86277894D01*
X158177895Y-86855100D01*
X157988187Y-86933679D01*
X157783679Y-87138187D01*
X157673000Y-87405391D01*
X154083525Y-87405391D01*
X154011813Y-87333679D01*
X153744609Y-87223000D01*
X153455391Y-87223000D01*
X153188187Y-87333679D01*
X152983679Y-87538187D01*
X152873000Y-87805391D01*
X152873000Y-88094609D01*
X152923001Y-88215322D01*
X152923000Y-89773000D01*
X152615320Y-89773000D01*
X152494609Y-89723000D01*
X152205391Y-89723000D01*
X151938187Y-89833679D01*
X151733679Y-90038187D01*
X151623000Y-90305391D01*
X151623000Y-90594609D01*
X151733679Y-90861813D01*
X151938187Y-91066321D01*
X152205391Y-91177000D01*
X152494609Y-91177000D01*
X152615320Y-91127000D01*
X153219579Y-91127000D01*
X153708802Y-91616224D01*
X153662280Y-91685849D01*
X153626813Y-91864153D01*
X153609737Y-91950000D01*
X153623000Y-92016677D01*
X153623001Y-94733000D01*
X152365320Y-94733000D01*
X152244609Y-94683000D01*
X151955391Y-94683000D01*
X151688187Y-94793679D01*
X151483679Y-94998187D01*
X151373000Y-95265391D01*
X121086865Y-95265391D01*
X120930648Y-94888251D01*
X120641749Y-94599352D01*
X120264283Y-94443000D01*
X119855717Y-94443000D01*
X119478251Y-94599352D01*
X119189352Y-94888251D01*
X119033000Y-95265717D01*
X118547000Y-95265717D01*
X118390648Y-94888251D01*
X118197000Y-94694603D01*
X118197000Y-93705397D01*
X118390648Y-93511749D01*
X118547000Y-93134283D01*
X118547000Y-92725717D01*
X119033000Y-92725717D01*
X119033000Y-93134283D01*
X119189352Y-93511749D01*
X119478251Y-93800648D01*
X119855717Y-93957000D01*
X120264283Y-93957000D01*
X120641749Y-93800648D01*
X120930648Y-93511749D01*
X121087000Y-93134283D01*
X121087000Y-92725717D01*
X120930648Y-92348251D01*
X120641749Y-92059352D01*
X120270056Y-91905391D01*
X128673000Y-91905391D01*
X128673000Y-92194609D01*
X128783679Y-92461813D01*
X128988187Y-92666321D01*
X129255391Y-92777000D01*
X129544609Y-92777000D01*
X129811813Y-92666321D01*
X129921134Y-92557000D01*
X131588866Y-92557000D01*
X131698187Y-92666321D01*
X131965391Y-92777000D01*
X132254609Y-92777000D01*
X132521813Y-92666321D01*
X132726321Y-92461813D01*
X132837000Y-92194609D01*
X132837000Y-91905391D01*
X132726321Y-91638187D01*
X132521813Y-91433679D01*
X132254609Y-91323000D01*
X131965391Y-91323000D01*
X131698187Y-91433679D01*
X131588866Y-91543000D01*
X129921134Y-91543000D01*
X129811813Y-91433679D01*
X129544609Y-91323000D01*
X129255391Y-91323000D01*
X128988187Y-91433679D01*
X128783679Y-91638187D01*
X128673000Y-91905391D01*
X120270056Y-91905391D01*
X120264283Y-91903000D01*
X119855717Y-91903000D01*
X119478251Y-92059352D01*
X119189352Y-92348251D01*
X119033000Y-92725717D01*
X118547000Y-92725717D01*
X118390648Y-92348251D01*
X118197000Y-92154603D01*
X118197000Y-89815391D01*
X135573000Y-89815391D01*
X135573000Y-90104609D01*
X135683679Y-90371813D01*
X135793001Y-90481135D01*
X135793000Y-90528866D01*
X135683679Y-90638187D01*
X135573000Y-90905391D01*
X135573000Y-91194609D01*
X135683679Y-91461813D01*
X135888187Y-91666321D01*
X136155391Y-91777000D01*
X136444609Y-91777000D01*
X136711813Y-91666321D01*
X136916321Y-91461813D01*
X137027000Y-91194609D01*
X137027000Y-90905391D01*
X136916321Y-90638187D01*
X136807000Y-90528866D01*
X136807000Y-90481134D01*
X136916321Y-90371813D01*
X137027000Y-90104609D01*
X137027000Y-89815391D01*
X136960727Y-89655391D01*
X137473000Y-89655391D01*
X137473000Y-89944609D01*
X137583679Y-90211813D01*
X137693000Y-90321134D01*
X137693001Y-91878865D01*
X137583679Y-91988187D01*
X137473000Y-92255391D01*
X137473000Y-92544609D01*
X137583679Y-92811813D01*
X137788187Y-93016321D01*
X138055391Y-93127000D01*
X138344609Y-93127000D01*
X138611813Y-93016321D01*
X138816321Y-92811813D01*
X138927000Y-92544609D01*
X138927000Y-92255391D01*
X138816321Y-91988187D01*
X138707000Y-91878866D01*
X138707000Y-90655391D01*
X149623000Y-90655391D01*
X149623000Y-90944609D01*
X149733679Y-91211813D01*
X149843000Y-91321134D01*
X149843001Y-91468865D01*
X149733679Y-91578187D01*
X149623000Y-91845391D01*
X149623000Y-92134609D01*
X149733679Y-92401813D01*
X149938187Y-92606321D01*
X150205391Y-92717000D01*
X150494609Y-92717000D01*
X150761813Y-92606321D01*
X150966321Y-92401813D01*
X151077000Y-92134609D01*
X151077000Y-91845391D01*
X150966321Y-91578187D01*
X150857000Y-91468866D01*
X150857000Y-91321134D01*
X150966321Y-91211813D01*
X151077000Y-90944609D01*
X151077000Y-90655391D01*
X150966321Y-90388187D01*
X150761813Y-90183679D01*
X150494609Y-90073000D01*
X150205391Y-90073000D01*
X149938187Y-90183679D01*
X149733679Y-90388187D01*
X149623000Y-90655391D01*
X138707000Y-90655391D01*
X138707000Y-90321134D01*
X138816321Y-90211813D01*
X138927000Y-89944609D01*
X138927000Y-89655391D01*
X138816321Y-89388187D01*
X138611813Y-89183679D01*
X138344609Y-89073000D01*
X138055391Y-89073000D01*
X137788187Y-89183679D01*
X137583679Y-89388187D01*
X137473000Y-89655391D01*
X136960727Y-89655391D01*
X136916321Y-89548187D01*
X136711813Y-89343679D01*
X136444609Y-89233000D01*
X136155391Y-89233000D01*
X135888187Y-89343679D01*
X135683679Y-89548187D01*
X135573000Y-89815391D01*
X118197000Y-89815391D01*
X118197000Y-87255391D01*
X143473000Y-87255391D01*
X143473000Y-87544609D01*
X143583679Y-87811813D01*
X143693000Y-87921134D01*
X143693001Y-88978865D01*
X143583679Y-89088187D01*
X143473000Y-89355391D01*
X143473000Y-89644609D01*
X143583679Y-89911813D01*
X143788187Y-90116321D01*
X144055391Y-90227000D01*
X144344609Y-90227000D01*
X144611813Y-90116321D01*
X144816321Y-89911813D01*
X144927000Y-89644609D01*
X144927000Y-89355391D01*
X144816321Y-89088187D01*
X144707000Y-88978866D01*
X144707000Y-87921134D01*
X144816321Y-87811813D01*
X144927000Y-87544609D01*
X144927000Y-87255391D01*
X144816321Y-86988187D01*
X144611813Y-86783679D01*
X144344609Y-86673000D01*
X144055391Y-86673000D01*
X143788187Y-86783679D01*
X143583679Y-86988187D01*
X143473000Y-87255391D01*
X118197000Y-87255391D01*
X118197000Y-82888703D01*
X142090902Y-82888703D01*
X142195687Y-83160745D01*
X142823526Y-83395619D01*
X143493456Y-83372349D01*
X144004313Y-83160745D01*
X144109098Y-82888703D01*
X143100000Y-81879605D01*
X142090902Y-82888703D01*
X118197000Y-82888703D01*
X118197000Y-80211043D01*
X139273000Y-80211043D01*
X139273000Y-80738957D01*
X139475024Y-81226685D01*
X139848315Y-81599976D01*
X140336043Y-81802000D01*
X140863957Y-81802000D01*
X141351685Y-81599976D01*
X141408535Y-81543126D01*
X141427651Y-82093456D01*
X141639255Y-82604313D01*
X141911297Y-82709098D01*
X142920395Y-81700000D01*
X143279605Y-81700000D01*
X144288703Y-82709098D01*
X144560745Y-82604313D01*
X144795619Y-81976474D01*
X144772349Y-81306544D01*
X144560745Y-80795687D01*
X144288703Y-80690902D01*
X143279605Y-81700000D01*
X142920395Y-81700000D01*
X142906253Y-81685858D01*
X143085858Y-81506253D01*
X143100000Y-81520395D01*
X144109098Y-80511297D01*
X144004313Y-80239255D01*
X143376474Y-80004381D01*
X142706544Y-80027651D01*
X142195687Y-80239255D01*
X142090903Y-80511295D01*
X141976746Y-80397138D01*
X141927000Y-80446884D01*
X141927000Y-80211043D01*
X141724976Y-79723315D01*
X141351685Y-79350024D01*
X140863957Y-79148000D01*
X140336043Y-79148000D01*
X139848315Y-79350024D01*
X139475024Y-79723315D01*
X139273000Y-80211043D01*
X118197000Y-80211043D01*
X118197000Y-77535717D01*
X176113000Y-77535717D01*
X176113000Y-77944283D01*
X176269352Y-78321749D01*
X176558251Y-78610648D01*
X176935717Y-78767000D01*
X177344283Y-78767000D01*
X177721749Y-78610648D01*
X178010648Y-78321749D01*
X178167000Y-77944283D01*
X178167000Y-77535717D01*
X178653000Y-77535717D01*
X178653000Y-77944283D01*
X178809352Y-78321749D01*
X179098251Y-78610648D01*
X179475717Y-78767000D01*
X179884283Y-78767000D01*
X180261749Y-78610648D01*
X180550648Y-78321749D01*
X180707000Y-77944283D01*
X180707000Y-77535717D01*
X181193000Y-77535717D01*
X181193000Y-77944283D01*
X181349352Y-78321749D01*
X181638251Y-78610648D01*
X182015717Y-78767000D01*
X182424283Y-78767000D01*
X182801749Y-78610648D01*
X183090648Y-78321749D01*
X183247000Y-77944283D01*
X183247000Y-77535717D01*
X183090648Y-77158251D01*
X182801749Y-76869352D01*
X182424283Y-76713000D01*
X182015717Y-76713000D01*
X181638251Y-76869352D01*
X181349352Y-77158251D01*
X181193000Y-77535717D01*
X180707000Y-77535717D01*
X180550648Y-77158251D01*
X180261749Y-76869352D01*
X179884283Y-76713000D01*
X179475717Y-76713000D01*
X179098251Y-76869352D01*
X178809352Y-77158251D01*
X178653000Y-77535717D01*
X178167000Y-77535717D01*
X178010648Y-77158251D01*
X177721749Y-76869352D01*
X177344283Y-76713000D01*
X176935717Y-76713000D01*
X176558251Y-76869352D01*
X176269352Y-77158251D01*
X176113000Y-77535717D01*
X118197000Y-77535717D01*
X118197000Y-75410421D01*
X120480423Y-73127000D01*
X136844579Y-73127000D01*
X139303936Y-75586358D01*
X139273000Y-75661043D01*
X139273000Y-76188957D01*
X139475024Y-76676685D01*
X139848315Y-77049976D01*
X140336043Y-77252000D01*
X140863957Y-77252000D01*
X141351685Y-77049976D01*
X141724976Y-76676685D01*
X141927000Y-76188957D01*
X141927000Y-75953116D01*
X141976746Y-76002862D01*
X142090903Y-75888705D01*
X142195687Y-76160745D01*
X142823526Y-76395619D01*
X143493456Y-76372349D01*
X144004313Y-76160745D01*
X144109098Y-75888703D01*
X143100000Y-74879605D01*
X143085858Y-74893748D01*
X142906253Y-74714143D01*
X142920395Y-74700000D01*
X143279605Y-74700000D01*
X144288703Y-75709098D01*
X144560745Y-75604313D01*
X144795619Y-74976474D01*
X144772349Y-74306544D01*
X144560745Y-73795687D01*
X144288703Y-73690902D01*
X143279605Y-74700000D01*
X142920395Y-74700000D01*
X141911297Y-73690902D01*
X141639255Y-73795687D01*
X141404381Y-74423526D01*
X141419826Y-74868165D01*
X141351685Y-74800024D01*
X140863957Y-74598000D01*
X140336043Y-74598000D01*
X140261358Y-74628936D01*
X139143719Y-73511297D01*
X142090902Y-73511297D01*
X143100000Y-74520395D01*
X144109098Y-73511297D01*
X144004313Y-73239255D01*
X143376474Y-73004381D01*
X142706544Y-73027651D01*
X142195687Y-73239255D01*
X142090902Y-73511297D01*
X139143719Y-73511297D01*
X137650864Y-72018443D01*
X137613090Y-71961910D01*
X137389152Y-71812280D01*
X137191678Y-71773000D01*
X137191676Y-71773000D01*
X137125000Y-71759737D01*
X137058324Y-71773000D01*
X120266676Y-71773000D01*
X120199999Y-71759737D01*
X120133323Y-71773000D01*
X120133322Y-71773000D01*
X119935848Y-71812280D01*
X119711910Y-71961910D01*
X119674140Y-72018437D01*
X117088441Y-74604138D01*
X117031910Y-74641911D01*
X116882280Y-74865849D01*
X116856448Y-74995717D01*
X116829737Y-75130000D01*
X116843000Y-75196676D01*
X116843001Y-92154602D01*
X116649352Y-92348251D01*
X116493000Y-92725717D01*
X116007000Y-92725717D01*
X115850648Y-92348251D01*
X115561749Y-92059352D01*
X115184283Y-91903000D01*
X114775717Y-91903000D01*
X114398251Y-92059352D01*
X114109352Y-92348251D01*
X113953000Y-92725717D01*
X110927000Y-92725717D01*
X110770648Y-92348251D01*
X110481749Y-92059352D01*
X110104283Y-91903000D01*
X109695717Y-91903000D01*
X109318251Y-92059352D01*
X109029352Y-92348251D01*
X109027500Y-92352722D01*
X109027500Y-69627500D01*
X188172501Y-69627500D01*
X188172501Y-74622724D01*
X188172501Y-74622724D01*
G37*
X188172501Y-74622724D02*
X188170648Y-74618251D01*
X187881749Y-74329352D01*
X187504283Y-74173000D01*
X187095717Y-74173000D01*
X186718251Y-74329352D01*
X186429352Y-74618251D01*
X186273000Y-74995717D01*
X186273000Y-75404283D01*
X186429352Y-75781749D01*
X186718251Y-76070648D01*
X187095717Y-76227000D01*
X187504283Y-76227000D01*
X187881749Y-76070648D01*
X188170648Y-75781749D01*
X188172501Y-75777276D01*
X188172501Y-77162724D01*
X188170648Y-77158251D01*
X187881749Y-76869352D01*
X187504283Y-76713000D01*
X187095717Y-76713000D01*
X186718251Y-76869352D01*
X186429352Y-77158251D01*
X186273000Y-77535717D01*
X186273000Y-77944283D01*
X186429352Y-78321749D01*
X186718251Y-78610648D01*
X187095717Y-78767000D01*
X187504283Y-78767000D01*
X187881749Y-78610648D01*
X188170648Y-78321749D01*
X188172501Y-78317276D01*
X188172501Y-82815000D01*
X184850000Y-82815000D01*
X184606996Y-82863336D01*
X184400987Y-83000987D01*
X183150987Y-84250987D01*
X183013336Y-84456996D01*
X182965000Y-84700000D01*
X182965000Y-91450000D01*
X183013336Y-91693004D01*
X183150987Y-91899013D01*
X183965000Y-92713026D01*
X183965000Y-94700000D01*
X184013336Y-94943004D01*
X184150987Y-95149013D01*
X184650987Y-95649013D01*
X184856996Y-95786664D01*
X185100000Y-95835000D01*
X188172500Y-95835000D01*
X188172500Y-97165000D01*
X174300000Y-97165000D01*
X174054915Y-97214203D01*
X173849396Y-97352584D01*
X173712478Y-97559080D01*
X173665004Y-97802254D01*
X173681419Y-102427254D01*
X173729751Y-102668004D01*
X173867402Y-102874013D01*
X174073411Y-103011664D01*
X174316415Y-103060000D01*
X174645630Y-103060000D01*
X174598088Y-103228483D01*
X175390000Y-104020395D01*
X175404143Y-104006253D01*
X175583748Y-104185858D01*
X175569605Y-104200000D01*
X175583748Y-104214143D01*
X175404143Y-104393748D01*
X175390000Y-104379605D01*
X174598088Y-105171517D01*
X174666077Y-105412460D01*
X175073064Y-105557303D01*
X174723283Y-105702187D01*
X174392187Y-106033283D01*
X174213000Y-106465880D01*
X174213000Y-106934120D01*
X174392187Y-107366717D01*
X174723283Y-107697813D01*
X174728563Y-107700000D01*
X174723283Y-107702187D01*
X174392187Y-108033283D01*
X174213000Y-108465880D01*
X174213000Y-108934120D01*
X174392187Y-109366717D01*
X174723283Y-109697813D01*
X175155880Y-109877000D01*
X175624120Y-109877000D01*
X175953020Y-109740765D01*
X175952336Y-110158951D01*
X175624120Y-110023000D01*
X175155880Y-110023000D01*
X174723283Y-110202187D01*
X174392187Y-110533283D01*
X174213000Y-110965880D01*
X174213000Y-111434120D01*
X174370765Y-111815000D01*
X174083585Y-111815000D01*
X173840581Y-111863336D01*
X173634572Y-112000987D01*
X173496921Y-112206996D01*
X173448585Y-112450000D01*
X173448585Y-116450000D01*
X173496921Y-116693004D01*
X173634572Y-116899013D01*
X173840581Y-117036664D01*
X174083585Y-117085000D01*
X188172500Y-117085000D01*
X188172500Y-118772500D01*
X109027500Y-118772500D01*
X109027500Y-112361025D01*
X109418581Y-112361025D01*
X109535601Y-112643446D01*
X110199663Y-112895018D01*
X110909448Y-112873314D01*
X111464399Y-112643446D01*
X111581419Y-112361025D01*
X110500000Y-111279605D01*
X109418581Y-112361025D01*
X109027500Y-112361025D01*
X109027500Y-112093795D01*
X109238975Y-112181419D01*
X110320395Y-111100000D01*
X109238975Y-110018581D01*
X109027500Y-110106205D01*
X109027500Y-109838975D01*
X109418581Y-109838975D01*
X110500000Y-110920395D01*
X110514142Y-110906252D01*
X110693748Y-111085858D01*
X110679605Y-111100000D01*
X111761025Y-112181419D01*
X112043446Y-112064399D01*
X112295018Y-111400337D01*
X112279719Y-110900000D01*
X168564635Y-110900000D01*
X168564635Y-111500000D01*
X168620611Y-111781412D01*
X168780018Y-112019982D01*
X169018588Y-112179389D01*
X169300000Y-112235365D01*
X169900000Y-112235365D01*
X170181412Y-112179389D01*
X170419982Y-112019982D01*
X170579389Y-111781412D01*
X170635365Y-111500000D01*
X170635365Y-110900000D01*
X170579389Y-110618588D01*
X170419982Y-110380018D01*
X170181412Y-110220611D01*
X169900000Y-110164635D01*
X169300000Y-110164635D01*
X169018588Y-110220611D01*
X168780018Y-110380018D01*
X168620611Y-110618588D01*
X168564635Y-110900000D01*
X112279719Y-110900000D01*
X112273314Y-110690552D01*
X112201713Y-110517693D01*
X112586315Y-110677000D01*
X113213685Y-110677000D01*
X113793299Y-110436916D01*
X114236916Y-109993299D01*
X114477000Y-109413685D01*
X114477000Y-108786315D01*
X116823000Y-108786315D01*
X116823000Y-109413685D01*
X117063084Y-109993299D01*
X117506701Y-110436916D01*
X118086315Y-110677000D01*
X118713685Y-110677000D01*
X119293299Y-110436916D01*
X119736916Y-109993299D01*
X119977000Y-109413685D01*
X119977000Y-108945989D01*
X140743000Y-108945989D01*
X140743000Y-109454011D01*
X140937412Y-109923362D01*
X141296638Y-110282588D01*
X141765989Y-110477000D01*
X142274011Y-110477000D01*
X142743362Y-110282588D01*
X143102588Y-109923362D01*
X143290000Y-109470910D01*
X143477412Y-109923362D01*
X143836638Y-110282588D01*
X144305989Y-110477000D01*
X144814011Y-110477000D01*
X145283362Y-110282588D01*
X145642588Y-109923362D01*
X145830000Y-109470910D01*
X146017412Y-109923362D01*
X146376638Y-110282588D01*
X146845989Y-110477000D01*
X147354011Y-110477000D01*
X147823362Y-110282588D01*
X148182588Y-109923362D01*
X148370000Y-109470910D01*
X148557412Y-109923362D01*
X148916638Y-110282588D01*
X149385989Y-110477000D01*
X149894011Y-110477000D01*
X150363362Y-110282588D01*
X150722588Y-109923362D01*
X150910000Y-109470910D01*
X151097412Y-109923362D01*
X151456638Y-110282588D01*
X151925989Y-110477000D01*
X152434011Y-110477000D01*
X152903362Y-110282588D01*
X153235000Y-109950950D01*
X153235000Y-110176309D01*
X153331673Y-110409698D01*
X153510301Y-110588327D01*
X153743690Y-110685000D01*
X154434250Y-110685000D01*
X154593000Y-110526250D01*
X154593000Y-109327000D01*
X154847000Y-109327000D01*
X154847000Y-110526250D01*
X155005750Y-110685000D01*
X155696310Y-110685000D01*
X155929699Y-110588327D01*
X156108327Y-110409698D01*
X156205000Y-110176309D01*
X156205000Y-109562735D01*
X168916870Y-109562735D01*
X168966383Y-109788164D01*
X169431036Y-109947807D01*
X169921413Y-109917482D01*
X170233617Y-109788164D01*
X170283130Y-109562735D01*
X169600000Y-108879605D01*
X168916870Y-109562735D01*
X156205000Y-109562735D01*
X156205000Y-109485750D01*
X156046250Y-109327000D01*
X154847000Y-109327000D01*
X154593000Y-109327000D01*
X154573000Y-109327000D01*
X154573000Y-109073000D01*
X154593000Y-109073000D01*
X154593000Y-107873750D01*
X154847000Y-107873750D01*
X154847000Y-109073000D01*
X156046250Y-109073000D01*
X156205000Y-108914250D01*
X156205000Y-108531036D01*
X168352193Y-108531036D01*
X168382518Y-109021413D01*
X168511836Y-109333617D01*
X168737265Y-109383130D01*
X169420395Y-108700000D01*
X169779605Y-108700000D01*
X170462735Y-109383130D01*
X170688164Y-109333617D01*
X170847807Y-108868964D01*
X170817482Y-108378587D01*
X170688164Y-108066383D01*
X170462735Y-108016870D01*
X169779605Y-108700000D01*
X169420395Y-108700000D01*
X168737265Y-108016870D01*
X168511836Y-108066383D01*
X168352193Y-108531036D01*
X156205000Y-108531036D01*
X156205000Y-108223691D01*
X156108327Y-107990302D01*
X155955291Y-107837265D01*
X168916870Y-107837265D01*
X169600000Y-108520395D01*
X170283130Y-107837265D01*
X170233617Y-107611836D01*
X169768964Y-107452193D01*
X169278587Y-107482518D01*
X168966383Y-107611836D01*
X168916870Y-107837265D01*
X155955291Y-107837265D01*
X155929699Y-107811673D01*
X155696310Y-107715000D01*
X155005750Y-107715000D01*
X154847000Y-107873750D01*
X154593000Y-107873750D01*
X154434250Y-107715000D01*
X153743690Y-107715000D01*
X153510301Y-107811673D01*
X153331673Y-107990302D01*
X153235000Y-108223691D01*
X153235000Y-108449050D01*
X152903362Y-108117412D01*
X152434011Y-107923000D01*
X151925989Y-107923000D01*
X151456638Y-108117412D01*
X151097412Y-108476638D01*
X150910000Y-108929090D01*
X150722588Y-108476638D01*
X150363362Y-108117412D01*
X149894011Y-107923000D01*
X149385989Y-107923000D01*
X148916638Y-108117412D01*
X148557412Y-108476638D01*
X148370000Y-108929090D01*
X148182588Y-108476638D01*
X147823362Y-108117412D01*
X147354011Y-107923000D01*
X146845989Y-107923000D01*
X146376638Y-108117412D01*
X146017412Y-108476638D01*
X145830000Y-108929090D01*
X145642588Y-108476638D01*
X145283362Y-108117412D01*
X144814011Y-107923000D01*
X144305989Y-107923000D01*
X143836638Y-108117412D01*
X143477412Y-108476638D01*
X143290000Y-108929090D01*
X143102588Y-108476638D01*
X142743362Y-108117412D01*
X142274011Y-107923000D01*
X141765989Y-107923000D01*
X141296638Y-108117412D01*
X140937412Y-108476638D01*
X140743000Y-108945989D01*
X119977000Y-108945989D01*
X119977000Y-108786315D01*
X119736916Y-108206701D01*
X119293299Y-107763084D01*
X118713685Y-107523000D01*
X118086315Y-107523000D01*
X117506701Y-107763084D01*
X117063084Y-108206701D01*
X116823000Y-108786315D01*
X114477000Y-108786315D01*
X114236916Y-108206701D01*
X113793299Y-107763084D01*
X113213685Y-107523000D01*
X112586315Y-107523000D01*
X112006701Y-107763084D01*
X111563084Y-108206701D01*
X111323000Y-108786315D01*
X111323000Y-109413685D01*
X111366875Y-109519608D01*
X110800337Y-109304982D01*
X110090552Y-109326686D01*
X109535601Y-109556554D01*
X109418581Y-109838975D01*
X109027500Y-109838975D01*
X109027500Y-98805391D01*
X124373000Y-98805391D01*
X124373000Y-99094609D01*
X124483679Y-99361813D01*
X124688187Y-99566321D01*
X124955391Y-99677000D01*
X125011000Y-99677000D01*
X126023001Y-100689002D01*
X126023000Y-101248866D01*
X125983679Y-101288187D01*
X125873000Y-101555391D01*
X125873000Y-101844609D01*
X125983679Y-102111813D01*
X126023001Y-102151135D01*
X126023000Y-103960999D01*
X126010999Y-103973000D01*
X125955391Y-103973000D01*
X125688187Y-104083679D01*
X125483679Y-104288187D01*
X125373000Y-104555391D01*
X125373000Y-104844609D01*
X125483679Y-105111813D01*
X125688187Y-105316321D01*
X125955391Y-105427000D01*
X126244609Y-105427000D01*
X126511813Y-105316321D01*
X126716321Y-105111813D01*
X126827000Y-104844609D01*
X126827000Y-104805391D01*
X167423000Y-104805391D01*
X167423000Y-105094609D01*
X167533679Y-105361813D01*
X167738187Y-105566321D01*
X168005391Y-105677000D01*
X168294609Y-105677000D01*
X168415320Y-105627000D01*
X170584680Y-105627000D01*
X170705391Y-105677000D01*
X170994609Y-105677000D01*
X171261813Y-105566321D01*
X171466321Y-105361813D01*
X171577000Y-105094609D01*
X171577000Y-104805391D01*
X171466321Y-104538187D01*
X171261813Y-104333679D01*
X170994609Y-104223000D01*
X170705391Y-104223000D01*
X170584680Y-104273000D01*
X168415320Y-104273000D01*
X168294609Y-104223000D01*
X168005391Y-104223000D01*
X167738187Y-104333679D01*
X167533679Y-104538187D01*
X167423000Y-104805391D01*
X126827000Y-104805391D01*
X126827000Y-104789001D01*
X126967815Y-104648186D01*
X127015994Y-104615994D01*
X127118949Y-104461910D01*
X127143522Y-104425135D01*
X127188304Y-104200000D01*
X127177000Y-104143171D01*
X127177000Y-103995171D01*
X173992799Y-103995171D01*
X174020770Y-104545448D01*
X174177540Y-104923923D01*
X174418483Y-104991912D01*
X175210395Y-104200000D01*
X174418483Y-103408088D01*
X174177540Y-103476077D01*
X173992799Y-103995171D01*
X127177000Y-103995171D01*
X127177000Y-102151134D01*
X127216321Y-102111813D01*
X127327000Y-101844609D01*
X127327000Y-101555391D01*
X127216321Y-101288187D01*
X127177000Y-101248866D01*
X127177000Y-100506827D01*
X127188304Y-100449999D01*
X127177000Y-100393171D01*
X127143522Y-100224866D01*
X127015994Y-100034006D01*
X126967815Y-100001814D01*
X126746392Y-99780391D01*
X151473000Y-99780391D01*
X151473000Y-100069609D01*
X151583679Y-100336813D01*
X151693001Y-100446135D01*
X151693000Y-101978866D01*
X151583679Y-102088187D01*
X151473000Y-102355391D01*
X151473000Y-102644609D01*
X151583679Y-102911813D01*
X151788187Y-103116321D01*
X152055391Y-103227000D01*
X152157127Y-103227000D01*
X152233679Y-103411813D01*
X152438187Y-103616321D01*
X152705391Y-103727000D01*
X152994609Y-103727000D01*
X153261813Y-103616321D01*
X153466321Y-103411813D01*
X153577000Y-103144609D01*
X153577000Y-102855391D01*
X153466321Y-102588187D01*
X153357000Y-102478866D01*
X153357000Y-99871134D01*
X153466321Y-99761813D01*
X153577000Y-99494609D01*
X153577000Y-99205391D01*
X153466321Y-98938187D01*
X153261813Y-98733679D01*
X152994609Y-98623000D01*
X152705391Y-98623000D01*
X152438187Y-98733679D01*
X152233679Y-98938187D01*
X152126061Y-99198000D01*
X152055391Y-99198000D01*
X151788187Y-99308679D01*
X151583679Y-99513187D01*
X151473000Y-99780391D01*
X126746392Y-99780391D01*
X125827000Y-98861000D01*
X125827000Y-98805391D01*
X125716321Y-98538187D01*
X125511813Y-98333679D01*
X125244609Y-98223000D01*
X124955391Y-98223000D01*
X124688187Y-98333679D01*
X124483679Y-98538187D01*
X124373000Y-98805391D01*
X109027500Y-98805391D01*
X109027500Y-96047278D01*
X109029352Y-96051749D01*
X109318251Y-96340648D01*
X109695717Y-96497000D01*
X110104283Y-96497000D01*
X110481749Y-96340648D01*
X110770648Y-96051749D01*
X110927000Y-95674283D01*
X110927000Y-95265717D01*
X113953000Y-95265717D01*
X113953000Y-95674283D01*
X114109352Y-96051749D01*
X114398251Y-96340648D01*
X114775717Y-96497000D01*
X115184283Y-96497000D01*
X115561749Y-96340648D01*
X115850648Y-96051749D01*
X116007000Y-95674283D01*
X116007000Y-95265717D01*
X115850648Y-94888251D01*
X115561749Y-94599352D01*
X115184283Y-94443000D01*
X114775717Y-94443000D01*
X114398251Y-94599352D01*
X114109352Y-94888251D01*
X113953000Y-95265717D01*
X110927000Y-95265717D01*
X110770648Y-94888251D01*
X110481749Y-94599352D01*
X110104283Y-94443000D01*
X109695717Y-94443000D01*
X109318251Y-94599352D01*
X109029352Y-94888251D01*
X109027500Y-94892722D01*
X109027500Y-93507278D01*
X109029352Y-93511749D01*
X109318251Y-93800648D01*
X109695717Y-93957000D01*
X110104283Y-93957000D01*
X110481749Y-93800648D01*
X110770648Y-93511749D01*
X110927000Y-93134283D01*
X110927000Y-92725717D01*
X113953000Y-92725717D01*
X113953000Y-93134283D01*
X114109352Y-93511749D01*
X114398251Y-93800648D01*
X114775717Y-93957000D01*
X115184283Y-93957000D01*
X115561749Y-93800648D01*
X115850648Y-93511749D01*
X116007000Y-93134283D01*
X116007000Y-92725717D01*
X116493000Y-92725717D01*
X116493000Y-93134283D01*
X116649352Y-93511749D01*
X116843000Y-93705397D01*
X116843001Y-94694602D01*
X116649352Y-94888251D01*
X116493000Y-95265717D01*
X116493000Y-95674283D01*
X116649352Y-96051749D01*
X116938251Y-96340648D01*
X117315717Y-96497000D01*
X117724283Y-96497000D01*
X118101749Y-96340648D01*
X118390648Y-96051749D01*
X118547000Y-95674283D01*
X118547000Y-95265717D01*
X119033000Y-95265717D01*
X119033000Y-95674283D01*
X119189352Y-96051749D01*
X119478251Y-96340648D01*
X119855717Y-96497000D01*
X120264283Y-96497000D01*
X120641749Y-96340648D01*
X120930648Y-96051749D01*
X121087000Y-95674283D01*
X121087000Y-95265717D01*
X121086865Y-95265391D01*
X151373000Y-95265391D01*
X151373000Y-95554609D01*
X151483679Y-95821813D01*
X151688187Y-96026321D01*
X151955391Y-96137000D01*
X152244609Y-96137000D01*
X152365320Y-96087000D01*
X153656879Y-96087000D01*
X153662280Y-96114152D01*
X153811911Y-96338090D01*
X153868441Y-96375862D01*
X154124136Y-96631557D01*
X154161910Y-96688090D01*
X154385848Y-96837720D01*
X154583322Y-96877000D01*
X154583323Y-96877000D01*
X154650000Y-96890263D01*
X154716676Y-96877000D01*
X158043843Y-96877000D01*
X159237420Y-98070578D01*
X159223000Y-98105391D01*
X159223000Y-98394609D01*
X159333679Y-98661813D01*
X159538187Y-98866321D01*
X159805391Y-98977000D01*
X160094609Y-98977000D01*
X160361813Y-98866321D01*
X160566321Y-98661813D01*
X160677000Y-98394609D01*
X160677000Y-98105391D01*
X160627000Y-97984680D01*
X160627000Y-97892412D01*
X160640263Y-97825736D01*
X160627000Y-97759058D01*
X160587720Y-97561584D01*
X160438089Y-97337646D01*
X160381562Y-97299876D01*
X158850128Y-95768443D01*
X158812354Y-95711910D01*
X158588416Y-95562280D01*
X158390942Y-95523000D01*
X158390940Y-95523000D01*
X158324264Y-95509737D01*
X158257588Y-95523000D01*
X154977000Y-95523000D01*
X154977000Y-95416676D01*
X154990263Y-95350000D01*
X154981390Y-95305391D01*
X168623000Y-95305391D01*
X168623000Y-95594609D01*
X168733679Y-95861813D01*
X168938187Y-96066321D01*
X169205391Y-96177000D01*
X169494609Y-96177000D01*
X169761813Y-96066321D01*
X169966321Y-95861813D01*
X170077000Y-95594609D01*
X170077000Y-95305391D01*
X169966321Y-95038187D01*
X169761813Y-94833679D01*
X169494609Y-94723000D01*
X169205391Y-94723000D01*
X168938187Y-94833679D01*
X168733679Y-95038187D01*
X168623000Y-95305391D01*
X154981390Y-95305391D01*
X154977000Y-95283322D01*
X154977000Y-94555391D01*
X171873000Y-94555391D01*
X171873000Y-94844609D01*
X171983679Y-95111813D01*
X172188187Y-95316321D01*
X172455391Y-95427000D01*
X172744609Y-95427000D01*
X172865320Y-95377000D01*
X174734680Y-95377000D01*
X174855391Y-95427000D01*
X175144609Y-95427000D01*
X175411813Y-95316321D01*
X175616321Y-95111813D01*
X175727000Y-94844609D01*
X175727000Y-94555391D01*
X175616321Y-94288187D01*
X175411813Y-94083679D01*
X175144609Y-93973000D01*
X174855391Y-93973000D01*
X174734680Y-94023000D01*
X172865320Y-94023000D01*
X172744609Y-93973000D01*
X172455391Y-93973000D01*
X172188187Y-94083679D01*
X171983679Y-94288187D01*
X171873000Y-94555391D01*
X154977000Y-94555391D01*
X154977000Y-92230421D01*
X155081561Y-92125860D01*
X155138089Y-92088089D01*
X155175860Y-92031561D01*
X155280421Y-91927000D01*
X159733324Y-91927000D01*
X159800000Y-91940263D01*
X159866676Y-91927000D01*
X159866678Y-91927000D01*
X160064152Y-91887720D01*
X160288090Y-91738090D01*
X160325864Y-91681557D01*
X161391102Y-90616321D01*
X161511813Y-90566321D01*
X161716321Y-90361813D01*
X161827000Y-90094609D01*
X161827000Y-89805391D01*
X161777000Y-89684680D01*
X161777000Y-89230421D01*
X164252030Y-86755391D01*
X176623000Y-86755391D01*
X176623000Y-87044609D01*
X176673001Y-87165323D01*
X176673000Y-94434680D01*
X176623000Y-94555391D01*
X176623000Y-94844609D01*
X176733679Y-95111813D01*
X176938187Y-95316321D01*
X177205391Y-95427000D01*
X177494609Y-95427000D01*
X177761813Y-95316321D01*
X177966321Y-95111813D01*
X178077000Y-94844609D01*
X178077000Y-94555391D01*
X178027000Y-94434680D01*
X178027000Y-87165320D01*
X178077000Y-87044609D01*
X178077000Y-87019119D01*
X178123679Y-87131813D01*
X178328187Y-87336321D01*
X178595391Y-87447000D01*
X178749995Y-87447000D01*
X178973001Y-87670007D01*
X178973000Y-90538866D01*
X178863679Y-90648187D01*
X178753000Y-90915391D01*
X178753000Y-91204609D01*
X178863679Y-91471813D01*
X179068187Y-91676321D01*
X179335391Y-91787000D01*
X179624609Y-91787000D01*
X179891813Y-91676321D01*
X180096321Y-91471813D01*
X180207000Y-91204609D01*
X180207000Y-91167725D01*
X180451813Y-91066321D01*
X180656321Y-90861813D01*
X180767000Y-90594609D01*
X180767000Y-90305391D01*
X180656321Y-90038187D01*
X180617000Y-89998866D01*
X180617000Y-89161134D01*
X180656321Y-89121813D01*
X180767000Y-88854609D01*
X180767000Y-88565391D01*
X180656321Y-88298187D01*
X180617000Y-88258866D01*
X180617000Y-87421134D01*
X180656321Y-87381813D01*
X180767000Y-87114609D01*
X180767000Y-86825391D01*
X180656321Y-86558187D01*
X180451813Y-86353679D01*
X180184609Y-86243000D01*
X179895391Y-86243000D01*
X179628187Y-86353679D01*
X179449273Y-86532593D01*
X179356321Y-86308187D01*
X179151813Y-86103679D01*
X178884609Y-85993000D01*
X178595391Y-85993000D01*
X178328187Y-86103679D01*
X178123679Y-86308187D01*
X178013000Y-86575391D01*
X178013000Y-86600881D01*
X177966321Y-86488187D01*
X177761813Y-86283679D01*
X177494609Y-86173000D01*
X177205391Y-86173000D01*
X176938187Y-86283679D01*
X176733679Y-86488187D01*
X176623000Y-86755391D01*
X164252030Y-86755391D01*
X165152030Y-85855391D01*
X166373000Y-85855391D01*
X166373000Y-86144609D01*
X166483679Y-86411813D01*
X166688187Y-86616321D01*
X166955391Y-86727000D01*
X167244609Y-86727000D01*
X167511813Y-86616321D01*
X167716321Y-86411813D01*
X167827000Y-86144609D01*
X167827000Y-85990005D01*
X169190007Y-84627000D01*
X169344609Y-84627000D01*
X169611813Y-84516321D01*
X169816321Y-84311813D01*
X169927000Y-84044609D01*
X169927000Y-83755391D01*
X169816321Y-83488187D01*
X169611813Y-83283679D01*
X169344609Y-83173000D01*
X169055391Y-83173000D01*
X168788187Y-83283679D01*
X168583679Y-83488187D01*
X168473000Y-83755391D01*
X168473000Y-83909993D01*
X167109995Y-85273000D01*
X166955391Y-85273000D01*
X166688187Y-85383679D01*
X166483679Y-85588187D01*
X166373000Y-85855391D01*
X165152030Y-85855391D01*
X166391100Y-84616322D01*
X166511813Y-84566321D01*
X166716321Y-84361813D01*
X166827000Y-84094609D01*
X166827000Y-83805391D01*
X166716321Y-83538187D01*
X166511813Y-83333679D01*
X166244609Y-83223000D01*
X165955391Y-83223000D01*
X165688187Y-83333679D01*
X165483679Y-83538187D01*
X165433678Y-83658900D01*
X160668441Y-88424138D01*
X160611910Y-88461911D01*
X160462280Y-88685849D01*
X160444945Y-88773000D01*
X160409737Y-88950000D01*
X160423000Y-89016677D01*
X160423001Y-89669577D01*
X159519579Y-90573000D01*
X155066676Y-90573000D01*
X155000000Y-90559737D01*
X154933323Y-90573000D01*
X154933322Y-90573000D01*
X154735848Y-90612280D01*
X154666224Y-90658801D01*
X154277000Y-90269578D01*
X154277000Y-88215320D01*
X154327000Y-88094609D01*
X154327000Y-87805391D01*
X154216321Y-87538187D01*
X154083525Y-87405391D01*
X157673000Y-87405391D01*
X157673000Y-87694609D01*
X157783679Y-87961813D01*
X157988187Y-88166321D01*
X158255391Y-88277000D01*
X158544609Y-88277000D01*
X158811813Y-88166321D01*
X159016321Y-87961813D01*
X159127000Y-87694609D01*
X159127000Y-87540006D01*
X159440006Y-87227000D01*
X159594609Y-87227000D01*
X159861813Y-87116321D01*
X160066321Y-86911813D01*
X160177000Y-86644609D01*
X160177000Y-86355391D01*
X160066321Y-86088187D01*
X159861813Y-85883679D01*
X159594609Y-85773000D01*
X159305391Y-85773000D01*
X159038187Y-85883679D01*
X158833679Y-86088187D01*
X158755100Y-86277894D01*
X158177895Y-86855100D01*
X157988187Y-86933679D01*
X157783679Y-87138187D01*
X157673000Y-87405391D01*
X154083525Y-87405391D01*
X154011813Y-87333679D01*
X153744609Y-87223000D01*
X153455391Y-87223000D01*
X153188187Y-87333679D01*
X152983679Y-87538187D01*
X152873000Y-87805391D01*
X152873000Y-88094609D01*
X152923001Y-88215322D01*
X152923000Y-89773000D01*
X152615320Y-89773000D01*
X152494609Y-89723000D01*
X152205391Y-89723000D01*
X151938187Y-89833679D01*
X151733679Y-90038187D01*
X151623000Y-90305391D01*
X151623000Y-90594609D01*
X151733679Y-90861813D01*
X151938187Y-91066321D01*
X152205391Y-91177000D01*
X152494609Y-91177000D01*
X152615320Y-91127000D01*
X153219579Y-91127000D01*
X153708802Y-91616224D01*
X153662280Y-91685849D01*
X153626813Y-91864153D01*
X153609737Y-91950000D01*
X153623000Y-92016677D01*
X153623001Y-94733000D01*
X152365320Y-94733000D01*
X152244609Y-94683000D01*
X151955391Y-94683000D01*
X151688187Y-94793679D01*
X151483679Y-94998187D01*
X151373000Y-95265391D01*
X121086865Y-95265391D01*
X120930648Y-94888251D01*
X120641749Y-94599352D01*
X120264283Y-94443000D01*
X119855717Y-94443000D01*
X119478251Y-94599352D01*
X119189352Y-94888251D01*
X119033000Y-95265717D01*
X118547000Y-95265717D01*
X118390648Y-94888251D01*
X118197000Y-94694603D01*
X118197000Y-93705397D01*
X118390648Y-93511749D01*
X118547000Y-93134283D01*
X118547000Y-92725717D01*
X119033000Y-92725717D01*
X119033000Y-93134283D01*
X119189352Y-93511749D01*
X119478251Y-93800648D01*
X119855717Y-93957000D01*
X120264283Y-93957000D01*
X120641749Y-93800648D01*
X120930648Y-93511749D01*
X121087000Y-93134283D01*
X121087000Y-92725717D01*
X120930648Y-92348251D01*
X120641749Y-92059352D01*
X120270056Y-91905391D01*
X128673000Y-91905391D01*
X128673000Y-92194609D01*
X128783679Y-92461813D01*
X128988187Y-92666321D01*
X129255391Y-92777000D01*
X129544609Y-92777000D01*
X129811813Y-92666321D01*
X129921134Y-92557000D01*
X131588866Y-92557000D01*
X131698187Y-92666321D01*
X131965391Y-92777000D01*
X132254609Y-92777000D01*
X132521813Y-92666321D01*
X132726321Y-92461813D01*
X132837000Y-92194609D01*
X132837000Y-91905391D01*
X132726321Y-91638187D01*
X132521813Y-91433679D01*
X132254609Y-91323000D01*
X131965391Y-91323000D01*
X131698187Y-91433679D01*
X131588866Y-91543000D01*
X129921134Y-91543000D01*
X129811813Y-91433679D01*
X129544609Y-91323000D01*
X129255391Y-91323000D01*
X128988187Y-91433679D01*
X128783679Y-91638187D01*
X128673000Y-91905391D01*
X120270056Y-91905391D01*
X120264283Y-91903000D01*
X119855717Y-91903000D01*
X119478251Y-92059352D01*
X119189352Y-92348251D01*
X119033000Y-92725717D01*
X118547000Y-92725717D01*
X118390648Y-92348251D01*
X118197000Y-92154603D01*
X118197000Y-89815391D01*
X135573000Y-89815391D01*
X135573000Y-90104609D01*
X135683679Y-90371813D01*
X135793001Y-90481135D01*
X135793000Y-90528866D01*
X135683679Y-90638187D01*
X135573000Y-90905391D01*
X135573000Y-91194609D01*
X135683679Y-91461813D01*
X135888187Y-91666321D01*
X136155391Y-91777000D01*
X136444609Y-91777000D01*
X136711813Y-91666321D01*
X136916321Y-91461813D01*
X137027000Y-91194609D01*
X137027000Y-90905391D01*
X136916321Y-90638187D01*
X136807000Y-90528866D01*
X136807000Y-90481134D01*
X136916321Y-90371813D01*
X137027000Y-90104609D01*
X137027000Y-89815391D01*
X136960727Y-89655391D01*
X137473000Y-89655391D01*
X137473000Y-89944609D01*
X137583679Y-90211813D01*
X137693000Y-90321134D01*
X137693001Y-91878865D01*
X137583679Y-91988187D01*
X137473000Y-92255391D01*
X137473000Y-92544609D01*
X137583679Y-92811813D01*
X137788187Y-93016321D01*
X138055391Y-93127000D01*
X138344609Y-93127000D01*
X138611813Y-93016321D01*
X138816321Y-92811813D01*
X138927000Y-92544609D01*
X138927000Y-92255391D01*
X138816321Y-91988187D01*
X138707000Y-91878866D01*
X138707000Y-90655391D01*
X149623000Y-90655391D01*
X149623000Y-90944609D01*
X149733679Y-91211813D01*
X149843000Y-91321134D01*
X149843001Y-91468865D01*
X149733679Y-91578187D01*
X149623000Y-91845391D01*
X149623000Y-92134609D01*
X149733679Y-92401813D01*
X149938187Y-92606321D01*
X150205391Y-92717000D01*
X150494609Y-92717000D01*
X150761813Y-92606321D01*
X150966321Y-92401813D01*
X151077000Y-92134609D01*
X151077000Y-91845391D01*
X150966321Y-91578187D01*
X150857000Y-91468866D01*
X150857000Y-91321134D01*
X150966321Y-91211813D01*
X151077000Y-90944609D01*
X151077000Y-90655391D01*
X150966321Y-90388187D01*
X150761813Y-90183679D01*
X150494609Y-90073000D01*
X150205391Y-90073000D01*
X149938187Y-90183679D01*
X149733679Y-90388187D01*
X149623000Y-90655391D01*
X138707000Y-90655391D01*
X138707000Y-90321134D01*
X138816321Y-90211813D01*
X138927000Y-89944609D01*
X138927000Y-89655391D01*
X138816321Y-89388187D01*
X138611813Y-89183679D01*
X138344609Y-89073000D01*
X138055391Y-89073000D01*
X137788187Y-89183679D01*
X137583679Y-89388187D01*
X137473000Y-89655391D01*
X136960727Y-89655391D01*
X136916321Y-89548187D01*
X136711813Y-89343679D01*
X136444609Y-89233000D01*
X136155391Y-89233000D01*
X135888187Y-89343679D01*
X135683679Y-89548187D01*
X135573000Y-89815391D01*
X118197000Y-89815391D01*
X118197000Y-87255391D01*
X143473000Y-87255391D01*
X143473000Y-87544609D01*
X143583679Y-87811813D01*
X143693000Y-87921134D01*
X143693001Y-88978865D01*
X143583679Y-89088187D01*
X143473000Y-89355391D01*
X143473000Y-89644609D01*
X143583679Y-89911813D01*
X143788187Y-90116321D01*
X144055391Y-90227000D01*
X144344609Y-90227000D01*
X144611813Y-90116321D01*
X144816321Y-89911813D01*
X144927000Y-89644609D01*
X144927000Y-89355391D01*
X144816321Y-89088187D01*
X144707000Y-88978866D01*
X144707000Y-87921134D01*
X144816321Y-87811813D01*
X144927000Y-87544609D01*
X144927000Y-87255391D01*
X144816321Y-86988187D01*
X144611813Y-86783679D01*
X144344609Y-86673000D01*
X144055391Y-86673000D01*
X143788187Y-86783679D01*
X143583679Y-86988187D01*
X143473000Y-87255391D01*
X118197000Y-87255391D01*
X118197000Y-82888703D01*
X142090902Y-82888703D01*
X142195687Y-83160745D01*
X142823526Y-83395619D01*
X143493456Y-83372349D01*
X144004313Y-83160745D01*
X144109098Y-82888703D01*
X143100000Y-81879605D01*
X142090902Y-82888703D01*
X118197000Y-82888703D01*
X118197000Y-80211043D01*
X139273000Y-80211043D01*
X139273000Y-80738957D01*
X139475024Y-81226685D01*
X139848315Y-81599976D01*
X140336043Y-81802000D01*
X140863957Y-81802000D01*
X141351685Y-81599976D01*
X141408535Y-81543126D01*
X141427651Y-82093456D01*
X141639255Y-82604313D01*
X141911297Y-82709098D01*
X142920395Y-81700000D01*
X143279605Y-81700000D01*
X144288703Y-82709098D01*
X144560745Y-82604313D01*
X144795619Y-81976474D01*
X144772349Y-81306544D01*
X144560745Y-80795687D01*
X144288703Y-80690902D01*
X143279605Y-81700000D01*
X142920395Y-81700000D01*
X142906253Y-81685858D01*
X143085858Y-81506253D01*
X143100000Y-81520395D01*
X144109098Y-80511297D01*
X144004313Y-80239255D01*
X143376474Y-80004381D01*
X142706544Y-80027651D01*
X142195687Y-80239255D01*
X142090903Y-80511295D01*
X141976746Y-80397138D01*
X141927000Y-80446884D01*
X141927000Y-80211043D01*
X141724976Y-79723315D01*
X141351685Y-79350024D01*
X140863957Y-79148000D01*
X140336043Y-79148000D01*
X139848315Y-79350024D01*
X139475024Y-79723315D01*
X139273000Y-80211043D01*
X118197000Y-80211043D01*
X118197000Y-77535717D01*
X176113000Y-77535717D01*
X176113000Y-77944283D01*
X176269352Y-78321749D01*
X176558251Y-78610648D01*
X176935717Y-78767000D01*
X177344283Y-78767000D01*
X177721749Y-78610648D01*
X178010648Y-78321749D01*
X178167000Y-77944283D01*
X178167000Y-77535717D01*
X178653000Y-77535717D01*
X178653000Y-77944283D01*
X178809352Y-78321749D01*
X179098251Y-78610648D01*
X179475717Y-78767000D01*
X179884283Y-78767000D01*
X180261749Y-78610648D01*
X180550648Y-78321749D01*
X180707000Y-77944283D01*
X180707000Y-77535717D01*
X181193000Y-77535717D01*
X181193000Y-77944283D01*
X181349352Y-78321749D01*
X181638251Y-78610648D01*
X182015717Y-78767000D01*
X182424283Y-78767000D01*
X182801749Y-78610648D01*
X183090648Y-78321749D01*
X183247000Y-77944283D01*
X183247000Y-77535717D01*
X183090648Y-77158251D01*
X182801749Y-76869352D01*
X182424283Y-76713000D01*
X182015717Y-76713000D01*
X181638251Y-76869352D01*
X181349352Y-77158251D01*
X181193000Y-77535717D01*
X180707000Y-77535717D01*
X180550648Y-77158251D01*
X180261749Y-76869352D01*
X179884283Y-76713000D01*
X179475717Y-76713000D01*
X179098251Y-76869352D01*
X178809352Y-77158251D01*
X178653000Y-77535717D01*
X178167000Y-77535717D01*
X178010648Y-77158251D01*
X177721749Y-76869352D01*
X177344283Y-76713000D01*
X176935717Y-76713000D01*
X176558251Y-76869352D01*
X176269352Y-77158251D01*
X176113000Y-77535717D01*
X118197000Y-77535717D01*
X118197000Y-75410421D01*
X120480423Y-73127000D01*
X136844579Y-73127000D01*
X139303936Y-75586358D01*
X139273000Y-75661043D01*
X139273000Y-76188957D01*
X139475024Y-76676685D01*
X139848315Y-77049976D01*
X140336043Y-77252000D01*
X140863957Y-77252000D01*
X141351685Y-77049976D01*
X141724976Y-76676685D01*
X141927000Y-76188957D01*
X141927000Y-75953116D01*
X141976746Y-76002862D01*
X142090903Y-75888705D01*
X142195687Y-76160745D01*
X142823526Y-76395619D01*
X143493456Y-76372349D01*
X144004313Y-76160745D01*
X144109098Y-75888703D01*
X143100000Y-74879605D01*
X143085858Y-74893748D01*
X142906253Y-74714143D01*
X142920395Y-74700000D01*
X143279605Y-74700000D01*
X144288703Y-75709098D01*
X144560745Y-75604313D01*
X144795619Y-74976474D01*
X144772349Y-74306544D01*
X144560745Y-73795687D01*
X144288703Y-73690902D01*
X143279605Y-74700000D01*
X142920395Y-74700000D01*
X141911297Y-73690902D01*
X141639255Y-73795687D01*
X141404381Y-74423526D01*
X141419826Y-74868165D01*
X141351685Y-74800024D01*
X140863957Y-74598000D01*
X140336043Y-74598000D01*
X140261358Y-74628936D01*
X139143719Y-73511297D01*
X142090902Y-73511297D01*
X143100000Y-74520395D01*
X144109098Y-73511297D01*
X144004313Y-73239255D01*
X143376474Y-73004381D01*
X142706544Y-73027651D01*
X142195687Y-73239255D01*
X142090902Y-73511297D01*
X139143719Y-73511297D01*
X137650864Y-72018443D01*
X137613090Y-71961910D01*
X137389152Y-71812280D01*
X137191678Y-71773000D01*
X137191676Y-71773000D01*
X137125000Y-71759737D01*
X137058324Y-71773000D01*
X120266676Y-71773000D01*
X120199999Y-71759737D01*
X120133323Y-71773000D01*
X120133322Y-71773000D01*
X119935848Y-71812280D01*
X119711910Y-71961910D01*
X119674140Y-72018437D01*
X117088441Y-74604138D01*
X117031910Y-74641911D01*
X116882280Y-74865849D01*
X116856448Y-74995717D01*
X116829737Y-75130000D01*
X116843000Y-75196676D01*
X116843001Y-92154602D01*
X116649352Y-92348251D01*
X116493000Y-92725717D01*
X116007000Y-92725717D01*
X115850648Y-92348251D01*
X115561749Y-92059352D01*
X115184283Y-91903000D01*
X114775717Y-91903000D01*
X114398251Y-92059352D01*
X114109352Y-92348251D01*
X113953000Y-92725717D01*
X110927000Y-92725717D01*
X110770648Y-92348251D01*
X110481749Y-92059352D01*
X110104283Y-91903000D01*
X109695717Y-91903000D01*
X109318251Y-92059352D01*
X109029352Y-92348251D01*
X109027500Y-92352722D01*
X109027500Y-69627500D01*
X188172501Y-69627500D01*
X188172501Y-74622724D01*
G04 #@! TO.N,/HOST_SHIELD*
G36*
X187964500Y-116323000D02*
X179132050Y-116323000D01*
X179364621Y-116226666D01*
X179542709Y-115892314D01*
X178100000Y-114449605D01*
X176657291Y-115892314D01*
X176835379Y-116226666D01*
X177078379Y-116323000D01*
X174210585Y-116323000D01*
X174210585Y-113850426D01*
X175808327Y-113850426D01*
X175822206Y-114759350D01*
X176143334Y-115534621D01*
X176477686Y-115712709D01*
X177920395Y-114270000D01*
X178279605Y-114270000D01*
X179722314Y-115712709D01*
X180056666Y-115534621D01*
X180391673Y-114689574D01*
X180377794Y-113780650D01*
X180056666Y-113005379D01*
X179722314Y-112827291D01*
X178279605Y-114270000D01*
X177920395Y-114270000D01*
X176477686Y-112827291D01*
X176143334Y-113005379D01*
X175808327Y-113850426D01*
X174210585Y-113850426D01*
X174210585Y-112647686D01*
X176657291Y-112647686D01*
X178100000Y-114090395D01*
X179542709Y-112647686D01*
X179364621Y-112313334D01*
X178519574Y-111978327D01*
X177610650Y-111992206D01*
X176835379Y-112313334D01*
X176657291Y-112647686D01*
X174210585Y-112647686D01*
X174210585Y-112577000D01*
X175095192Y-112577000D01*
X175114506Y-112585000D01*
X175665494Y-112585000D01*
X175684808Y-112577000D01*
X176583585Y-112577000D01*
X176632186Y-112567333D01*
X176673388Y-112539803D01*
X176700918Y-112498601D01*
X176710585Y-112450208D01*
X176711932Y-111627755D01*
X176775000Y-111475494D01*
X176775000Y-110924506D01*
X176713327Y-110775614D01*
X176716041Y-109117833D01*
X176775000Y-108975494D01*
X176775000Y-108424506D01*
X176717404Y-108285457D01*
X176719329Y-107109896D01*
X176775000Y-106975494D01*
X176775000Y-106424506D01*
X176720666Y-106293332D01*
X176723439Y-104599974D01*
X176775000Y-104475494D01*
X176775000Y-103924506D01*
X176724744Y-103803176D01*
X176726252Y-102881786D01*
X176835379Y-103086666D01*
X177680426Y-103421673D01*
X178589350Y-103407794D01*
X179364621Y-103086666D01*
X179542709Y-102752314D01*
X178100000Y-101309605D01*
X178085858Y-101323748D01*
X177906253Y-101144143D01*
X177920395Y-101130000D01*
X178279605Y-101130000D01*
X179722314Y-102572709D01*
X180056666Y-102394621D01*
X180391673Y-101549574D01*
X180377794Y-100640650D01*
X180056666Y-99865379D01*
X179722314Y-99687291D01*
X178279605Y-101130000D01*
X177920395Y-101130000D01*
X176477686Y-99687291D01*
X176143334Y-99865379D01*
X175808327Y-100710426D01*
X175822206Y-101619350D01*
X176103312Y-102298000D01*
X174442965Y-102298000D01*
X174433062Y-99507686D01*
X176657291Y-99507686D01*
X178100000Y-100950395D01*
X179542709Y-99507686D01*
X179364621Y-99173334D01*
X178519574Y-98838327D01*
X177610650Y-98852206D01*
X176835379Y-99173334D01*
X176657291Y-99507686D01*
X174433062Y-99507686D01*
X174427451Y-97927000D01*
X187964500Y-97927000D01*
X187964500Y-116323000D01*
X187964500Y-116323000D01*
G37*
X187964500Y-116323000D02*
X179132050Y-116323000D01*
X179364621Y-116226666D01*
X179542709Y-115892314D01*
X178100000Y-114449605D01*
X176657291Y-115892314D01*
X176835379Y-116226666D01*
X177078379Y-116323000D01*
X174210585Y-116323000D01*
X174210585Y-113850426D01*
X175808327Y-113850426D01*
X175822206Y-114759350D01*
X176143334Y-115534621D01*
X176477686Y-115712709D01*
X177920395Y-114270000D01*
X178279605Y-114270000D01*
X179722314Y-115712709D01*
X180056666Y-115534621D01*
X180391673Y-114689574D01*
X180377794Y-113780650D01*
X180056666Y-113005379D01*
X179722314Y-112827291D01*
X178279605Y-114270000D01*
X177920395Y-114270000D01*
X176477686Y-112827291D01*
X176143334Y-113005379D01*
X175808327Y-113850426D01*
X174210585Y-113850426D01*
X174210585Y-112647686D01*
X176657291Y-112647686D01*
X178100000Y-114090395D01*
X179542709Y-112647686D01*
X179364621Y-112313334D01*
X178519574Y-111978327D01*
X177610650Y-111992206D01*
X176835379Y-112313334D01*
X176657291Y-112647686D01*
X174210585Y-112647686D01*
X174210585Y-112577000D01*
X175095192Y-112577000D01*
X175114506Y-112585000D01*
X175665494Y-112585000D01*
X175684808Y-112577000D01*
X176583585Y-112577000D01*
X176632186Y-112567333D01*
X176673388Y-112539803D01*
X176700918Y-112498601D01*
X176710585Y-112450208D01*
X176711932Y-111627755D01*
X176775000Y-111475494D01*
X176775000Y-110924506D01*
X176713327Y-110775614D01*
X176716041Y-109117833D01*
X176775000Y-108975494D01*
X176775000Y-108424506D01*
X176717404Y-108285457D01*
X176719329Y-107109896D01*
X176775000Y-106975494D01*
X176775000Y-106424506D01*
X176720666Y-106293332D01*
X176723439Y-104599974D01*
X176775000Y-104475494D01*
X176775000Y-103924506D01*
X176724744Y-103803176D01*
X176726252Y-102881786D01*
X176835379Y-103086666D01*
X177680426Y-103421673D01*
X178589350Y-103407794D01*
X179364621Y-103086666D01*
X179542709Y-102752314D01*
X178100000Y-101309605D01*
X178085858Y-101323748D01*
X177906253Y-101144143D01*
X177920395Y-101130000D01*
X178279605Y-101130000D01*
X179722314Y-102572709D01*
X180056666Y-102394621D01*
X180391673Y-101549574D01*
X180377794Y-100640650D01*
X180056666Y-99865379D01*
X179722314Y-99687291D01*
X178279605Y-101130000D01*
X177920395Y-101130000D01*
X176477686Y-99687291D01*
X176143334Y-99865379D01*
X175808327Y-100710426D01*
X175822206Y-101619350D01*
X176103312Y-102298000D01*
X174442965Y-102298000D01*
X174433062Y-99507686D01*
X176657291Y-99507686D01*
X178100000Y-100950395D01*
X179542709Y-99507686D01*
X179364621Y-99173334D01*
X178519574Y-98838327D01*
X177610650Y-98852206D01*
X176835379Y-99173334D01*
X176657291Y-99507686D01*
X174433062Y-99507686D01*
X174427451Y-97927000D01*
X187964500Y-97927000D01*
X187964500Y-116323000D01*
G04 #@! TD*
M02*
