M48
;DRILL file {KiCad (5.0.0)} date 11/19/18 18:26:57
;FORMAT={-:-/ absolute / metric / decimal}
FMAT,2
METRIC,TZ
T1C0.300
T2C0.600
T3C0.700
T4C0.900
T5C0.920
T6C1.000
T7C1.200
T8C1.300
T9C1.700
T10C2.300
%
G90
G05
M71
T1
X109.5Y-70.6
X109.5Y-117.6
X112.Y-70.6
X112.Y-117.6
X114.5Y-70.6
X114.5Y-117.6
X117.Y-70.6
X117.Y-117.6
X119.5Y-70.6
X119.5Y-117.6
X120.6Y-89.05
X121.6Y-101.7
X121.85Y-98.95
X121.9Y-92.1
X122.Y-70.6
X122.Y-117.6
X123.4Y-76.5
X124.05Y-87.15
X124.5Y-70.6
X124.5Y-117.6
X125.1Y-98.95
X126.1Y-104.7
X126.6Y-101.7
X127.Y-70.6
X127.Y-117.6
X127.85Y-88.95
X128.6Y-97.45
X128.8Y-77.9
X129.4Y-92.05
X129.5Y-70.6
X129.5Y-117.6
X129.6Y-104.95
X129.85Y-88.95
X129.95Y-83.45
X132.Y-70.6
X132.Y-117.6
X132.11Y-92.05
X132.35Y-83.81
X133.6Y-83.81
X134.5Y-70.6
X134.5Y-117.6
X136.3Y-89.96
X136.3Y-91.05
X136.35Y-95.95
X137.Y-70.6
X137.Y-117.6
X138.2Y-89.8
X138.2Y-92.4
X139.5Y-70.6
X139.5Y-117.6
X142.Y-70.6
X142.Y-117.6
X143.05Y-88.5
X143.85Y-95.2
X144.2Y-87.4
X144.2Y-89.5
X144.5Y-70.6
X144.5Y-117.6
X145.6Y-88.2
X147.Y-70.6
X147.Y-117.6
X147.35Y-89.7
X148.25Y-83.5
X149.5Y-70.6
X149.5Y-117.6
X149.95Y-94.65
X150.35Y-90.8
X150.35Y-91.99
X151.35Y-75.7
X151.6Y-94.7
X152.Y-70.6
X152.Y-117.6
X152.1Y-88.45
X152.1Y-95.41
X152.2Y-99.925
X152.2Y-102.5
X152.35Y-90.45
X152.85Y-99.35
X152.85Y-103.
X153.6Y-87.95
X153.85Y-75.7
X153.95Y-85.65
X154.5Y-70.6
X154.5Y-117.6
X154.85Y-87.95
X155.1Y-75.7
X155.9Y-92.75
X155.9Y-94.65
X157.Y-70.6
X157.Y-117.6
X157.8Y-92.75
X157.8Y-94.65
X158.4Y-87.55
X159.1Y-98.3
X159.45Y-86.5
X159.5Y-70.6
X159.5Y-117.6
X159.95Y-98.25
X160.45Y-101.7
X161.1Y-89.95
X161.35Y-91.41
X161.35Y-112.7
X162.Y-70.6
X162.Y-117.6
X162.85Y-82.45
X163.1Y-79.2
X163.6Y-76.2
X163.6Y-107.2
X164.1Y-79.2
X164.5Y-70.6
X164.5Y-117.6
X164.6Y-91.2
X165.1Y-79.2
X165.35Y-93.95
X165.6Y-87.2
X166.1Y-79.2
X166.1Y-83.95
X166.85Y-87.2
X167.Y-70.6
X167.Y-117.6
X167.1Y-79.2
X167.1Y-86.
X168.1Y-87.2
X168.15Y-101.85
X168.15Y-104.95
X169.2Y-83.9
X169.35Y-95.45
X169.5Y-70.6
X169.5Y-117.6
X170.85Y-99.95
X170.85Y-104.95
X171.15Y-114.65
X171.15Y-115.75
X171.25Y-83.6
X171.9Y-95.7
X172.Y-70.6
X172.Y-117.6
X172.35Y-91.45
X172.6Y-94.7
X174.5Y-70.6
X174.5Y-117.6
X175.Y-94.7
X175.1Y-95.8
X175.4Y-90.5
X177.Y-70.6
X177.Y-117.6
X177.35Y-86.9
X177.35Y-94.7
X178.74Y-86.72
X179.48Y-91.06
X179.5Y-70.6
X179.5Y-117.6
X180.04Y-86.97
X180.04Y-88.71
X180.04Y-90.45
X180.75Y-85.
X180.759Y-83.759
X182.Y-70.6
X182.Y-117.6
X182.35Y-95.7
X182.544Y-88.644
X182.6Y-93.2
X182.85Y-86.45
X184.35Y-95.7
X184.5Y-70.6
X184.5Y-117.6
X187.Y-70.6
X187.Y-117.6
T2
X109.9Y-92.93
X109.9Y-95.47
X114.98Y-92.93
X114.98Y-95.47
X117.52Y-92.93
X117.52Y-95.47
X120.06Y-92.93
X120.06Y-95.47
X177.14Y-77.74
X179.68Y-77.74
X182.22Y-77.74
X187.3Y-75.2
X187.3Y-77.74
T3
X169.6Y-108.7
X169.6Y-111.2
T4
X184.459Y-85.7
X184.459Y-90.7
T5
X175.39Y-104.2
X175.39Y-106.7
X175.39Y-108.7
X175.39Y-111.2
T6
X142.02Y-109.2
X144.56Y-109.2
X147.1Y-109.2
X149.64Y-109.2
X152.18Y-109.2
X154.72Y-109.2
X140.6Y-75.925
X140.6Y-80.475
T7
X187.159Y-84.7
X187.159Y-91.7
T8
X143.1Y-74.7
X143.1Y-81.7
T9
X110.5Y-111.1
X112.9Y-109.1
X118.4Y-109.1
T10
X178.1Y-101.13
X178.1Y-114.27
T0
M30
