G04 #@! TF.GenerationSoftware,KiCad,Pcbnew,(5.0.0)*
G04 #@! TF.CreationDate,2018-08-15T22:02:27-04:00*
G04 #@! TF.ProjectId,scope-footswitch,73636F70652D666F6F74737769746368,1*
G04 #@! TF.SameCoordinates,Original*
G04 #@! TF.FileFunction,Paste,Top*
G04 #@! TF.FilePolarity,Positive*
%FSLAX46Y46*%
G04 Gerber Fmt 4.6, Leading zero omitted, Abs format (unit mm)*
G04 Created by KiCad (PCBNEW (5.0.0)) date 08/15/18 22:02:27*
%MOMM*%
%LPD*%
G01*
G04 APERTURE LIST*
%ADD10R,0.600000X1.800000*%
%ADD11C,0.100000*%
%ADD12C,0.800000*%
%ADD13C,0.650000*%
%ADD14C,0.600000*%
%ADD15R,1.466666X1.466666*%
%ADD16O,0.250000X0.900000*%
%ADD17O,0.900000X0.250000*%
%ADD18R,0.600000X0.600000*%
%ADD19R,1.500000X0.250000*%
%ADD20C,0.420000*%
%ADD21C,0.430000*%
%ADD22R,0.800000X0.800000*%
%ADD23R,1.000000X1.250000*%
%ADD24C,0.400000*%
%ADD25C,1.600000*%
%ADD26C,1.300000*%
%ADD27R,1.600000X1.500000*%
%ADD28C,0.700000*%
%ADD29R,0.900000X0.900000*%
%ADD30R,0.900000X1.000000*%
%ADD31C,1.900000*%
G04 APERTURE END LIST*
D10*
G04 #@! TO.C,U3*
X136255000Y-93800000D03*
X136255000Y-88600000D03*
X134985000Y-93800000D03*
X134985000Y-88600000D03*
X133715000Y-93800000D03*
X133715000Y-88600000D03*
X132445000Y-93800000D03*
X132445000Y-88600000D03*
G04 #@! TD*
D11*
G04 #@! TO.C,D1*
G36*
X174869603Y-83750963D02*
X174889018Y-83753843D01*
X174908057Y-83758612D01*
X174926537Y-83765224D01*
X174944279Y-83773616D01*
X174961114Y-83783706D01*
X174976879Y-83795398D01*
X174991421Y-83808579D01*
X175004602Y-83823121D01*
X175016294Y-83838886D01*
X175026384Y-83855721D01*
X175034776Y-83873463D01*
X175041388Y-83891943D01*
X175046157Y-83910982D01*
X175049037Y-83930397D01*
X175050000Y-83950000D01*
X175050000Y-84450000D01*
X175049037Y-84469603D01*
X175046157Y-84489018D01*
X175041388Y-84508057D01*
X175034776Y-84526537D01*
X175026384Y-84544279D01*
X175016294Y-84561114D01*
X175004602Y-84576879D01*
X174991421Y-84591421D01*
X174976879Y-84604602D01*
X174961114Y-84616294D01*
X174944279Y-84626384D01*
X174926537Y-84634776D01*
X174908057Y-84641388D01*
X174889018Y-84646157D01*
X174869603Y-84649037D01*
X174850000Y-84650000D01*
X174450000Y-84650000D01*
X174430397Y-84649037D01*
X174410982Y-84646157D01*
X174391943Y-84641388D01*
X174373463Y-84634776D01*
X174355721Y-84626384D01*
X174338886Y-84616294D01*
X174323121Y-84604602D01*
X174308579Y-84591421D01*
X174295398Y-84576879D01*
X174283706Y-84561114D01*
X174273616Y-84544279D01*
X174265224Y-84526537D01*
X174258612Y-84508057D01*
X174253843Y-84489018D01*
X174250963Y-84469603D01*
X174250000Y-84450000D01*
X174250000Y-83950000D01*
X174250963Y-83930397D01*
X174253843Y-83910982D01*
X174258612Y-83891943D01*
X174265224Y-83873463D01*
X174273616Y-83855721D01*
X174283706Y-83838886D01*
X174295398Y-83823121D01*
X174308579Y-83808579D01*
X174323121Y-83795398D01*
X174338886Y-83783706D01*
X174355721Y-83773616D01*
X174373463Y-83765224D01*
X174391943Y-83758612D01*
X174410982Y-83753843D01*
X174430397Y-83750963D01*
X174450000Y-83750000D01*
X174850000Y-83750000D01*
X174869603Y-83750963D01*
X174869603Y-83750963D01*
G37*
D12*
X174650000Y-84200000D03*
D11*
G36*
X175819603Y-85750963D02*
X175839018Y-85753843D01*
X175858057Y-85758612D01*
X175876537Y-85765224D01*
X175894279Y-85773616D01*
X175911114Y-85783706D01*
X175926879Y-85795398D01*
X175941421Y-85808579D01*
X175954602Y-85823121D01*
X175966294Y-85838886D01*
X175976384Y-85855721D01*
X175984776Y-85873463D01*
X175991388Y-85891943D01*
X175996157Y-85910982D01*
X175999037Y-85930397D01*
X176000000Y-85950000D01*
X176000000Y-86450000D01*
X175999037Y-86469603D01*
X175996157Y-86489018D01*
X175991388Y-86508057D01*
X175984776Y-86526537D01*
X175976384Y-86544279D01*
X175966294Y-86561114D01*
X175954602Y-86576879D01*
X175941421Y-86591421D01*
X175926879Y-86604602D01*
X175911114Y-86616294D01*
X175894279Y-86626384D01*
X175876537Y-86634776D01*
X175858057Y-86641388D01*
X175839018Y-86646157D01*
X175819603Y-86649037D01*
X175800000Y-86650000D01*
X175400000Y-86650000D01*
X175380397Y-86649037D01*
X175360982Y-86646157D01*
X175341943Y-86641388D01*
X175323463Y-86634776D01*
X175305721Y-86626384D01*
X175288886Y-86616294D01*
X175273121Y-86604602D01*
X175258579Y-86591421D01*
X175245398Y-86576879D01*
X175233706Y-86561114D01*
X175223616Y-86544279D01*
X175215224Y-86526537D01*
X175208612Y-86508057D01*
X175203843Y-86489018D01*
X175200963Y-86469603D01*
X175200000Y-86450000D01*
X175200000Y-85950000D01*
X175200963Y-85930397D01*
X175203843Y-85910982D01*
X175208612Y-85891943D01*
X175215224Y-85873463D01*
X175223616Y-85855721D01*
X175233706Y-85838886D01*
X175245398Y-85823121D01*
X175258579Y-85808579D01*
X175273121Y-85795398D01*
X175288886Y-85783706D01*
X175305721Y-85773616D01*
X175323463Y-85765224D01*
X175341943Y-85758612D01*
X175360982Y-85753843D01*
X175380397Y-85750963D01*
X175400000Y-85750000D01*
X175800000Y-85750000D01*
X175819603Y-85750963D01*
X175819603Y-85750963D01*
G37*
D12*
X175600000Y-86200000D03*
D11*
G36*
X176769603Y-83750963D02*
X176789018Y-83753843D01*
X176808057Y-83758612D01*
X176826537Y-83765224D01*
X176844279Y-83773616D01*
X176861114Y-83783706D01*
X176876879Y-83795398D01*
X176891421Y-83808579D01*
X176904602Y-83823121D01*
X176916294Y-83838886D01*
X176926384Y-83855721D01*
X176934776Y-83873463D01*
X176941388Y-83891943D01*
X176946157Y-83910982D01*
X176949037Y-83930397D01*
X176950000Y-83950000D01*
X176950000Y-84450000D01*
X176949037Y-84469603D01*
X176946157Y-84489018D01*
X176941388Y-84508057D01*
X176934776Y-84526537D01*
X176926384Y-84544279D01*
X176916294Y-84561114D01*
X176904602Y-84576879D01*
X176891421Y-84591421D01*
X176876879Y-84604602D01*
X176861114Y-84616294D01*
X176844279Y-84626384D01*
X176826537Y-84634776D01*
X176808057Y-84641388D01*
X176789018Y-84646157D01*
X176769603Y-84649037D01*
X176750000Y-84650000D01*
X176350000Y-84650000D01*
X176330397Y-84649037D01*
X176310982Y-84646157D01*
X176291943Y-84641388D01*
X176273463Y-84634776D01*
X176255721Y-84626384D01*
X176238886Y-84616294D01*
X176223121Y-84604602D01*
X176208579Y-84591421D01*
X176195398Y-84576879D01*
X176183706Y-84561114D01*
X176173616Y-84544279D01*
X176165224Y-84526537D01*
X176158612Y-84508057D01*
X176153843Y-84489018D01*
X176150963Y-84469603D01*
X176150000Y-84450000D01*
X176150000Y-83950000D01*
X176150963Y-83930397D01*
X176153843Y-83910982D01*
X176158612Y-83891943D01*
X176165224Y-83873463D01*
X176173616Y-83855721D01*
X176183706Y-83838886D01*
X176195398Y-83823121D01*
X176208579Y-83808579D01*
X176223121Y-83795398D01*
X176238886Y-83783706D01*
X176255721Y-83773616D01*
X176273463Y-83765224D01*
X176291943Y-83758612D01*
X176310982Y-83753843D01*
X176330397Y-83750963D01*
X176350000Y-83750000D01*
X176750000Y-83750000D01*
X176769603Y-83750963D01*
X176769603Y-83750963D01*
G37*
D12*
X176550000Y-84200000D03*
G04 #@! TD*
D11*
G04 #@! TO.C,U2*
G36*
X179278428Y-93825782D02*
X179294202Y-93828122D01*
X179309671Y-93831997D01*
X179324686Y-93837370D01*
X179339102Y-93844188D01*
X179352780Y-93852386D01*
X179365589Y-93861886D01*
X179377405Y-93872595D01*
X179388114Y-93884411D01*
X179397614Y-93897220D01*
X179405812Y-93910898D01*
X179412630Y-93925314D01*
X179418003Y-93940329D01*
X179421878Y-93955798D01*
X179424218Y-93971572D01*
X179425000Y-93987500D01*
X179425000Y-94312500D01*
X179424218Y-94328428D01*
X179421878Y-94344202D01*
X179418003Y-94359671D01*
X179412630Y-94374686D01*
X179405812Y-94389102D01*
X179397614Y-94402780D01*
X179388114Y-94415589D01*
X179377405Y-94427405D01*
X179365589Y-94438114D01*
X179352780Y-94447614D01*
X179339102Y-94455812D01*
X179324686Y-94462630D01*
X179309671Y-94468003D01*
X179294202Y-94471878D01*
X179278428Y-94474218D01*
X179262500Y-94475000D01*
X178537500Y-94475000D01*
X178521572Y-94474218D01*
X178505798Y-94471878D01*
X178490329Y-94468003D01*
X178475314Y-94462630D01*
X178460898Y-94455812D01*
X178447220Y-94447614D01*
X178434411Y-94438114D01*
X178422595Y-94427405D01*
X178411886Y-94415589D01*
X178402386Y-94402780D01*
X178394188Y-94389102D01*
X178387370Y-94374686D01*
X178381997Y-94359671D01*
X178378122Y-94344202D01*
X178375782Y-94328428D01*
X178375000Y-94312500D01*
X178375000Y-93987500D01*
X178375782Y-93971572D01*
X178378122Y-93955798D01*
X178381997Y-93940329D01*
X178387370Y-93925314D01*
X178394188Y-93910898D01*
X178402386Y-93897220D01*
X178411886Y-93884411D01*
X178422595Y-93872595D01*
X178434411Y-93861886D01*
X178447220Y-93852386D01*
X178460898Y-93844188D01*
X178475314Y-93837370D01*
X178490329Y-93831997D01*
X178505798Y-93828122D01*
X178521572Y-93825782D01*
X178537500Y-93825000D01*
X179262500Y-93825000D01*
X179278428Y-93825782D01*
X179278428Y-93825782D01*
G37*
D13*
X178900000Y-94150000D03*
D11*
G36*
X181678428Y-93825782D02*
X181694202Y-93828122D01*
X181709671Y-93831997D01*
X181724686Y-93837370D01*
X181739102Y-93844188D01*
X181752780Y-93852386D01*
X181765589Y-93861886D01*
X181777405Y-93872595D01*
X181788114Y-93884411D01*
X181797614Y-93897220D01*
X181805812Y-93910898D01*
X181812630Y-93925314D01*
X181818003Y-93940329D01*
X181821878Y-93955798D01*
X181824218Y-93971572D01*
X181825000Y-93987500D01*
X181825000Y-94312500D01*
X181824218Y-94328428D01*
X181821878Y-94344202D01*
X181818003Y-94359671D01*
X181812630Y-94374686D01*
X181805812Y-94389102D01*
X181797614Y-94402780D01*
X181788114Y-94415589D01*
X181777405Y-94427405D01*
X181765589Y-94438114D01*
X181752780Y-94447614D01*
X181739102Y-94455812D01*
X181724686Y-94462630D01*
X181709671Y-94468003D01*
X181694202Y-94471878D01*
X181678428Y-94474218D01*
X181662500Y-94475000D01*
X180937500Y-94475000D01*
X180921572Y-94474218D01*
X180905798Y-94471878D01*
X180890329Y-94468003D01*
X180875314Y-94462630D01*
X180860898Y-94455812D01*
X180847220Y-94447614D01*
X180834411Y-94438114D01*
X180822595Y-94427405D01*
X180811886Y-94415589D01*
X180802386Y-94402780D01*
X180794188Y-94389102D01*
X180787370Y-94374686D01*
X180781997Y-94359671D01*
X180778122Y-94344202D01*
X180775782Y-94328428D01*
X180775000Y-94312500D01*
X180775000Y-93987500D01*
X180775782Y-93971572D01*
X180778122Y-93955798D01*
X180781997Y-93940329D01*
X180787370Y-93925314D01*
X180794188Y-93910898D01*
X180802386Y-93897220D01*
X180811886Y-93884411D01*
X180822595Y-93872595D01*
X180834411Y-93861886D01*
X180847220Y-93852386D01*
X180860898Y-93844188D01*
X180875314Y-93837370D01*
X180890329Y-93831997D01*
X180905798Y-93828122D01*
X180921572Y-93825782D01*
X180937500Y-93825000D01*
X181662500Y-93825000D01*
X181678428Y-93825782D01*
X181678428Y-93825782D01*
G37*
D13*
X181300000Y-94150000D03*
D11*
G36*
X179278428Y-92875782D02*
X179294202Y-92878122D01*
X179309671Y-92881997D01*
X179324686Y-92887370D01*
X179339102Y-92894188D01*
X179352780Y-92902386D01*
X179365589Y-92911886D01*
X179377405Y-92922595D01*
X179388114Y-92934411D01*
X179397614Y-92947220D01*
X179405812Y-92960898D01*
X179412630Y-92975314D01*
X179418003Y-92990329D01*
X179421878Y-93005798D01*
X179424218Y-93021572D01*
X179425000Y-93037500D01*
X179425000Y-93362500D01*
X179424218Y-93378428D01*
X179421878Y-93394202D01*
X179418003Y-93409671D01*
X179412630Y-93424686D01*
X179405812Y-93439102D01*
X179397614Y-93452780D01*
X179388114Y-93465589D01*
X179377405Y-93477405D01*
X179365589Y-93488114D01*
X179352780Y-93497614D01*
X179339102Y-93505812D01*
X179324686Y-93512630D01*
X179309671Y-93518003D01*
X179294202Y-93521878D01*
X179278428Y-93524218D01*
X179262500Y-93525000D01*
X178537500Y-93525000D01*
X178521572Y-93524218D01*
X178505798Y-93521878D01*
X178490329Y-93518003D01*
X178475314Y-93512630D01*
X178460898Y-93505812D01*
X178447220Y-93497614D01*
X178434411Y-93488114D01*
X178422595Y-93477405D01*
X178411886Y-93465589D01*
X178402386Y-93452780D01*
X178394188Y-93439102D01*
X178387370Y-93424686D01*
X178381997Y-93409671D01*
X178378122Y-93394202D01*
X178375782Y-93378428D01*
X178375000Y-93362500D01*
X178375000Y-93037500D01*
X178375782Y-93021572D01*
X178378122Y-93005798D01*
X178381997Y-92990329D01*
X178387370Y-92975314D01*
X178394188Y-92960898D01*
X178402386Y-92947220D01*
X178411886Y-92934411D01*
X178422595Y-92922595D01*
X178434411Y-92911886D01*
X178447220Y-92902386D01*
X178460898Y-92894188D01*
X178475314Y-92887370D01*
X178490329Y-92881997D01*
X178505798Y-92878122D01*
X178521572Y-92875782D01*
X178537500Y-92875000D01*
X179262500Y-92875000D01*
X179278428Y-92875782D01*
X179278428Y-92875782D01*
G37*
D13*
X178900000Y-93200000D03*
D11*
G36*
X181678428Y-92875782D02*
X181694202Y-92878122D01*
X181709671Y-92881997D01*
X181724686Y-92887370D01*
X181739102Y-92894188D01*
X181752780Y-92902386D01*
X181765589Y-92911886D01*
X181777405Y-92922595D01*
X181788114Y-92934411D01*
X181797614Y-92947220D01*
X181805812Y-92960898D01*
X181812630Y-92975314D01*
X181818003Y-92990329D01*
X181821878Y-93005798D01*
X181824218Y-93021572D01*
X181825000Y-93037500D01*
X181825000Y-93362500D01*
X181824218Y-93378428D01*
X181821878Y-93394202D01*
X181818003Y-93409671D01*
X181812630Y-93424686D01*
X181805812Y-93439102D01*
X181797614Y-93452780D01*
X181788114Y-93465589D01*
X181777405Y-93477405D01*
X181765589Y-93488114D01*
X181752780Y-93497614D01*
X181739102Y-93505812D01*
X181724686Y-93512630D01*
X181709671Y-93518003D01*
X181694202Y-93521878D01*
X181678428Y-93524218D01*
X181662500Y-93525000D01*
X180937500Y-93525000D01*
X180921572Y-93524218D01*
X180905798Y-93521878D01*
X180890329Y-93518003D01*
X180875314Y-93512630D01*
X180860898Y-93505812D01*
X180847220Y-93497614D01*
X180834411Y-93488114D01*
X180822595Y-93477405D01*
X180811886Y-93465589D01*
X180802386Y-93452780D01*
X180794188Y-93439102D01*
X180787370Y-93424686D01*
X180781997Y-93409671D01*
X180778122Y-93394202D01*
X180775782Y-93378428D01*
X180775000Y-93362500D01*
X180775000Y-93037500D01*
X180775782Y-93021572D01*
X180778122Y-93005798D01*
X180781997Y-92990329D01*
X180787370Y-92975314D01*
X180794188Y-92960898D01*
X180802386Y-92947220D01*
X180811886Y-92934411D01*
X180822595Y-92922595D01*
X180834411Y-92911886D01*
X180847220Y-92902386D01*
X180860898Y-92894188D01*
X180875314Y-92887370D01*
X180890329Y-92881997D01*
X180905798Y-92878122D01*
X180921572Y-92875782D01*
X180937500Y-92875000D01*
X181662500Y-92875000D01*
X181678428Y-92875782D01*
X181678428Y-92875782D01*
G37*
D13*
X181300000Y-93200000D03*
D11*
G36*
X179278428Y-91925782D02*
X179294202Y-91928122D01*
X179309671Y-91931997D01*
X179324686Y-91937370D01*
X179339102Y-91944188D01*
X179352780Y-91952386D01*
X179365589Y-91961886D01*
X179377405Y-91972595D01*
X179388114Y-91984411D01*
X179397614Y-91997220D01*
X179405812Y-92010898D01*
X179412630Y-92025314D01*
X179418003Y-92040329D01*
X179421878Y-92055798D01*
X179424218Y-92071572D01*
X179425000Y-92087500D01*
X179425000Y-92412500D01*
X179424218Y-92428428D01*
X179421878Y-92444202D01*
X179418003Y-92459671D01*
X179412630Y-92474686D01*
X179405812Y-92489102D01*
X179397614Y-92502780D01*
X179388114Y-92515589D01*
X179377405Y-92527405D01*
X179365589Y-92538114D01*
X179352780Y-92547614D01*
X179339102Y-92555812D01*
X179324686Y-92562630D01*
X179309671Y-92568003D01*
X179294202Y-92571878D01*
X179278428Y-92574218D01*
X179262500Y-92575000D01*
X178537500Y-92575000D01*
X178521572Y-92574218D01*
X178505798Y-92571878D01*
X178490329Y-92568003D01*
X178475314Y-92562630D01*
X178460898Y-92555812D01*
X178447220Y-92547614D01*
X178434411Y-92538114D01*
X178422595Y-92527405D01*
X178411886Y-92515589D01*
X178402386Y-92502780D01*
X178394188Y-92489102D01*
X178387370Y-92474686D01*
X178381997Y-92459671D01*
X178378122Y-92444202D01*
X178375782Y-92428428D01*
X178375000Y-92412500D01*
X178375000Y-92087500D01*
X178375782Y-92071572D01*
X178378122Y-92055798D01*
X178381997Y-92040329D01*
X178387370Y-92025314D01*
X178394188Y-92010898D01*
X178402386Y-91997220D01*
X178411886Y-91984411D01*
X178422595Y-91972595D01*
X178434411Y-91961886D01*
X178447220Y-91952386D01*
X178460898Y-91944188D01*
X178475314Y-91937370D01*
X178490329Y-91931997D01*
X178505798Y-91928122D01*
X178521572Y-91925782D01*
X178537500Y-91925000D01*
X179262500Y-91925000D01*
X179278428Y-91925782D01*
X179278428Y-91925782D01*
G37*
D13*
X178900000Y-92250000D03*
D11*
G36*
X181678428Y-91925782D02*
X181694202Y-91928122D01*
X181709671Y-91931997D01*
X181724686Y-91937370D01*
X181739102Y-91944188D01*
X181752780Y-91952386D01*
X181765589Y-91961886D01*
X181777405Y-91972595D01*
X181788114Y-91984411D01*
X181797614Y-91997220D01*
X181805812Y-92010898D01*
X181812630Y-92025314D01*
X181818003Y-92040329D01*
X181821878Y-92055798D01*
X181824218Y-92071572D01*
X181825000Y-92087500D01*
X181825000Y-92412500D01*
X181824218Y-92428428D01*
X181821878Y-92444202D01*
X181818003Y-92459671D01*
X181812630Y-92474686D01*
X181805812Y-92489102D01*
X181797614Y-92502780D01*
X181788114Y-92515589D01*
X181777405Y-92527405D01*
X181765589Y-92538114D01*
X181752780Y-92547614D01*
X181739102Y-92555812D01*
X181724686Y-92562630D01*
X181709671Y-92568003D01*
X181694202Y-92571878D01*
X181678428Y-92574218D01*
X181662500Y-92575000D01*
X180937500Y-92575000D01*
X180921572Y-92574218D01*
X180905798Y-92571878D01*
X180890329Y-92568003D01*
X180875314Y-92562630D01*
X180860898Y-92555812D01*
X180847220Y-92547614D01*
X180834411Y-92538114D01*
X180822595Y-92527405D01*
X180811886Y-92515589D01*
X180802386Y-92502780D01*
X180794188Y-92489102D01*
X180787370Y-92474686D01*
X180781997Y-92459671D01*
X180778122Y-92444202D01*
X180775782Y-92428428D01*
X180775000Y-92412500D01*
X180775000Y-92087500D01*
X180775782Y-92071572D01*
X180778122Y-92055798D01*
X180781997Y-92040329D01*
X180787370Y-92025314D01*
X180794188Y-92010898D01*
X180802386Y-91997220D01*
X180811886Y-91984411D01*
X180822595Y-91972595D01*
X180834411Y-91961886D01*
X180847220Y-91952386D01*
X180860898Y-91944188D01*
X180875314Y-91937370D01*
X180890329Y-91931997D01*
X180905798Y-91928122D01*
X180921572Y-91925782D01*
X180937500Y-91925000D01*
X181662500Y-91925000D01*
X181678428Y-91925782D01*
X181678428Y-91925782D01*
G37*
D13*
X181300000Y-92250000D03*
G04 #@! TD*
D11*
G04 #@! TO.C,U8*
G36*
X164728428Y-107375782D02*
X164744202Y-107378122D01*
X164759671Y-107381997D01*
X164774686Y-107387370D01*
X164789102Y-107394188D01*
X164802780Y-107402386D01*
X164815589Y-107411886D01*
X164827405Y-107422595D01*
X164838114Y-107434411D01*
X164847614Y-107447220D01*
X164855812Y-107460898D01*
X164862630Y-107475314D01*
X164868003Y-107490329D01*
X164871878Y-107505798D01*
X164874218Y-107521572D01*
X164875000Y-107537500D01*
X164875000Y-108262500D01*
X164874218Y-108278428D01*
X164871878Y-108294202D01*
X164868003Y-108309671D01*
X164862630Y-108324686D01*
X164855812Y-108339102D01*
X164847614Y-108352780D01*
X164838114Y-108365589D01*
X164827405Y-108377405D01*
X164815589Y-108388114D01*
X164802780Y-108397614D01*
X164789102Y-108405812D01*
X164774686Y-108412630D01*
X164759671Y-108418003D01*
X164744202Y-108421878D01*
X164728428Y-108424218D01*
X164712500Y-108425000D01*
X164387500Y-108425000D01*
X164371572Y-108424218D01*
X164355798Y-108421878D01*
X164340329Y-108418003D01*
X164325314Y-108412630D01*
X164310898Y-108405812D01*
X164297220Y-108397614D01*
X164284411Y-108388114D01*
X164272595Y-108377405D01*
X164261886Y-108365589D01*
X164252386Y-108352780D01*
X164244188Y-108339102D01*
X164237370Y-108324686D01*
X164231997Y-108309671D01*
X164228122Y-108294202D01*
X164225782Y-108278428D01*
X164225000Y-108262500D01*
X164225000Y-107537500D01*
X164225782Y-107521572D01*
X164228122Y-107505798D01*
X164231997Y-107490329D01*
X164237370Y-107475314D01*
X164244188Y-107460898D01*
X164252386Y-107447220D01*
X164261886Y-107434411D01*
X164272595Y-107422595D01*
X164284411Y-107411886D01*
X164297220Y-107402386D01*
X164310898Y-107394188D01*
X164325314Y-107387370D01*
X164340329Y-107381997D01*
X164355798Y-107378122D01*
X164371572Y-107375782D01*
X164387500Y-107375000D01*
X164712500Y-107375000D01*
X164728428Y-107375782D01*
X164728428Y-107375782D01*
G37*
D13*
X164550000Y-107900000D03*
D11*
G36*
X164728428Y-104975782D02*
X164744202Y-104978122D01*
X164759671Y-104981997D01*
X164774686Y-104987370D01*
X164789102Y-104994188D01*
X164802780Y-105002386D01*
X164815589Y-105011886D01*
X164827405Y-105022595D01*
X164838114Y-105034411D01*
X164847614Y-105047220D01*
X164855812Y-105060898D01*
X164862630Y-105075314D01*
X164868003Y-105090329D01*
X164871878Y-105105798D01*
X164874218Y-105121572D01*
X164875000Y-105137500D01*
X164875000Y-105862500D01*
X164874218Y-105878428D01*
X164871878Y-105894202D01*
X164868003Y-105909671D01*
X164862630Y-105924686D01*
X164855812Y-105939102D01*
X164847614Y-105952780D01*
X164838114Y-105965589D01*
X164827405Y-105977405D01*
X164815589Y-105988114D01*
X164802780Y-105997614D01*
X164789102Y-106005812D01*
X164774686Y-106012630D01*
X164759671Y-106018003D01*
X164744202Y-106021878D01*
X164728428Y-106024218D01*
X164712500Y-106025000D01*
X164387500Y-106025000D01*
X164371572Y-106024218D01*
X164355798Y-106021878D01*
X164340329Y-106018003D01*
X164325314Y-106012630D01*
X164310898Y-106005812D01*
X164297220Y-105997614D01*
X164284411Y-105988114D01*
X164272595Y-105977405D01*
X164261886Y-105965589D01*
X164252386Y-105952780D01*
X164244188Y-105939102D01*
X164237370Y-105924686D01*
X164231997Y-105909671D01*
X164228122Y-105894202D01*
X164225782Y-105878428D01*
X164225000Y-105862500D01*
X164225000Y-105137500D01*
X164225782Y-105121572D01*
X164228122Y-105105798D01*
X164231997Y-105090329D01*
X164237370Y-105075314D01*
X164244188Y-105060898D01*
X164252386Y-105047220D01*
X164261886Y-105034411D01*
X164272595Y-105022595D01*
X164284411Y-105011886D01*
X164297220Y-105002386D01*
X164310898Y-104994188D01*
X164325314Y-104987370D01*
X164340329Y-104981997D01*
X164355798Y-104978122D01*
X164371572Y-104975782D01*
X164387500Y-104975000D01*
X164712500Y-104975000D01*
X164728428Y-104975782D01*
X164728428Y-104975782D01*
G37*
D13*
X164550000Y-105500000D03*
D11*
G36*
X163778428Y-107375782D02*
X163794202Y-107378122D01*
X163809671Y-107381997D01*
X163824686Y-107387370D01*
X163839102Y-107394188D01*
X163852780Y-107402386D01*
X163865589Y-107411886D01*
X163877405Y-107422595D01*
X163888114Y-107434411D01*
X163897614Y-107447220D01*
X163905812Y-107460898D01*
X163912630Y-107475314D01*
X163918003Y-107490329D01*
X163921878Y-107505798D01*
X163924218Y-107521572D01*
X163925000Y-107537500D01*
X163925000Y-108262500D01*
X163924218Y-108278428D01*
X163921878Y-108294202D01*
X163918003Y-108309671D01*
X163912630Y-108324686D01*
X163905812Y-108339102D01*
X163897614Y-108352780D01*
X163888114Y-108365589D01*
X163877405Y-108377405D01*
X163865589Y-108388114D01*
X163852780Y-108397614D01*
X163839102Y-108405812D01*
X163824686Y-108412630D01*
X163809671Y-108418003D01*
X163794202Y-108421878D01*
X163778428Y-108424218D01*
X163762500Y-108425000D01*
X163437500Y-108425000D01*
X163421572Y-108424218D01*
X163405798Y-108421878D01*
X163390329Y-108418003D01*
X163375314Y-108412630D01*
X163360898Y-108405812D01*
X163347220Y-108397614D01*
X163334411Y-108388114D01*
X163322595Y-108377405D01*
X163311886Y-108365589D01*
X163302386Y-108352780D01*
X163294188Y-108339102D01*
X163287370Y-108324686D01*
X163281997Y-108309671D01*
X163278122Y-108294202D01*
X163275782Y-108278428D01*
X163275000Y-108262500D01*
X163275000Y-107537500D01*
X163275782Y-107521572D01*
X163278122Y-107505798D01*
X163281997Y-107490329D01*
X163287370Y-107475314D01*
X163294188Y-107460898D01*
X163302386Y-107447220D01*
X163311886Y-107434411D01*
X163322595Y-107422595D01*
X163334411Y-107411886D01*
X163347220Y-107402386D01*
X163360898Y-107394188D01*
X163375314Y-107387370D01*
X163390329Y-107381997D01*
X163405798Y-107378122D01*
X163421572Y-107375782D01*
X163437500Y-107375000D01*
X163762500Y-107375000D01*
X163778428Y-107375782D01*
X163778428Y-107375782D01*
G37*
D13*
X163600000Y-107900000D03*
D11*
G36*
X163778428Y-104975782D02*
X163794202Y-104978122D01*
X163809671Y-104981997D01*
X163824686Y-104987370D01*
X163839102Y-104994188D01*
X163852780Y-105002386D01*
X163865589Y-105011886D01*
X163877405Y-105022595D01*
X163888114Y-105034411D01*
X163897614Y-105047220D01*
X163905812Y-105060898D01*
X163912630Y-105075314D01*
X163918003Y-105090329D01*
X163921878Y-105105798D01*
X163924218Y-105121572D01*
X163925000Y-105137500D01*
X163925000Y-105862500D01*
X163924218Y-105878428D01*
X163921878Y-105894202D01*
X163918003Y-105909671D01*
X163912630Y-105924686D01*
X163905812Y-105939102D01*
X163897614Y-105952780D01*
X163888114Y-105965589D01*
X163877405Y-105977405D01*
X163865589Y-105988114D01*
X163852780Y-105997614D01*
X163839102Y-106005812D01*
X163824686Y-106012630D01*
X163809671Y-106018003D01*
X163794202Y-106021878D01*
X163778428Y-106024218D01*
X163762500Y-106025000D01*
X163437500Y-106025000D01*
X163421572Y-106024218D01*
X163405798Y-106021878D01*
X163390329Y-106018003D01*
X163375314Y-106012630D01*
X163360898Y-106005812D01*
X163347220Y-105997614D01*
X163334411Y-105988114D01*
X163322595Y-105977405D01*
X163311886Y-105965589D01*
X163302386Y-105952780D01*
X163294188Y-105939102D01*
X163287370Y-105924686D01*
X163281997Y-105909671D01*
X163278122Y-105894202D01*
X163275782Y-105878428D01*
X163275000Y-105862500D01*
X163275000Y-105137500D01*
X163275782Y-105121572D01*
X163278122Y-105105798D01*
X163281997Y-105090329D01*
X163287370Y-105075314D01*
X163294188Y-105060898D01*
X163302386Y-105047220D01*
X163311886Y-105034411D01*
X163322595Y-105022595D01*
X163334411Y-105011886D01*
X163347220Y-105002386D01*
X163360898Y-104994188D01*
X163375314Y-104987370D01*
X163390329Y-104981997D01*
X163405798Y-104978122D01*
X163421572Y-104975782D01*
X163437500Y-104975000D01*
X163762500Y-104975000D01*
X163778428Y-104975782D01*
X163778428Y-104975782D01*
G37*
D13*
X163600000Y-105500000D03*
D11*
G36*
X162828428Y-107375782D02*
X162844202Y-107378122D01*
X162859671Y-107381997D01*
X162874686Y-107387370D01*
X162889102Y-107394188D01*
X162902780Y-107402386D01*
X162915589Y-107411886D01*
X162927405Y-107422595D01*
X162938114Y-107434411D01*
X162947614Y-107447220D01*
X162955812Y-107460898D01*
X162962630Y-107475314D01*
X162968003Y-107490329D01*
X162971878Y-107505798D01*
X162974218Y-107521572D01*
X162975000Y-107537500D01*
X162975000Y-108262500D01*
X162974218Y-108278428D01*
X162971878Y-108294202D01*
X162968003Y-108309671D01*
X162962630Y-108324686D01*
X162955812Y-108339102D01*
X162947614Y-108352780D01*
X162938114Y-108365589D01*
X162927405Y-108377405D01*
X162915589Y-108388114D01*
X162902780Y-108397614D01*
X162889102Y-108405812D01*
X162874686Y-108412630D01*
X162859671Y-108418003D01*
X162844202Y-108421878D01*
X162828428Y-108424218D01*
X162812500Y-108425000D01*
X162487500Y-108425000D01*
X162471572Y-108424218D01*
X162455798Y-108421878D01*
X162440329Y-108418003D01*
X162425314Y-108412630D01*
X162410898Y-108405812D01*
X162397220Y-108397614D01*
X162384411Y-108388114D01*
X162372595Y-108377405D01*
X162361886Y-108365589D01*
X162352386Y-108352780D01*
X162344188Y-108339102D01*
X162337370Y-108324686D01*
X162331997Y-108309671D01*
X162328122Y-108294202D01*
X162325782Y-108278428D01*
X162325000Y-108262500D01*
X162325000Y-107537500D01*
X162325782Y-107521572D01*
X162328122Y-107505798D01*
X162331997Y-107490329D01*
X162337370Y-107475314D01*
X162344188Y-107460898D01*
X162352386Y-107447220D01*
X162361886Y-107434411D01*
X162372595Y-107422595D01*
X162384411Y-107411886D01*
X162397220Y-107402386D01*
X162410898Y-107394188D01*
X162425314Y-107387370D01*
X162440329Y-107381997D01*
X162455798Y-107378122D01*
X162471572Y-107375782D01*
X162487500Y-107375000D01*
X162812500Y-107375000D01*
X162828428Y-107375782D01*
X162828428Y-107375782D01*
G37*
D13*
X162650000Y-107900000D03*
D11*
G36*
X162828428Y-104975782D02*
X162844202Y-104978122D01*
X162859671Y-104981997D01*
X162874686Y-104987370D01*
X162889102Y-104994188D01*
X162902780Y-105002386D01*
X162915589Y-105011886D01*
X162927405Y-105022595D01*
X162938114Y-105034411D01*
X162947614Y-105047220D01*
X162955812Y-105060898D01*
X162962630Y-105075314D01*
X162968003Y-105090329D01*
X162971878Y-105105798D01*
X162974218Y-105121572D01*
X162975000Y-105137500D01*
X162975000Y-105862500D01*
X162974218Y-105878428D01*
X162971878Y-105894202D01*
X162968003Y-105909671D01*
X162962630Y-105924686D01*
X162955812Y-105939102D01*
X162947614Y-105952780D01*
X162938114Y-105965589D01*
X162927405Y-105977405D01*
X162915589Y-105988114D01*
X162902780Y-105997614D01*
X162889102Y-106005812D01*
X162874686Y-106012630D01*
X162859671Y-106018003D01*
X162844202Y-106021878D01*
X162828428Y-106024218D01*
X162812500Y-106025000D01*
X162487500Y-106025000D01*
X162471572Y-106024218D01*
X162455798Y-106021878D01*
X162440329Y-106018003D01*
X162425314Y-106012630D01*
X162410898Y-106005812D01*
X162397220Y-105997614D01*
X162384411Y-105988114D01*
X162372595Y-105977405D01*
X162361886Y-105965589D01*
X162352386Y-105952780D01*
X162344188Y-105939102D01*
X162337370Y-105924686D01*
X162331997Y-105909671D01*
X162328122Y-105894202D01*
X162325782Y-105878428D01*
X162325000Y-105862500D01*
X162325000Y-105137500D01*
X162325782Y-105121572D01*
X162328122Y-105105798D01*
X162331997Y-105090329D01*
X162337370Y-105075314D01*
X162344188Y-105060898D01*
X162352386Y-105047220D01*
X162361886Y-105034411D01*
X162372595Y-105022595D01*
X162384411Y-105011886D01*
X162397220Y-105002386D01*
X162410898Y-104994188D01*
X162425314Y-104987370D01*
X162440329Y-104981997D01*
X162455798Y-104978122D01*
X162471572Y-104975782D01*
X162487500Y-104975000D01*
X162812500Y-104975000D01*
X162828428Y-104975782D01*
X162828428Y-104975782D01*
G37*
D13*
X162650000Y-105500000D03*
G04 #@! TD*
D11*
G04 #@! TO.C,U5*
G36*
X166214703Y-79875722D02*
X166229264Y-79877882D01*
X166243543Y-79881459D01*
X166257403Y-79886418D01*
X166270710Y-79892712D01*
X166283336Y-79900280D01*
X166295159Y-79909048D01*
X166306066Y-79918934D01*
X166315952Y-79929841D01*
X166324720Y-79941664D01*
X166332288Y-79954290D01*
X166338582Y-79967597D01*
X166343541Y-79981457D01*
X166347118Y-79995736D01*
X166349278Y-80010297D01*
X166350000Y-80025000D01*
X166350000Y-80775000D01*
X166349278Y-80789703D01*
X166347118Y-80804264D01*
X166343541Y-80818543D01*
X166338582Y-80832403D01*
X166332288Y-80845710D01*
X166324720Y-80858336D01*
X166315952Y-80870159D01*
X166306066Y-80881066D01*
X166295159Y-80890952D01*
X166283336Y-80899720D01*
X166270710Y-80907288D01*
X166257403Y-80913582D01*
X166243543Y-80918541D01*
X166229264Y-80922118D01*
X166214703Y-80924278D01*
X166200000Y-80925000D01*
X165900000Y-80925000D01*
X165885297Y-80924278D01*
X165870736Y-80922118D01*
X165856457Y-80918541D01*
X165842597Y-80913582D01*
X165829290Y-80907288D01*
X165816664Y-80899720D01*
X165804841Y-80890952D01*
X165793934Y-80881066D01*
X165784048Y-80870159D01*
X165775280Y-80858336D01*
X165767712Y-80845710D01*
X165761418Y-80832403D01*
X165756459Y-80818543D01*
X165752882Y-80804264D01*
X165750722Y-80789703D01*
X165750000Y-80775000D01*
X165750000Y-80025000D01*
X165750722Y-80010297D01*
X165752882Y-79995736D01*
X165756459Y-79981457D01*
X165761418Y-79967597D01*
X165767712Y-79954290D01*
X165775280Y-79941664D01*
X165784048Y-79929841D01*
X165793934Y-79918934D01*
X165804841Y-79909048D01*
X165816664Y-79900280D01*
X165829290Y-79892712D01*
X165842597Y-79886418D01*
X165856457Y-79881459D01*
X165870736Y-79877882D01*
X165885297Y-79875722D01*
X165900000Y-79875000D01*
X166200000Y-79875000D01*
X166214703Y-79875722D01*
X166214703Y-79875722D01*
G37*
D14*
X166050000Y-80400000D03*
D11*
G36*
X164314703Y-79875722D02*
X164329264Y-79877882D01*
X164343543Y-79881459D01*
X164357403Y-79886418D01*
X164370710Y-79892712D01*
X164383336Y-79900280D01*
X164395159Y-79909048D01*
X164406066Y-79918934D01*
X164415952Y-79929841D01*
X164424720Y-79941664D01*
X164432288Y-79954290D01*
X164438582Y-79967597D01*
X164443541Y-79981457D01*
X164447118Y-79995736D01*
X164449278Y-80010297D01*
X164450000Y-80025000D01*
X164450000Y-80775000D01*
X164449278Y-80789703D01*
X164447118Y-80804264D01*
X164443541Y-80818543D01*
X164438582Y-80832403D01*
X164432288Y-80845710D01*
X164424720Y-80858336D01*
X164415952Y-80870159D01*
X164406066Y-80881066D01*
X164395159Y-80890952D01*
X164383336Y-80899720D01*
X164370710Y-80907288D01*
X164357403Y-80913582D01*
X164343543Y-80918541D01*
X164329264Y-80922118D01*
X164314703Y-80924278D01*
X164300000Y-80925000D01*
X164000000Y-80925000D01*
X163985297Y-80924278D01*
X163970736Y-80922118D01*
X163956457Y-80918541D01*
X163942597Y-80913582D01*
X163929290Y-80907288D01*
X163916664Y-80899720D01*
X163904841Y-80890952D01*
X163893934Y-80881066D01*
X163884048Y-80870159D01*
X163875280Y-80858336D01*
X163867712Y-80845710D01*
X163861418Y-80832403D01*
X163856459Y-80818543D01*
X163852882Y-80804264D01*
X163850722Y-80789703D01*
X163850000Y-80775000D01*
X163850000Y-80025000D01*
X163850722Y-80010297D01*
X163852882Y-79995736D01*
X163856459Y-79981457D01*
X163861418Y-79967597D01*
X163867712Y-79954290D01*
X163875280Y-79941664D01*
X163884048Y-79929841D01*
X163893934Y-79918934D01*
X163904841Y-79909048D01*
X163916664Y-79900280D01*
X163929290Y-79892712D01*
X163942597Y-79886418D01*
X163956457Y-79881459D01*
X163970736Y-79877882D01*
X163985297Y-79875722D01*
X164000000Y-79875000D01*
X164300000Y-79875000D01*
X164314703Y-79875722D01*
X164314703Y-79875722D01*
G37*
D14*
X164150000Y-80400000D03*
D11*
G36*
X164314703Y-77475722D02*
X164329264Y-77477882D01*
X164343543Y-77481459D01*
X164357403Y-77486418D01*
X164370710Y-77492712D01*
X164383336Y-77500280D01*
X164395159Y-77509048D01*
X164406066Y-77518934D01*
X164415952Y-77529841D01*
X164424720Y-77541664D01*
X164432288Y-77554290D01*
X164438582Y-77567597D01*
X164443541Y-77581457D01*
X164447118Y-77595736D01*
X164449278Y-77610297D01*
X164450000Y-77625000D01*
X164450000Y-78375000D01*
X164449278Y-78389703D01*
X164447118Y-78404264D01*
X164443541Y-78418543D01*
X164438582Y-78432403D01*
X164432288Y-78445710D01*
X164424720Y-78458336D01*
X164415952Y-78470159D01*
X164406066Y-78481066D01*
X164395159Y-78490952D01*
X164383336Y-78499720D01*
X164370710Y-78507288D01*
X164357403Y-78513582D01*
X164343543Y-78518541D01*
X164329264Y-78522118D01*
X164314703Y-78524278D01*
X164300000Y-78525000D01*
X164000000Y-78525000D01*
X163985297Y-78524278D01*
X163970736Y-78522118D01*
X163956457Y-78518541D01*
X163942597Y-78513582D01*
X163929290Y-78507288D01*
X163916664Y-78499720D01*
X163904841Y-78490952D01*
X163893934Y-78481066D01*
X163884048Y-78470159D01*
X163875280Y-78458336D01*
X163867712Y-78445710D01*
X163861418Y-78432403D01*
X163856459Y-78418543D01*
X163852882Y-78404264D01*
X163850722Y-78389703D01*
X163850000Y-78375000D01*
X163850000Y-77625000D01*
X163850722Y-77610297D01*
X163852882Y-77595736D01*
X163856459Y-77581457D01*
X163861418Y-77567597D01*
X163867712Y-77554290D01*
X163875280Y-77541664D01*
X163884048Y-77529841D01*
X163893934Y-77518934D01*
X163904841Y-77509048D01*
X163916664Y-77500280D01*
X163929290Y-77492712D01*
X163942597Y-77486418D01*
X163956457Y-77481459D01*
X163970736Y-77477882D01*
X163985297Y-77475722D01*
X164000000Y-77475000D01*
X164300000Y-77475000D01*
X164314703Y-77475722D01*
X164314703Y-77475722D01*
G37*
D14*
X164150000Y-78000000D03*
D11*
G36*
X165264703Y-77475722D02*
X165279264Y-77477882D01*
X165293543Y-77481459D01*
X165307403Y-77486418D01*
X165320710Y-77492712D01*
X165333336Y-77500280D01*
X165345159Y-77509048D01*
X165356066Y-77518934D01*
X165365952Y-77529841D01*
X165374720Y-77541664D01*
X165382288Y-77554290D01*
X165388582Y-77567597D01*
X165393541Y-77581457D01*
X165397118Y-77595736D01*
X165399278Y-77610297D01*
X165400000Y-77625000D01*
X165400000Y-78375000D01*
X165399278Y-78389703D01*
X165397118Y-78404264D01*
X165393541Y-78418543D01*
X165388582Y-78432403D01*
X165382288Y-78445710D01*
X165374720Y-78458336D01*
X165365952Y-78470159D01*
X165356066Y-78481066D01*
X165345159Y-78490952D01*
X165333336Y-78499720D01*
X165320710Y-78507288D01*
X165307403Y-78513582D01*
X165293543Y-78518541D01*
X165279264Y-78522118D01*
X165264703Y-78524278D01*
X165250000Y-78525000D01*
X164950000Y-78525000D01*
X164935297Y-78524278D01*
X164920736Y-78522118D01*
X164906457Y-78518541D01*
X164892597Y-78513582D01*
X164879290Y-78507288D01*
X164866664Y-78499720D01*
X164854841Y-78490952D01*
X164843934Y-78481066D01*
X164834048Y-78470159D01*
X164825280Y-78458336D01*
X164817712Y-78445710D01*
X164811418Y-78432403D01*
X164806459Y-78418543D01*
X164802882Y-78404264D01*
X164800722Y-78389703D01*
X164800000Y-78375000D01*
X164800000Y-77625000D01*
X164800722Y-77610297D01*
X164802882Y-77595736D01*
X164806459Y-77581457D01*
X164811418Y-77567597D01*
X164817712Y-77554290D01*
X164825280Y-77541664D01*
X164834048Y-77529841D01*
X164843934Y-77518934D01*
X164854841Y-77509048D01*
X164866664Y-77500280D01*
X164879290Y-77492712D01*
X164892597Y-77486418D01*
X164906457Y-77481459D01*
X164920736Y-77477882D01*
X164935297Y-77475722D01*
X164950000Y-77475000D01*
X165250000Y-77475000D01*
X165264703Y-77475722D01*
X165264703Y-77475722D01*
G37*
D14*
X165100000Y-78000000D03*
D11*
G36*
X166214703Y-77475722D02*
X166229264Y-77477882D01*
X166243543Y-77481459D01*
X166257403Y-77486418D01*
X166270710Y-77492712D01*
X166283336Y-77500280D01*
X166295159Y-77509048D01*
X166306066Y-77518934D01*
X166315952Y-77529841D01*
X166324720Y-77541664D01*
X166332288Y-77554290D01*
X166338582Y-77567597D01*
X166343541Y-77581457D01*
X166347118Y-77595736D01*
X166349278Y-77610297D01*
X166350000Y-77625000D01*
X166350000Y-78375000D01*
X166349278Y-78389703D01*
X166347118Y-78404264D01*
X166343541Y-78418543D01*
X166338582Y-78432403D01*
X166332288Y-78445710D01*
X166324720Y-78458336D01*
X166315952Y-78470159D01*
X166306066Y-78481066D01*
X166295159Y-78490952D01*
X166283336Y-78499720D01*
X166270710Y-78507288D01*
X166257403Y-78513582D01*
X166243543Y-78518541D01*
X166229264Y-78522118D01*
X166214703Y-78524278D01*
X166200000Y-78525000D01*
X165900000Y-78525000D01*
X165885297Y-78524278D01*
X165870736Y-78522118D01*
X165856457Y-78518541D01*
X165842597Y-78513582D01*
X165829290Y-78507288D01*
X165816664Y-78499720D01*
X165804841Y-78490952D01*
X165793934Y-78481066D01*
X165784048Y-78470159D01*
X165775280Y-78458336D01*
X165767712Y-78445710D01*
X165761418Y-78432403D01*
X165756459Y-78418543D01*
X165752882Y-78404264D01*
X165750722Y-78389703D01*
X165750000Y-78375000D01*
X165750000Y-77625000D01*
X165750722Y-77610297D01*
X165752882Y-77595736D01*
X165756459Y-77581457D01*
X165761418Y-77567597D01*
X165767712Y-77554290D01*
X165775280Y-77541664D01*
X165784048Y-77529841D01*
X165793934Y-77518934D01*
X165804841Y-77509048D01*
X165816664Y-77500280D01*
X165829290Y-77492712D01*
X165842597Y-77486418D01*
X165856457Y-77481459D01*
X165870736Y-77477882D01*
X165885297Y-77475722D01*
X165900000Y-77475000D01*
X166200000Y-77475000D01*
X166214703Y-77475722D01*
X166214703Y-77475722D01*
G37*
D14*
X166050000Y-78000000D03*
G04 #@! TD*
D11*
G04 #@! TO.C,U4*
G36*
X149689703Y-85950722D02*
X149704264Y-85952882D01*
X149718543Y-85956459D01*
X149732403Y-85961418D01*
X149745710Y-85967712D01*
X149758336Y-85975280D01*
X149770159Y-85984048D01*
X149781066Y-85993934D01*
X149790952Y-86004841D01*
X149799720Y-86016664D01*
X149807288Y-86029290D01*
X149813582Y-86042597D01*
X149818541Y-86056457D01*
X149822118Y-86070736D01*
X149824278Y-86085297D01*
X149825000Y-86100000D01*
X149825000Y-86400000D01*
X149824278Y-86414703D01*
X149822118Y-86429264D01*
X149818541Y-86443543D01*
X149813582Y-86457403D01*
X149807288Y-86470710D01*
X149799720Y-86483336D01*
X149790952Y-86495159D01*
X149781066Y-86506066D01*
X149770159Y-86515952D01*
X149758336Y-86524720D01*
X149745710Y-86532288D01*
X149732403Y-86538582D01*
X149718543Y-86543541D01*
X149704264Y-86547118D01*
X149689703Y-86549278D01*
X149675000Y-86550000D01*
X148925000Y-86550000D01*
X148910297Y-86549278D01*
X148895736Y-86547118D01*
X148881457Y-86543541D01*
X148867597Y-86538582D01*
X148854290Y-86532288D01*
X148841664Y-86524720D01*
X148829841Y-86515952D01*
X148818934Y-86506066D01*
X148809048Y-86495159D01*
X148800280Y-86483336D01*
X148792712Y-86470710D01*
X148786418Y-86457403D01*
X148781459Y-86443543D01*
X148777882Y-86429264D01*
X148775722Y-86414703D01*
X148775000Y-86400000D01*
X148775000Y-86100000D01*
X148775722Y-86085297D01*
X148777882Y-86070736D01*
X148781459Y-86056457D01*
X148786418Y-86042597D01*
X148792712Y-86029290D01*
X148800280Y-86016664D01*
X148809048Y-86004841D01*
X148818934Y-85993934D01*
X148829841Y-85984048D01*
X148841664Y-85975280D01*
X148854290Y-85967712D01*
X148867597Y-85961418D01*
X148881457Y-85956459D01*
X148895736Y-85952882D01*
X148910297Y-85950722D01*
X148925000Y-85950000D01*
X149675000Y-85950000D01*
X149689703Y-85950722D01*
X149689703Y-85950722D01*
G37*
D14*
X149300000Y-86250000D03*
D11*
G36*
X149689703Y-87850722D02*
X149704264Y-87852882D01*
X149718543Y-87856459D01*
X149732403Y-87861418D01*
X149745710Y-87867712D01*
X149758336Y-87875280D01*
X149770159Y-87884048D01*
X149781066Y-87893934D01*
X149790952Y-87904841D01*
X149799720Y-87916664D01*
X149807288Y-87929290D01*
X149813582Y-87942597D01*
X149818541Y-87956457D01*
X149822118Y-87970736D01*
X149824278Y-87985297D01*
X149825000Y-88000000D01*
X149825000Y-88300000D01*
X149824278Y-88314703D01*
X149822118Y-88329264D01*
X149818541Y-88343543D01*
X149813582Y-88357403D01*
X149807288Y-88370710D01*
X149799720Y-88383336D01*
X149790952Y-88395159D01*
X149781066Y-88406066D01*
X149770159Y-88415952D01*
X149758336Y-88424720D01*
X149745710Y-88432288D01*
X149732403Y-88438582D01*
X149718543Y-88443541D01*
X149704264Y-88447118D01*
X149689703Y-88449278D01*
X149675000Y-88450000D01*
X148925000Y-88450000D01*
X148910297Y-88449278D01*
X148895736Y-88447118D01*
X148881457Y-88443541D01*
X148867597Y-88438582D01*
X148854290Y-88432288D01*
X148841664Y-88424720D01*
X148829841Y-88415952D01*
X148818934Y-88406066D01*
X148809048Y-88395159D01*
X148800280Y-88383336D01*
X148792712Y-88370710D01*
X148786418Y-88357403D01*
X148781459Y-88343543D01*
X148777882Y-88329264D01*
X148775722Y-88314703D01*
X148775000Y-88300000D01*
X148775000Y-88000000D01*
X148775722Y-87985297D01*
X148777882Y-87970736D01*
X148781459Y-87956457D01*
X148786418Y-87942597D01*
X148792712Y-87929290D01*
X148800280Y-87916664D01*
X148809048Y-87904841D01*
X148818934Y-87893934D01*
X148829841Y-87884048D01*
X148841664Y-87875280D01*
X148854290Y-87867712D01*
X148867597Y-87861418D01*
X148881457Y-87856459D01*
X148895736Y-87852882D01*
X148910297Y-87850722D01*
X148925000Y-87850000D01*
X149675000Y-87850000D01*
X149689703Y-87850722D01*
X149689703Y-87850722D01*
G37*
D14*
X149300000Y-88150000D03*
D11*
G36*
X147289703Y-87850722D02*
X147304264Y-87852882D01*
X147318543Y-87856459D01*
X147332403Y-87861418D01*
X147345710Y-87867712D01*
X147358336Y-87875280D01*
X147370159Y-87884048D01*
X147381066Y-87893934D01*
X147390952Y-87904841D01*
X147399720Y-87916664D01*
X147407288Y-87929290D01*
X147413582Y-87942597D01*
X147418541Y-87956457D01*
X147422118Y-87970736D01*
X147424278Y-87985297D01*
X147425000Y-88000000D01*
X147425000Y-88300000D01*
X147424278Y-88314703D01*
X147422118Y-88329264D01*
X147418541Y-88343543D01*
X147413582Y-88357403D01*
X147407288Y-88370710D01*
X147399720Y-88383336D01*
X147390952Y-88395159D01*
X147381066Y-88406066D01*
X147370159Y-88415952D01*
X147358336Y-88424720D01*
X147345710Y-88432288D01*
X147332403Y-88438582D01*
X147318543Y-88443541D01*
X147304264Y-88447118D01*
X147289703Y-88449278D01*
X147275000Y-88450000D01*
X146525000Y-88450000D01*
X146510297Y-88449278D01*
X146495736Y-88447118D01*
X146481457Y-88443541D01*
X146467597Y-88438582D01*
X146454290Y-88432288D01*
X146441664Y-88424720D01*
X146429841Y-88415952D01*
X146418934Y-88406066D01*
X146409048Y-88395159D01*
X146400280Y-88383336D01*
X146392712Y-88370710D01*
X146386418Y-88357403D01*
X146381459Y-88343543D01*
X146377882Y-88329264D01*
X146375722Y-88314703D01*
X146375000Y-88300000D01*
X146375000Y-88000000D01*
X146375722Y-87985297D01*
X146377882Y-87970736D01*
X146381459Y-87956457D01*
X146386418Y-87942597D01*
X146392712Y-87929290D01*
X146400280Y-87916664D01*
X146409048Y-87904841D01*
X146418934Y-87893934D01*
X146429841Y-87884048D01*
X146441664Y-87875280D01*
X146454290Y-87867712D01*
X146467597Y-87861418D01*
X146481457Y-87856459D01*
X146495736Y-87852882D01*
X146510297Y-87850722D01*
X146525000Y-87850000D01*
X147275000Y-87850000D01*
X147289703Y-87850722D01*
X147289703Y-87850722D01*
G37*
D14*
X146900000Y-88150000D03*
D11*
G36*
X147289703Y-86900722D02*
X147304264Y-86902882D01*
X147318543Y-86906459D01*
X147332403Y-86911418D01*
X147345710Y-86917712D01*
X147358336Y-86925280D01*
X147370159Y-86934048D01*
X147381066Y-86943934D01*
X147390952Y-86954841D01*
X147399720Y-86966664D01*
X147407288Y-86979290D01*
X147413582Y-86992597D01*
X147418541Y-87006457D01*
X147422118Y-87020736D01*
X147424278Y-87035297D01*
X147425000Y-87050000D01*
X147425000Y-87350000D01*
X147424278Y-87364703D01*
X147422118Y-87379264D01*
X147418541Y-87393543D01*
X147413582Y-87407403D01*
X147407288Y-87420710D01*
X147399720Y-87433336D01*
X147390952Y-87445159D01*
X147381066Y-87456066D01*
X147370159Y-87465952D01*
X147358336Y-87474720D01*
X147345710Y-87482288D01*
X147332403Y-87488582D01*
X147318543Y-87493541D01*
X147304264Y-87497118D01*
X147289703Y-87499278D01*
X147275000Y-87500000D01*
X146525000Y-87500000D01*
X146510297Y-87499278D01*
X146495736Y-87497118D01*
X146481457Y-87493541D01*
X146467597Y-87488582D01*
X146454290Y-87482288D01*
X146441664Y-87474720D01*
X146429841Y-87465952D01*
X146418934Y-87456066D01*
X146409048Y-87445159D01*
X146400280Y-87433336D01*
X146392712Y-87420710D01*
X146386418Y-87407403D01*
X146381459Y-87393543D01*
X146377882Y-87379264D01*
X146375722Y-87364703D01*
X146375000Y-87350000D01*
X146375000Y-87050000D01*
X146375722Y-87035297D01*
X146377882Y-87020736D01*
X146381459Y-87006457D01*
X146386418Y-86992597D01*
X146392712Y-86979290D01*
X146400280Y-86966664D01*
X146409048Y-86954841D01*
X146418934Y-86943934D01*
X146429841Y-86934048D01*
X146441664Y-86925280D01*
X146454290Y-86917712D01*
X146467597Y-86911418D01*
X146481457Y-86906459D01*
X146495736Y-86902882D01*
X146510297Y-86900722D01*
X146525000Y-86900000D01*
X147275000Y-86900000D01*
X147289703Y-86900722D01*
X147289703Y-86900722D01*
G37*
D14*
X146900000Y-87200000D03*
D11*
G36*
X147289703Y-85950722D02*
X147304264Y-85952882D01*
X147318543Y-85956459D01*
X147332403Y-85961418D01*
X147345710Y-85967712D01*
X147358336Y-85975280D01*
X147370159Y-85984048D01*
X147381066Y-85993934D01*
X147390952Y-86004841D01*
X147399720Y-86016664D01*
X147407288Y-86029290D01*
X147413582Y-86042597D01*
X147418541Y-86056457D01*
X147422118Y-86070736D01*
X147424278Y-86085297D01*
X147425000Y-86100000D01*
X147425000Y-86400000D01*
X147424278Y-86414703D01*
X147422118Y-86429264D01*
X147418541Y-86443543D01*
X147413582Y-86457403D01*
X147407288Y-86470710D01*
X147399720Y-86483336D01*
X147390952Y-86495159D01*
X147381066Y-86506066D01*
X147370159Y-86515952D01*
X147358336Y-86524720D01*
X147345710Y-86532288D01*
X147332403Y-86538582D01*
X147318543Y-86543541D01*
X147304264Y-86547118D01*
X147289703Y-86549278D01*
X147275000Y-86550000D01*
X146525000Y-86550000D01*
X146510297Y-86549278D01*
X146495736Y-86547118D01*
X146481457Y-86543541D01*
X146467597Y-86538582D01*
X146454290Y-86532288D01*
X146441664Y-86524720D01*
X146429841Y-86515952D01*
X146418934Y-86506066D01*
X146409048Y-86495159D01*
X146400280Y-86483336D01*
X146392712Y-86470710D01*
X146386418Y-86457403D01*
X146381459Y-86443543D01*
X146377882Y-86429264D01*
X146375722Y-86414703D01*
X146375000Y-86400000D01*
X146375000Y-86100000D01*
X146375722Y-86085297D01*
X146377882Y-86070736D01*
X146381459Y-86056457D01*
X146386418Y-86042597D01*
X146392712Y-86029290D01*
X146400280Y-86016664D01*
X146409048Y-86004841D01*
X146418934Y-85993934D01*
X146429841Y-85984048D01*
X146441664Y-85975280D01*
X146454290Y-85967712D01*
X146467597Y-85961418D01*
X146481457Y-85956459D01*
X146495736Y-85952882D01*
X146510297Y-85950722D01*
X146525000Y-85950000D01*
X147275000Y-85950000D01*
X147289703Y-85950722D01*
X147289703Y-85950722D01*
G37*
D14*
X146900000Y-86250000D03*
G04 #@! TD*
D11*
G04 #@! TO.C,U1*
G36*
X128064703Y-84725722D02*
X128079264Y-84727882D01*
X128093543Y-84731459D01*
X128107403Y-84736418D01*
X128120710Y-84742712D01*
X128133336Y-84750280D01*
X128145159Y-84759048D01*
X128156066Y-84768934D01*
X128165952Y-84779841D01*
X128174720Y-84791664D01*
X128182288Y-84804290D01*
X128188582Y-84817597D01*
X128193541Y-84831457D01*
X128197118Y-84845736D01*
X128199278Y-84860297D01*
X128200000Y-84875000D01*
X128200000Y-85625000D01*
X128199278Y-85639703D01*
X128197118Y-85654264D01*
X128193541Y-85668543D01*
X128188582Y-85682403D01*
X128182288Y-85695710D01*
X128174720Y-85708336D01*
X128165952Y-85720159D01*
X128156066Y-85731066D01*
X128145159Y-85740952D01*
X128133336Y-85749720D01*
X128120710Y-85757288D01*
X128107403Y-85763582D01*
X128093543Y-85768541D01*
X128079264Y-85772118D01*
X128064703Y-85774278D01*
X128050000Y-85775000D01*
X127750000Y-85775000D01*
X127735297Y-85774278D01*
X127720736Y-85772118D01*
X127706457Y-85768541D01*
X127692597Y-85763582D01*
X127679290Y-85757288D01*
X127666664Y-85749720D01*
X127654841Y-85740952D01*
X127643934Y-85731066D01*
X127634048Y-85720159D01*
X127625280Y-85708336D01*
X127617712Y-85695710D01*
X127611418Y-85682403D01*
X127606459Y-85668543D01*
X127602882Y-85654264D01*
X127600722Y-85639703D01*
X127600000Y-85625000D01*
X127600000Y-84875000D01*
X127600722Y-84860297D01*
X127602882Y-84845736D01*
X127606459Y-84831457D01*
X127611418Y-84817597D01*
X127617712Y-84804290D01*
X127625280Y-84791664D01*
X127634048Y-84779841D01*
X127643934Y-84768934D01*
X127654841Y-84759048D01*
X127666664Y-84750280D01*
X127679290Y-84742712D01*
X127692597Y-84736418D01*
X127706457Y-84731459D01*
X127720736Y-84727882D01*
X127735297Y-84725722D01*
X127750000Y-84725000D01*
X128050000Y-84725000D01*
X128064703Y-84725722D01*
X128064703Y-84725722D01*
G37*
D14*
X127900000Y-85250000D03*
D11*
G36*
X129964703Y-84725722D02*
X129979264Y-84727882D01*
X129993543Y-84731459D01*
X130007403Y-84736418D01*
X130020710Y-84742712D01*
X130033336Y-84750280D01*
X130045159Y-84759048D01*
X130056066Y-84768934D01*
X130065952Y-84779841D01*
X130074720Y-84791664D01*
X130082288Y-84804290D01*
X130088582Y-84817597D01*
X130093541Y-84831457D01*
X130097118Y-84845736D01*
X130099278Y-84860297D01*
X130100000Y-84875000D01*
X130100000Y-85625000D01*
X130099278Y-85639703D01*
X130097118Y-85654264D01*
X130093541Y-85668543D01*
X130088582Y-85682403D01*
X130082288Y-85695710D01*
X130074720Y-85708336D01*
X130065952Y-85720159D01*
X130056066Y-85731066D01*
X130045159Y-85740952D01*
X130033336Y-85749720D01*
X130020710Y-85757288D01*
X130007403Y-85763582D01*
X129993543Y-85768541D01*
X129979264Y-85772118D01*
X129964703Y-85774278D01*
X129950000Y-85775000D01*
X129650000Y-85775000D01*
X129635297Y-85774278D01*
X129620736Y-85772118D01*
X129606457Y-85768541D01*
X129592597Y-85763582D01*
X129579290Y-85757288D01*
X129566664Y-85749720D01*
X129554841Y-85740952D01*
X129543934Y-85731066D01*
X129534048Y-85720159D01*
X129525280Y-85708336D01*
X129517712Y-85695710D01*
X129511418Y-85682403D01*
X129506459Y-85668543D01*
X129502882Y-85654264D01*
X129500722Y-85639703D01*
X129500000Y-85625000D01*
X129500000Y-84875000D01*
X129500722Y-84860297D01*
X129502882Y-84845736D01*
X129506459Y-84831457D01*
X129511418Y-84817597D01*
X129517712Y-84804290D01*
X129525280Y-84791664D01*
X129534048Y-84779841D01*
X129543934Y-84768934D01*
X129554841Y-84759048D01*
X129566664Y-84750280D01*
X129579290Y-84742712D01*
X129592597Y-84736418D01*
X129606457Y-84731459D01*
X129620736Y-84727882D01*
X129635297Y-84725722D01*
X129650000Y-84725000D01*
X129950000Y-84725000D01*
X129964703Y-84725722D01*
X129964703Y-84725722D01*
G37*
D14*
X129800000Y-85250000D03*
D11*
G36*
X129964703Y-87125722D02*
X129979264Y-87127882D01*
X129993543Y-87131459D01*
X130007403Y-87136418D01*
X130020710Y-87142712D01*
X130033336Y-87150280D01*
X130045159Y-87159048D01*
X130056066Y-87168934D01*
X130065952Y-87179841D01*
X130074720Y-87191664D01*
X130082288Y-87204290D01*
X130088582Y-87217597D01*
X130093541Y-87231457D01*
X130097118Y-87245736D01*
X130099278Y-87260297D01*
X130100000Y-87275000D01*
X130100000Y-88025000D01*
X130099278Y-88039703D01*
X130097118Y-88054264D01*
X130093541Y-88068543D01*
X130088582Y-88082403D01*
X130082288Y-88095710D01*
X130074720Y-88108336D01*
X130065952Y-88120159D01*
X130056066Y-88131066D01*
X130045159Y-88140952D01*
X130033336Y-88149720D01*
X130020710Y-88157288D01*
X130007403Y-88163582D01*
X129993543Y-88168541D01*
X129979264Y-88172118D01*
X129964703Y-88174278D01*
X129950000Y-88175000D01*
X129650000Y-88175000D01*
X129635297Y-88174278D01*
X129620736Y-88172118D01*
X129606457Y-88168541D01*
X129592597Y-88163582D01*
X129579290Y-88157288D01*
X129566664Y-88149720D01*
X129554841Y-88140952D01*
X129543934Y-88131066D01*
X129534048Y-88120159D01*
X129525280Y-88108336D01*
X129517712Y-88095710D01*
X129511418Y-88082403D01*
X129506459Y-88068543D01*
X129502882Y-88054264D01*
X129500722Y-88039703D01*
X129500000Y-88025000D01*
X129500000Y-87275000D01*
X129500722Y-87260297D01*
X129502882Y-87245736D01*
X129506459Y-87231457D01*
X129511418Y-87217597D01*
X129517712Y-87204290D01*
X129525280Y-87191664D01*
X129534048Y-87179841D01*
X129543934Y-87168934D01*
X129554841Y-87159048D01*
X129566664Y-87150280D01*
X129579290Y-87142712D01*
X129592597Y-87136418D01*
X129606457Y-87131459D01*
X129620736Y-87127882D01*
X129635297Y-87125722D01*
X129650000Y-87125000D01*
X129950000Y-87125000D01*
X129964703Y-87125722D01*
X129964703Y-87125722D01*
G37*
D14*
X129800000Y-87650000D03*
D11*
G36*
X129014703Y-87125722D02*
X129029264Y-87127882D01*
X129043543Y-87131459D01*
X129057403Y-87136418D01*
X129070710Y-87142712D01*
X129083336Y-87150280D01*
X129095159Y-87159048D01*
X129106066Y-87168934D01*
X129115952Y-87179841D01*
X129124720Y-87191664D01*
X129132288Y-87204290D01*
X129138582Y-87217597D01*
X129143541Y-87231457D01*
X129147118Y-87245736D01*
X129149278Y-87260297D01*
X129150000Y-87275000D01*
X129150000Y-88025000D01*
X129149278Y-88039703D01*
X129147118Y-88054264D01*
X129143541Y-88068543D01*
X129138582Y-88082403D01*
X129132288Y-88095710D01*
X129124720Y-88108336D01*
X129115952Y-88120159D01*
X129106066Y-88131066D01*
X129095159Y-88140952D01*
X129083336Y-88149720D01*
X129070710Y-88157288D01*
X129057403Y-88163582D01*
X129043543Y-88168541D01*
X129029264Y-88172118D01*
X129014703Y-88174278D01*
X129000000Y-88175000D01*
X128700000Y-88175000D01*
X128685297Y-88174278D01*
X128670736Y-88172118D01*
X128656457Y-88168541D01*
X128642597Y-88163582D01*
X128629290Y-88157288D01*
X128616664Y-88149720D01*
X128604841Y-88140952D01*
X128593934Y-88131066D01*
X128584048Y-88120159D01*
X128575280Y-88108336D01*
X128567712Y-88095710D01*
X128561418Y-88082403D01*
X128556459Y-88068543D01*
X128552882Y-88054264D01*
X128550722Y-88039703D01*
X128550000Y-88025000D01*
X128550000Y-87275000D01*
X128550722Y-87260297D01*
X128552882Y-87245736D01*
X128556459Y-87231457D01*
X128561418Y-87217597D01*
X128567712Y-87204290D01*
X128575280Y-87191664D01*
X128584048Y-87179841D01*
X128593934Y-87168934D01*
X128604841Y-87159048D01*
X128616664Y-87150280D01*
X128629290Y-87142712D01*
X128642597Y-87136418D01*
X128656457Y-87131459D01*
X128670736Y-87127882D01*
X128685297Y-87125722D01*
X128700000Y-87125000D01*
X129000000Y-87125000D01*
X129014703Y-87125722D01*
X129014703Y-87125722D01*
G37*
D14*
X128850000Y-87650000D03*
D11*
G36*
X128064703Y-87125722D02*
X128079264Y-87127882D01*
X128093543Y-87131459D01*
X128107403Y-87136418D01*
X128120710Y-87142712D01*
X128133336Y-87150280D01*
X128145159Y-87159048D01*
X128156066Y-87168934D01*
X128165952Y-87179841D01*
X128174720Y-87191664D01*
X128182288Y-87204290D01*
X128188582Y-87217597D01*
X128193541Y-87231457D01*
X128197118Y-87245736D01*
X128199278Y-87260297D01*
X128200000Y-87275000D01*
X128200000Y-88025000D01*
X128199278Y-88039703D01*
X128197118Y-88054264D01*
X128193541Y-88068543D01*
X128188582Y-88082403D01*
X128182288Y-88095710D01*
X128174720Y-88108336D01*
X128165952Y-88120159D01*
X128156066Y-88131066D01*
X128145159Y-88140952D01*
X128133336Y-88149720D01*
X128120710Y-88157288D01*
X128107403Y-88163582D01*
X128093543Y-88168541D01*
X128079264Y-88172118D01*
X128064703Y-88174278D01*
X128050000Y-88175000D01*
X127750000Y-88175000D01*
X127735297Y-88174278D01*
X127720736Y-88172118D01*
X127706457Y-88168541D01*
X127692597Y-88163582D01*
X127679290Y-88157288D01*
X127666664Y-88149720D01*
X127654841Y-88140952D01*
X127643934Y-88131066D01*
X127634048Y-88120159D01*
X127625280Y-88108336D01*
X127617712Y-88095710D01*
X127611418Y-88082403D01*
X127606459Y-88068543D01*
X127602882Y-88054264D01*
X127600722Y-88039703D01*
X127600000Y-88025000D01*
X127600000Y-87275000D01*
X127600722Y-87260297D01*
X127602882Y-87245736D01*
X127606459Y-87231457D01*
X127611418Y-87217597D01*
X127617712Y-87204290D01*
X127625280Y-87191664D01*
X127634048Y-87179841D01*
X127643934Y-87168934D01*
X127654841Y-87159048D01*
X127666664Y-87150280D01*
X127679290Y-87142712D01*
X127692597Y-87136418D01*
X127706457Y-87131459D01*
X127720736Y-87127882D01*
X127735297Y-87125722D01*
X127750000Y-87125000D01*
X128050000Y-87125000D01*
X128064703Y-87125722D01*
X128064703Y-87125722D01*
G37*
D14*
X127900000Y-87650000D03*
G04 #@! TD*
D15*
G04 #@! TO.C,U6*
X158716666Y-95566666D03*
X158716666Y-93700000D03*
X158716666Y-91833334D03*
X156850000Y-95566666D03*
X156850000Y-93700000D03*
X156850000Y-91833334D03*
X154983334Y-95566666D03*
X154983334Y-93700000D03*
X154983334Y-91833334D03*
D16*
X154100000Y-90200000D03*
X154600000Y-90200000D03*
X155100000Y-90200000D03*
X155600000Y-90200000D03*
X156100000Y-90200000D03*
X156600000Y-90200000D03*
X157100000Y-90200000D03*
X157600000Y-90200000D03*
X158100000Y-90200000D03*
X158600000Y-90200000D03*
X159100000Y-90200000D03*
X159600000Y-90200000D03*
D17*
X160350000Y-90950000D03*
X160350000Y-91450000D03*
X160350000Y-91950000D03*
X160350000Y-92450000D03*
X160350000Y-92950000D03*
X160350000Y-93450000D03*
X160350000Y-93950000D03*
X160350000Y-94450000D03*
X160350000Y-94950000D03*
X160350000Y-95450000D03*
X160350000Y-95950000D03*
X160350000Y-96450000D03*
D16*
X159600000Y-97200000D03*
X159100000Y-97200000D03*
X158600000Y-97200000D03*
X158100000Y-97200000D03*
X157600000Y-97200000D03*
X157100000Y-97200000D03*
X156600000Y-97200000D03*
X156100000Y-97200000D03*
X155600000Y-97200000D03*
X155100000Y-97200000D03*
X154600000Y-97200000D03*
X154100000Y-97200000D03*
D17*
X153350000Y-96450000D03*
X153350000Y-95950000D03*
X153350000Y-95450000D03*
X153350000Y-94950000D03*
X153350000Y-94450000D03*
X153350000Y-93950000D03*
X153350000Y-93450000D03*
X153350000Y-92950000D03*
X153350000Y-92450000D03*
X153350000Y-91950000D03*
X153350000Y-91450000D03*
X153350000Y-90950000D03*
G04 #@! TD*
D18*
G04 #@! TO.C,R7*
X172800000Y-82700000D03*
X171600000Y-82700000D03*
G04 #@! TD*
G04 #@! TO.C,R41*
X172850000Y-84600000D03*
X172850000Y-85800000D03*
G04 #@! TD*
D11*
G04 #@! TO.C,D4*
G36*
X170078428Y-97725782D02*
X170094202Y-97728122D01*
X170109671Y-97731997D01*
X170124686Y-97737370D01*
X170139102Y-97744188D01*
X170152780Y-97752386D01*
X170165589Y-97761886D01*
X170177405Y-97772595D01*
X170188114Y-97784411D01*
X170197614Y-97797220D01*
X170205812Y-97810898D01*
X170212630Y-97825314D01*
X170218003Y-97840329D01*
X170221878Y-97855798D01*
X170224218Y-97871572D01*
X170225000Y-97887500D01*
X170225000Y-98612500D01*
X170224218Y-98628428D01*
X170221878Y-98644202D01*
X170218003Y-98659671D01*
X170212630Y-98674686D01*
X170205812Y-98689102D01*
X170197614Y-98702780D01*
X170188114Y-98715589D01*
X170177405Y-98727405D01*
X170165589Y-98738114D01*
X170152780Y-98747614D01*
X170139102Y-98755812D01*
X170124686Y-98762630D01*
X170109671Y-98768003D01*
X170094202Y-98771878D01*
X170078428Y-98774218D01*
X170062500Y-98775000D01*
X169737500Y-98775000D01*
X169721572Y-98774218D01*
X169705798Y-98771878D01*
X169690329Y-98768003D01*
X169675314Y-98762630D01*
X169660898Y-98755812D01*
X169647220Y-98747614D01*
X169634411Y-98738114D01*
X169622595Y-98727405D01*
X169611886Y-98715589D01*
X169602386Y-98702780D01*
X169594188Y-98689102D01*
X169587370Y-98674686D01*
X169581997Y-98659671D01*
X169578122Y-98644202D01*
X169575782Y-98628428D01*
X169575000Y-98612500D01*
X169575000Y-97887500D01*
X169575782Y-97871572D01*
X169578122Y-97855798D01*
X169581997Y-97840329D01*
X169587370Y-97825314D01*
X169594188Y-97810898D01*
X169602386Y-97797220D01*
X169611886Y-97784411D01*
X169622595Y-97772595D01*
X169634411Y-97761886D01*
X169647220Y-97752386D01*
X169660898Y-97744188D01*
X169675314Y-97737370D01*
X169690329Y-97731997D01*
X169705798Y-97728122D01*
X169721572Y-97725782D01*
X169737500Y-97725000D01*
X170062500Y-97725000D01*
X170078428Y-97725782D01*
X170078428Y-97725782D01*
G37*
D13*
X169900000Y-98250000D03*
D11*
G36*
X170078428Y-100125782D02*
X170094202Y-100128122D01*
X170109671Y-100131997D01*
X170124686Y-100137370D01*
X170139102Y-100144188D01*
X170152780Y-100152386D01*
X170165589Y-100161886D01*
X170177405Y-100172595D01*
X170188114Y-100184411D01*
X170197614Y-100197220D01*
X170205812Y-100210898D01*
X170212630Y-100225314D01*
X170218003Y-100240329D01*
X170221878Y-100255798D01*
X170224218Y-100271572D01*
X170225000Y-100287500D01*
X170225000Y-101012500D01*
X170224218Y-101028428D01*
X170221878Y-101044202D01*
X170218003Y-101059671D01*
X170212630Y-101074686D01*
X170205812Y-101089102D01*
X170197614Y-101102780D01*
X170188114Y-101115589D01*
X170177405Y-101127405D01*
X170165589Y-101138114D01*
X170152780Y-101147614D01*
X170139102Y-101155812D01*
X170124686Y-101162630D01*
X170109671Y-101168003D01*
X170094202Y-101171878D01*
X170078428Y-101174218D01*
X170062500Y-101175000D01*
X169737500Y-101175000D01*
X169721572Y-101174218D01*
X169705798Y-101171878D01*
X169690329Y-101168003D01*
X169675314Y-101162630D01*
X169660898Y-101155812D01*
X169647220Y-101147614D01*
X169634411Y-101138114D01*
X169622595Y-101127405D01*
X169611886Y-101115589D01*
X169602386Y-101102780D01*
X169594188Y-101089102D01*
X169587370Y-101074686D01*
X169581997Y-101059671D01*
X169578122Y-101044202D01*
X169575782Y-101028428D01*
X169575000Y-101012500D01*
X169575000Y-100287500D01*
X169575782Y-100271572D01*
X169578122Y-100255798D01*
X169581997Y-100240329D01*
X169587370Y-100225314D01*
X169594188Y-100210898D01*
X169602386Y-100197220D01*
X169611886Y-100184411D01*
X169622595Y-100172595D01*
X169634411Y-100161886D01*
X169647220Y-100152386D01*
X169660898Y-100144188D01*
X169675314Y-100137370D01*
X169690329Y-100131997D01*
X169705798Y-100128122D01*
X169721572Y-100125782D01*
X169737500Y-100125000D01*
X170062500Y-100125000D01*
X170078428Y-100125782D01*
X170078428Y-100125782D01*
G37*
D13*
X169900000Y-100650000D03*
D11*
G36*
X171028428Y-97725782D02*
X171044202Y-97728122D01*
X171059671Y-97731997D01*
X171074686Y-97737370D01*
X171089102Y-97744188D01*
X171102780Y-97752386D01*
X171115589Y-97761886D01*
X171127405Y-97772595D01*
X171138114Y-97784411D01*
X171147614Y-97797220D01*
X171155812Y-97810898D01*
X171162630Y-97825314D01*
X171168003Y-97840329D01*
X171171878Y-97855798D01*
X171174218Y-97871572D01*
X171175000Y-97887500D01*
X171175000Y-98612500D01*
X171174218Y-98628428D01*
X171171878Y-98644202D01*
X171168003Y-98659671D01*
X171162630Y-98674686D01*
X171155812Y-98689102D01*
X171147614Y-98702780D01*
X171138114Y-98715589D01*
X171127405Y-98727405D01*
X171115589Y-98738114D01*
X171102780Y-98747614D01*
X171089102Y-98755812D01*
X171074686Y-98762630D01*
X171059671Y-98768003D01*
X171044202Y-98771878D01*
X171028428Y-98774218D01*
X171012500Y-98775000D01*
X170687500Y-98775000D01*
X170671572Y-98774218D01*
X170655798Y-98771878D01*
X170640329Y-98768003D01*
X170625314Y-98762630D01*
X170610898Y-98755812D01*
X170597220Y-98747614D01*
X170584411Y-98738114D01*
X170572595Y-98727405D01*
X170561886Y-98715589D01*
X170552386Y-98702780D01*
X170544188Y-98689102D01*
X170537370Y-98674686D01*
X170531997Y-98659671D01*
X170528122Y-98644202D01*
X170525782Y-98628428D01*
X170525000Y-98612500D01*
X170525000Y-97887500D01*
X170525782Y-97871572D01*
X170528122Y-97855798D01*
X170531997Y-97840329D01*
X170537370Y-97825314D01*
X170544188Y-97810898D01*
X170552386Y-97797220D01*
X170561886Y-97784411D01*
X170572595Y-97772595D01*
X170584411Y-97761886D01*
X170597220Y-97752386D01*
X170610898Y-97744188D01*
X170625314Y-97737370D01*
X170640329Y-97731997D01*
X170655798Y-97728122D01*
X170671572Y-97725782D01*
X170687500Y-97725000D01*
X171012500Y-97725000D01*
X171028428Y-97725782D01*
X171028428Y-97725782D01*
G37*
D13*
X170850000Y-98250000D03*
D11*
G36*
X171028428Y-100125782D02*
X171044202Y-100128122D01*
X171059671Y-100131997D01*
X171074686Y-100137370D01*
X171089102Y-100144188D01*
X171102780Y-100152386D01*
X171115589Y-100161886D01*
X171127405Y-100172595D01*
X171138114Y-100184411D01*
X171147614Y-100197220D01*
X171155812Y-100210898D01*
X171162630Y-100225314D01*
X171168003Y-100240329D01*
X171171878Y-100255798D01*
X171174218Y-100271572D01*
X171175000Y-100287500D01*
X171175000Y-101012500D01*
X171174218Y-101028428D01*
X171171878Y-101044202D01*
X171168003Y-101059671D01*
X171162630Y-101074686D01*
X171155812Y-101089102D01*
X171147614Y-101102780D01*
X171138114Y-101115589D01*
X171127405Y-101127405D01*
X171115589Y-101138114D01*
X171102780Y-101147614D01*
X171089102Y-101155812D01*
X171074686Y-101162630D01*
X171059671Y-101168003D01*
X171044202Y-101171878D01*
X171028428Y-101174218D01*
X171012500Y-101175000D01*
X170687500Y-101175000D01*
X170671572Y-101174218D01*
X170655798Y-101171878D01*
X170640329Y-101168003D01*
X170625314Y-101162630D01*
X170610898Y-101155812D01*
X170597220Y-101147614D01*
X170584411Y-101138114D01*
X170572595Y-101127405D01*
X170561886Y-101115589D01*
X170552386Y-101102780D01*
X170544188Y-101089102D01*
X170537370Y-101074686D01*
X170531997Y-101059671D01*
X170528122Y-101044202D01*
X170525782Y-101028428D01*
X170525000Y-101012500D01*
X170525000Y-100287500D01*
X170525782Y-100271572D01*
X170528122Y-100255798D01*
X170531997Y-100240329D01*
X170537370Y-100225314D01*
X170544188Y-100210898D01*
X170552386Y-100197220D01*
X170561886Y-100184411D01*
X170572595Y-100172595D01*
X170584411Y-100161886D01*
X170597220Y-100152386D01*
X170610898Y-100144188D01*
X170625314Y-100137370D01*
X170640329Y-100131997D01*
X170655798Y-100128122D01*
X170671572Y-100125782D01*
X170687500Y-100125000D01*
X171012500Y-100125000D01*
X171028428Y-100125782D01*
X171028428Y-100125782D01*
G37*
D13*
X170850000Y-100650000D03*
D11*
G36*
X171978428Y-97725782D02*
X171994202Y-97728122D01*
X172009671Y-97731997D01*
X172024686Y-97737370D01*
X172039102Y-97744188D01*
X172052780Y-97752386D01*
X172065589Y-97761886D01*
X172077405Y-97772595D01*
X172088114Y-97784411D01*
X172097614Y-97797220D01*
X172105812Y-97810898D01*
X172112630Y-97825314D01*
X172118003Y-97840329D01*
X172121878Y-97855798D01*
X172124218Y-97871572D01*
X172125000Y-97887500D01*
X172125000Y-98612500D01*
X172124218Y-98628428D01*
X172121878Y-98644202D01*
X172118003Y-98659671D01*
X172112630Y-98674686D01*
X172105812Y-98689102D01*
X172097614Y-98702780D01*
X172088114Y-98715589D01*
X172077405Y-98727405D01*
X172065589Y-98738114D01*
X172052780Y-98747614D01*
X172039102Y-98755812D01*
X172024686Y-98762630D01*
X172009671Y-98768003D01*
X171994202Y-98771878D01*
X171978428Y-98774218D01*
X171962500Y-98775000D01*
X171637500Y-98775000D01*
X171621572Y-98774218D01*
X171605798Y-98771878D01*
X171590329Y-98768003D01*
X171575314Y-98762630D01*
X171560898Y-98755812D01*
X171547220Y-98747614D01*
X171534411Y-98738114D01*
X171522595Y-98727405D01*
X171511886Y-98715589D01*
X171502386Y-98702780D01*
X171494188Y-98689102D01*
X171487370Y-98674686D01*
X171481997Y-98659671D01*
X171478122Y-98644202D01*
X171475782Y-98628428D01*
X171475000Y-98612500D01*
X171475000Y-97887500D01*
X171475782Y-97871572D01*
X171478122Y-97855798D01*
X171481997Y-97840329D01*
X171487370Y-97825314D01*
X171494188Y-97810898D01*
X171502386Y-97797220D01*
X171511886Y-97784411D01*
X171522595Y-97772595D01*
X171534411Y-97761886D01*
X171547220Y-97752386D01*
X171560898Y-97744188D01*
X171575314Y-97737370D01*
X171590329Y-97731997D01*
X171605798Y-97728122D01*
X171621572Y-97725782D01*
X171637500Y-97725000D01*
X171962500Y-97725000D01*
X171978428Y-97725782D01*
X171978428Y-97725782D01*
G37*
D13*
X171800000Y-98250000D03*
D11*
G36*
X171978428Y-100125782D02*
X171994202Y-100128122D01*
X172009671Y-100131997D01*
X172024686Y-100137370D01*
X172039102Y-100144188D01*
X172052780Y-100152386D01*
X172065589Y-100161886D01*
X172077405Y-100172595D01*
X172088114Y-100184411D01*
X172097614Y-100197220D01*
X172105812Y-100210898D01*
X172112630Y-100225314D01*
X172118003Y-100240329D01*
X172121878Y-100255798D01*
X172124218Y-100271572D01*
X172125000Y-100287500D01*
X172125000Y-101012500D01*
X172124218Y-101028428D01*
X172121878Y-101044202D01*
X172118003Y-101059671D01*
X172112630Y-101074686D01*
X172105812Y-101089102D01*
X172097614Y-101102780D01*
X172088114Y-101115589D01*
X172077405Y-101127405D01*
X172065589Y-101138114D01*
X172052780Y-101147614D01*
X172039102Y-101155812D01*
X172024686Y-101162630D01*
X172009671Y-101168003D01*
X171994202Y-101171878D01*
X171978428Y-101174218D01*
X171962500Y-101175000D01*
X171637500Y-101175000D01*
X171621572Y-101174218D01*
X171605798Y-101171878D01*
X171590329Y-101168003D01*
X171575314Y-101162630D01*
X171560898Y-101155812D01*
X171547220Y-101147614D01*
X171534411Y-101138114D01*
X171522595Y-101127405D01*
X171511886Y-101115589D01*
X171502386Y-101102780D01*
X171494188Y-101089102D01*
X171487370Y-101074686D01*
X171481997Y-101059671D01*
X171478122Y-101044202D01*
X171475782Y-101028428D01*
X171475000Y-101012500D01*
X171475000Y-100287500D01*
X171475782Y-100271572D01*
X171478122Y-100255798D01*
X171481997Y-100240329D01*
X171487370Y-100225314D01*
X171494188Y-100210898D01*
X171502386Y-100197220D01*
X171511886Y-100184411D01*
X171522595Y-100172595D01*
X171534411Y-100161886D01*
X171547220Y-100152386D01*
X171560898Y-100144188D01*
X171575314Y-100137370D01*
X171590329Y-100131997D01*
X171605798Y-100128122D01*
X171621572Y-100125782D01*
X171637500Y-100125000D01*
X171962500Y-100125000D01*
X171978428Y-100125782D01*
X171978428Y-100125782D01*
G37*
D13*
X171800000Y-100650000D03*
G04 #@! TD*
D18*
G04 #@! TO.C,C27*
X168150000Y-101000000D03*
X168150000Y-99900000D03*
G04 #@! TD*
G04 #@! TO.C,C26*
X172200000Y-112750000D03*
X173300000Y-112750000D03*
G04 #@! TD*
G04 #@! TO.C,R40*
X173350000Y-111650000D03*
X172150000Y-111650000D03*
G04 #@! TD*
D19*
G04 #@! TO.C,U7*
X171050000Y-91700000D03*
X166650000Y-91700000D03*
X171050000Y-92200000D03*
X166650000Y-92200000D03*
X171050000Y-92700000D03*
X166650000Y-92700000D03*
X171050000Y-93200000D03*
X166650000Y-93200000D03*
X171050000Y-93700000D03*
X166650000Y-93700000D03*
G04 #@! TD*
D18*
G04 #@! TO.C,R37*
X169350000Y-88100000D03*
X169350000Y-89300000D03*
G04 #@! TD*
D11*
G04 #@! TO.C,Q1*
G36*
X120755292Y-85590506D02*
X120765484Y-85592018D01*
X120775480Y-85594521D01*
X120785182Y-85597993D01*
X120794497Y-85602398D01*
X120803335Y-85607696D01*
X120811611Y-85613834D01*
X120819246Y-85620754D01*
X120826166Y-85628389D01*
X120832304Y-85636665D01*
X120837602Y-85645503D01*
X120842007Y-85654818D01*
X120845479Y-85664520D01*
X120847982Y-85674516D01*
X120849494Y-85684708D01*
X120850000Y-85695000D01*
X120850000Y-85905000D01*
X120849494Y-85915292D01*
X120847982Y-85925484D01*
X120845479Y-85935480D01*
X120842007Y-85945182D01*
X120837602Y-85954497D01*
X120832304Y-85963335D01*
X120826166Y-85971611D01*
X120819246Y-85979246D01*
X120811611Y-85986166D01*
X120803335Y-85992304D01*
X120794497Y-85997602D01*
X120785182Y-86002007D01*
X120775480Y-86005479D01*
X120765484Y-86007982D01*
X120755292Y-86009494D01*
X120745000Y-86010000D01*
X120355000Y-86010000D01*
X120344708Y-86009494D01*
X120334516Y-86007982D01*
X120324520Y-86005479D01*
X120314818Y-86002007D01*
X120305503Y-85997602D01*
X120296665Y-85992304D01*
X120288389Y-85986166D01*
X120280754Y-85979246D01*
X120273834Y-85971611D01*
X120267696Y-85963335D01*
X120262398Y-85954497D01*
X120257993Y-85945182D01*
X120254521Y-85935480D01*
X120252018Y-85925484D01*
X120250506Y-85915292D01*
X120250000Y-85905000D01*
X120250000Y-85695000D01*
X120250506Y-85684708D01*
X120252018Y-85674516D01*
X120254521Y-85664520D01*
X120257993Y-85654818D01*
X120262398Y-85645503D01*
X120267696Y-85636665D01*
X120273834Y-85628389D01*
X120280754Y-85620754D01*
X120288389Y-85613834D01*
X120296665Y-85607696D01*
X120305503Y-85602398D01*
X120314818Y-85597993D01*
X120324520Y-85594521D01*
X120334516Y-85592018D01*
X120344708Y-85590506D01*
X120355000Y-85590000D01*
X120745000Y-85590000D01*
X120755292Y-85590506D01*
X120755292Y-85590506D01*
G37*
D20*
X120550000Y-85800000D03*
D11*
G36*
X118855292Y-85590506D02*
X118865484Y-85592018D01*
X118875480Y-85594521D01*
X118885182Y-85597993D01*
X118894497Y-85602398D01*
X118903335Y-85607696D01*
X118911611Y-85613834D01*
X118919246Y-85620754D01*
X118926166Y-85628389D01*
X118932304Y-85636665D01*
X118937602Y-85645503D01*
X118942007Y-85654818D01*
X118945479Y-85664520D01*
X118947982Y-85674516D01*
X118949494Y-85684708D01*
X118950000Y-85695000D01*
X118950000Y-85905000D01*
X118949494Y-85915292D01*
X118947982Y-85925484D01*
X118945479Y-85935480D01*
X118942007Y-85945182D01*
X118937602Y-85954497D01*
X118932304Y-85963335D01*
X118926166Y-85971611D01*
X118919246Y-85979246D01*
X118911611Y-85986166D01*
X118903335Y-85992304D01*
X118894497Y-85997602D01*
X118885182Y-86002007D01*
X118875480Y-86005479D01*
X118865484Y-86007982D01*
X118855292Y-86009494D01*
X118845000Y-86010000D01*
X118455000Y-86010000D01*
X118444708Y-86009494D01*
X118434516Y-86007982D01*
X118424520Y-86005479D01*
X118414818Y-86002007D01*
X118405503Y-85997602D01*
X118396665Y-85992304D01*
X118388389Y-85986166D01*
X118380754Y-85979246D01*
X118373834Y-85971611D01*
X118367696Y-85963335D01*
X118362398Y-85954497D01*
X118357993Y-85945182D01*
X118354521Y-85935480D01*
X118352018Y-85925484D01*
X118350506Y-85915292D01*
X118350000Y-85905000D01*
X118350000Y-85695000D01*
X118350506Y-85684708D01*
X118352018Y-85674516D01*
X118354521Y-85664520D01*
X118357993Y-85654818D01*
X118362398Y-85645503D01*
X118367696Y-85636665D01*
X118373834Y-85628389D01*
X118380754Y-85620754D01*
X118388389Y-85613834D01*
X118396665Y-85607696D01*
X118405503Y-85602398D01*
X118414818Y-85597993D01*
X118424520Y-85594521D01*
X118434516Y-85592018D01*
X118444708Y-85590506D01*
X118455000Y-85590000D01*
X118845000Y-85590000D01*
X118855292Y-85590506D01*
X118855292Y-85590506D01*
G37*
D20*
X118650000Y-85800000D03*
D11*
G36*
X120753037Y-86235518D02*
X120763472Y-86237066D01*
X120773706Y-86239629D01*
X120783638Y-86243183D01*
X120793175Y-86247693D01*
X120802224Y-86253117D01*
X120810697Y-86259401D01*
X120818514Y-86266486D01*
X120825599Y-86274303D01*
X120831883Y-86282776D01*
X120837307Y-86291825D01*
X120841817Y-86301362D01*
X120845371Y-86311294D01*
X120847934Y-86321528D01*
X120849482Y-86331963D01*
X120850000Y-86342500D01*
X120850000Y-86557500D01*
X120849482Y-86568037D01*
X120847934Y-86578472D01*
X120845371Y-86588706D01*
X120841817Y-86598638D01*
X120837307Y-86608175D01*
X120831883Y-86617224D01*
X120825599Y-86625697D01*
X120818514Y-86633514D01*
X120810697Y-86640599D01*
X120802224Y-86646883D01*
X120793175Y-86652307D01*
X120783638Y-86656817D01*
X120773706Y-86660371D01*
X120763472Y-86662934D01*
X120753037Y-86664482D01*
X120742500Y-86665000D01*
X120357500Y-86665000D01*
X120346963Y-86664482D01*
X120336528Y-86662934D01*
X120326294Y-86660371D01*
X120316362Y-86656817D01*
X120306825Y-86652307D01*
X120297776Y-86646883D01*
X120289303Y-86640599D01*
X120281486Y-86633514D01*
X120274401Y-86625697D01*
X120268117Y-86617224D01*
X120262693Y-86608175D01*
X120258183Y-86598638D01*
X120254629Y-86588706D01*
X120252066Y-86578472D01*
X120250518Y-86568037D01*
X120250000Y-86557500D01*
X120250000Y-86342500D01*
X120250518Y-86331963D01*
X120252066Y-86321528D01*
X120254629Y-86311294D01*
X120258183Y-86301362D01*
X120262693Y-86291825D01*
X120268117Y-86282776D01*
X120274401Y-86274303D01*
X120281486Y-86266486D01*
X120289303Y-86259401D01*
X120297776Y-86253117D01*
X120306825Y-86247693D01*
X120316362Y-86243183D01*
X120326294Y-86239629D01*
X120336528Y-86237066D01*
X120346963Y-86235518D01*
X120357500Y-86235000D01*
X120742500Y-86235000D01*
X120753037Y-86235518D01*
X120753037Y-86235518D01*
G37*
D21*
X120550000Y-86450000D03*
D11*
G36*
X118855292Y-86240506D02*
X118865484Y-86242018D01*
X118875480Y-86244521D01*
X118885182Y-86247993D01*
X118894497Y-86252398D01*
X118903335Y-86257696D01*
X118911611Y-86263834D01*
X118919246Y-86270754D01*
X118926166Y-86278389D01*
X118932304Y-86286665D01*
X118937602Y-86295503D01*
X118942007Y-86304818D01*
X118945479Y-86314520D01*
X118947982Y-86324516D01*
X118949494Y-86334708D01*
X118950000Y-86345000D01*
X118950000Y-86555000D01*
X118949494Y-86565292D01*
X118947982Y-86575484D01*
X118945479Y-86585480D01*
X118942007Y-86595182D01*
X118937602Y-86604497D01*
X118932304Y-86613335D01*
X118926166Y-86621611D01*
X118919246Y-86629246D01*
X118911611Y-86636166D01*
X118903335Y-86642304D01*
X118894497Y-86647602D01*
X118885182Y-86652007D01*
X118875480Y-86655479D01*
X118865484Y-86657982D01*
X118855292Y-86659494D01*
X118845000Y-86660000D01*
X118455000Y-86660000D01*
X118444708Y-86659494D01*
X118434516Y-86657982D01*
X118424520Y-86655479D01*
X118414818Y-86652007D01*
X118405503Y-86647602D01*
X118396665Y-86642304D01*
X118388389Y-86636166D01*
X118380754Y-86629246D01*
X118373834Y-86621611D01*
X118367696Y-86613335D01*
X118362398Y-86604497D01*
X118357993Y-86595182D01*
X118354521Y-86585480D01*
X118352018Y-86575484D01*
X118350506Y-86565292D01*
X118350000Y-86555000D01*
X118350000Y-86345000D01*
X118350506Y-86334708D01*
X118352018Y-86324516D01*
X118354521Y-86314520D01*
X118357993Y-86304818D01*
X118362398Y-86295503D01*
X118367696Y-86286665D01*
X118373834Y-86278389D01*
X118380754Y-86270754D01*
X118388389Y-86263834D01*
X118396665Y-86257696D01*
X118405503Y-86252398D01*
X118414818Y-86247993D01*
X118424520Y-86244521D01*
X118434516Y-86242018D01*
X118444708Y-86240506D01*
X118455000Y-86240000D01*
X118845000Y-86240000D01*
X118855292Y-86240506D01*
X118855292Y-86240506D01*
G37*
D20*
X118650000Y-86450000D03*
D11*
G36*
X120755292Y-86890506D02*
X120765484Y-86892018D01*
X120775480Y-86894521D01*
X120785182Y-86897993D01*
X120794497Y-86902398D01*
X120803335Y-86907696D01*
X120811611Y-86913834D01*
X120819246Y-86920754D01*
X120826166Y-86928389D01*
X120832304Y-86936665D01*
X120837602Y-86945503D01*
X120842007Y-86954818D01*
X120845479Y-86964520D01*
X120847982Y-86974516D01*
X120849494Y-86984708D01*
X120850000Y-86995000D01*
X120850000Y-87205000D01*
X120849494Y-87215292D01*
X120847982Y-87225484D01*
X120845479Y-87235480D01*
X120842007Y-87245182D01*
X120837602Y-87254497D01*
X120832304Y-87263335D01*
X120826166Y-87271611D01*
X120819246Y-87279246D01*
X120811611Y-87286166D01*
X120803335Y-87292304D01*
X120794497Y-87297602D01*
X120785182Y-87302007D01*
X120775480Y-87305479D01*
X120765484Y-87307982D01*
X120755292Y-87309494D01*
X120745000Y-87310000D01*
X120355000Y-87310000D01*
X120344708Y-87309494D01*
X120334516Y-87307982D01*
X120324520Y-87305479D01*
X120314818Y-87302007D01*
X120305503Y-87297602D01*
X120296665Y-87292304D01*
X120288389Y-87286166D01*
X120280754Y-87279246D01*
X120273834Y-87271611D01*
X120267696Y-87263335D01*
X120262398Y-87254497D01*
X120257993Y-87245182D01*
X120254521Y-87235480D01*
X120252018Y-87225484D01*
X120250506Y-87215292D01*
X120250000Y-87205000D01*
X120250000Y-86995000D01*
X120250506Y-86984708D01*
X120252018Y-86974516D01*
X120254521Y-86964520D01*
X120257993Y-86954818D01*
X120262398Y-86945503D01*
X120267696Y-86936665D01*
X120273834Y-86928389D01*
X120280754Y-86920754D01*
X120288389Y-86913834D01*
X120296665Y-86907696D01*
X120305503Y-86902398D01*
X120314818Y-86897993D01*
X120324520Y-86894521D01*
X120334516Y-86892018D01*
X120344708Y-86890506D01*
X120355000Y-86890000D01*
X120745000Y-86890000D01*
X120755292Y-86890506D01*
X120755292Y-86890506D01*
G37*
D20*
X120550000Y-87100000D03*
D11*
G36*
X118855292Y-86890506D02*
X118865484Y-86892018D01*
X118875480Y-86894521D01*
X118885182Y-86897993D01*
X118894497Y-86902398D01*
X118903335Y-86907696D01*
X118911611Y-86913834D01*
X118919246Y-86920754D01*
X118926166Y-86928389D01*
X118932304Y-86936665D01*
X118937602Y-86945503D01*
X118942007Y-86954818D01*
X118945479Y-86964520D01*
X118947982Y-86974516D01*
X118949494Y-86984708D01*
X118950000Y-86995000D01*
X118950000Y-87205000D01*
X118949494Y-87215292D01*
X118947982Y-87225484D01*
X118945479Y-87235480D01*
X118942007Y-87245182D01*
X118937602Y-87254497D01*
X118932304Y-87263335D01*
X118926166Y-87271611D01*
X118919246Y-87279246D01*
X118911611Y-87286166D01*
X118903335Y-87292304D01*
X118894497Y-87297602D01*
X118885182Y-87302007D01*
X118875480Y-87305479D01*
X118865484Y-87307982D01*
X118855292Y-87309494D01*
X118845000Y-87310000D01*
X118455000Y-87310000D01*
X118444708Y-87309494D01*
X118434516Y-87307982D01*
X118424520Y-87305479D01*
X118414818Y-87302007D01*
X118405503Y-87297602D01*
X118396665Y-87292304D01*
X118388389Y-87286166D01*
X118380754Y-87279246D01*
X118373834Y-87271611D01*
X118367696Y-87263335D01*
X118362398Y-87254497D01*
X118357993Y-87245182D01*
X118354521Y-87235480D01*
X118352018Y-87225484D01*
X118350506Y-87215292D01*
X118350000Y-87205000D01*
X118350000Y-86995000D01*
X118350506Y-86984708D01*
X118352018Y-86974516D01*
X118354521Y-86964520D01*
X118357993Y-86954818D01*
X118362398Y-86945503D01*
X118367696Y-86936665D01*
X118373834Y-86928389D01*
X118380754Y-86920754D01*
X118388389Y-86913834D01*
X118396665Y-86907696D01*
X118405503Y-86902398D01*
X118414818Y-86897993D01*
X118424520Y-86894521D01*
X118434516Y-86892018D01*
X118444708Y-86890506D01*
X118455000Y-86890000D01*
X118845000Y-86890000D01*
X118855292Y-86890506D01*
X118855292Y-86890506D01*
G37*
D20*
X118650000Y-87100000D03*
G04 #@! TD*
D18*
G04 #@! TO.C,C14*
X153550000Y-88950000D03*
X154650000Y-88950000D03*
G04 #@! TD*
G04 #@! TO.C,C29*
X179950000Y-86200000D03*
X178850000Y-86200000D03*
G04 #@! TD*
G04 #@! TO.C,C25*
X182800000Y-85000000D03*
X181700000Y-85000000D03*
G04 #@! TD*
G04 #@! TO.C,C23*
X165600000Y-88150000D03*
X165600000Y-89250000D03*
G04 #@! TD*
G04 #@! TO.C,C22*
X114850000Y-87000000D03*
X114850000Y-85900000D03*
G04 #@! TD*
G04 #@! TO.C,C21*
X128600000Y-98400000D03*
X128600000Y-99500000D03*
G04 #@! TD*
G04 #@! TO.C,C19*
X128600000Y-103900000D03*
X128600000Y-105000000D03*
G04 #@! TD*
G04 #@! TO.C,C18*
X150600000Y-94650000D03*
X150600000Y-95750000D03*
G04 #@! TD*
G04 #@! TO.C,C17*
X160450000Y-99250000D03*
X160450000Y-100350000D03*
G04 #@! TD*
G04 #@! TO.C,C13*
X159100000Y-99250000D03*
X158000000Y-99250000D03*
G04 #@! TD*
G04 #@! TO.C,C11*
X143850000Y-96150000D03*
X143850000Y-97250000D03*
G04 #@! TD*
G04 #@! TO.C,C8*
X123050000Y-98950000D03*
X124150000Y-98950000D03*
G04 #@! TD*
G04 #@! TO.C,C5*
X132350000Y-86000000D03*
X132350000Y-84900000D03*
G04 #@! TD*
G04 #@! TO.C,C16*
X162350000Y-91250000D03*
X162350000Y-90150000D03*
G04 #@! TD*
G04 #@! TO.C,C15*
X151600000Y-90500000D03*
X151600000Y-89400000D03*
G04 #@! TD*
D22*
G04 #@! TO.C,C20*
X163600000Y-89700000D03*
X163600000Y-91200000D03*
G04 #@! TD*
G04 #@! TO.C,C6*
X164600000Y-76200000D03*
X166100000Y-76200000D03*
G04 #@! TD*
G04 #@! TO.C,C12*
X157700000Y-100500000D03*
X159200000Y-100500000D03*
G04 #@! TD*
G04 #@! TO.C,C28*
X183350000Y-95700000D03*
X183350000Y-94200000D03*
G04 #@! TD*
D23*
G04 #@! TO.C,C10*
X166100000Y-82450000D03*
X164100000Y-82450000D03*
G04 #@! TD*
D11*
G04 #@! TO.C,J3*
G36*
X185068802Y-89300482D02*
X185078509Y-89301921D01*
X185088028Y-89304306D01*
X185097268Y-89307612D01*
X185106140Y-89311808D01*
X185114557Y-89316853D01*
X185122439Y-89322699D01*
X185129711Y-89329289D01*
X185136301Y-89336561D01*
X185142147Y-89344443D01*
X185147192Y-89352860D01*
X185151388Y-89361732D01*
X185154694Y-89370972D01*
X185157079Y-89380491D01*
X185158518Y-89390198D01*
X185159000Y-89400000D01*
X185159000Y-89600000D01*
X185158518Y-89609802D01*
X185157079Y-89619509D01*
X185154694Y-89629028D01*
X185151388Y-89638268D01*
X185147192Y-89647140D01*
X185142147Y-89655557D01*
X185136301Y-89663439D01*
X185129711Y-89670711D01*
X185122439Y-89677301D01*
X185114557Y-89683147D01*
X185106140Y-89688192D01*
X185097268Y-89692388D01*
X185088028Y-89695694D01*
X185078509Y-89698079D01*
X185068802Y-89699518D01*
X185059000Y-89700000D01*
X183909000Y-89700000D01*
X183899198Y-89699518D01*
X183889491Y-89698079D01*
X183879972Y-89695694D01*
X183870732Y-89692388D01*
X183861860Y-89688192D01*
X183853443Y-89683147D01*
X183845561Y-89677301D01*
X183838289Y-89670711D01*
X183831699Y-89663439D01*
X183825853Y-89655557D01*
X183820808Y-89647140D01*
X183816612Y-89638268D01*
X183813306Y-89629028D01*
X183810921Y-89619509D01*
X183809482Y-89609802D01*
X183809000Y-89600000D01*
X183809000Y-89400000D01*
X183809482Y-89390198D01*
X183810921Y-89380491D01*
X183813306Y-89370972D01*
X183816612Y-89361732D01*
X183820808Y-89352860D01*
X183825853Y-89344443D01*
X183831699Y-89336561D01*
X183838289Y-89329289D01*
X183845561Y-89322699D01*
X183853443Y-89316853D01*
X183861860Y-89311808D01*
X183870732Y-89307612D01*
X183879972Y-89304306D01*
X183889491Y-89301921D01*
X183899198Y-89300482D01*
X183909000Y-89300000D01*
X185059000Y-89300000D01*
X185068802Y-89300482D01*
X185068802Y-89300482D01*
G37*
D24*
X184484000Y-89500000D03*
D11*
G36*
X185068802Y-88650482D02*
X185078509Y-88651921D01*
X185088028Y-88654306D01*
X185097268Y-88657612D01*
X185106140Y-88661808D01*
X185114557Y-88666853D01*
X185122439Y-88672699D01*
X185129711Y-88679289D01*
X185136301Y-88686561D01*
X185142147Y-88694443D01*
X185147192Y-88702860D01*
X185151388Y-88711732D01*
X185154694Y-88720972D01*
X185157079Y-88730491D01*
X185158518Y-88740198D01*
X185159000Y-88750000D01*
X185159000Y-88950000D01*
X185158518Y-88959802D01*
X185157079Y-88969509D01*
X185154694Y-88979028D01*
X185151388Y-88988268D01*
X185147192Y-88997140D01*
X185142147Y-89005557D01*
X185136301Y-89013439D01*
X185129711Y-89020711D01*
X185122439Y-89027301D01*
X185114557Y-89033147D01*
X185106140Y-89038192D01*
X185097268Y-89042388D01*
X185088028Y-89045694D01*
X185078509Y-89048079D01*
X185068802Y-89049518D01*
X185059000Y-89050000D01*
X183909000Y-89050000D01*
X183899198Y-89049518D01*
X183889491Y-89048079D01*
X183879972Y-89045694D01*
X183870732Y-89042388D01*
X183861860Y-89038192D01*
X183853443Y-89033147D01*
X183845561Y-89027301D01*
X183838289Y-89020711D01*
X183831699Y-89013439D01*
X183825853Y-89005557D01*
X183820808Y-88997140D01*
X183816612Y-88988268D01*
X183813306Y-88979028D01*
X183810921Y-88969509D01*
X183809482Y-88959802D01*
X183809000Y-88950000D01*
X183809000Y-88750000D01*
X183809482Y-88740198D01*
X183810921Y-88730491D01*
X183813306Y-88720972D01*
X183816612Y-88711732D01*
X183820808Y-88702860D01*
X183825853Y-88694443D01*
X183831699Y-88686561D01*
X183838289Y-88679289D01*
X183845561Y-88672699D01*
X183853443Y-88666853D01*
X183861860Y-88661808D01*
X183870732Y-88657612D01*
X183879972Y-88654306D01*
X183889491Y-88651921D01*
X183899198Y-88650482D01*
X183909000Y-88650000D01*
X185059000Y-88650000D01*
X185068802Y-88650482D01*
X185068802Y-88650482D01*
G37*
D24*
X184484000Y-88850000D03*
D11*
G36*
X185068802Y-88000482D02*
X185078509Y-88001921D01*
X185088028Y-88004306D01*
X185097268Y-88007612D01*
X185106140Y-88011808D01*
X185114557Y-88016853D01*
X185122439Y-88022699D01*
X185129711Y-88029289D01*
X185136301Y-88036561D01*
X185142147Y-88044443D01*
X185147192Y-88052860D01*
X185151388Y-88061732D01*
X185154694Y-88070972D01*
X185157079Y-88080491D01*
X185158518Y-88090198D01*
X185159000Y-88100000D01*
X185159000Y-88300000D01*
X185158518Y-88309802D01*
X185157079Y-88319509D01*
X185154694Y-88329028D01*
X185151388Y-88338268D01*
X185147192Y-88347140D01*
X185142147Y-88355557D01*
X185136301Y-88363439D01*
X185129711Y-88370711D01*
X185122439Y-88377301D01*
X185114557Y-88383147D01*
X185106140Y-88388192D01*
X185097268Y-88392388D01*
X185088028Y-88395694D01*
X185078509Y-88398079D01*
X185068802Y-88399518D01*
X185059000Y-88400000D01*
X183909000Y-88400000D01*
X183899198Y-88399518D01*
X183889491Y-88398079D01*
X183879972Y-88395694D01*
X183870732Y-88392388D01*
X183861860Y-88388192D01*
X183853443Y-88383147D01*
X183845561Y-88377301D01*
X183838289Y-88370711D01*
X183831699Y-88363439D01*
X183825853Y-88355557D01*
X183820808Y-88347140D01*
X183816612Y-88338268D01*
X183813306Y-88329028D01*
X183810921Y-88319509D01*
X183809482Y-88309802D01*
X183809000Y-88300000D01*
X183809000Y-88100000D01*
X183809482Y-88090198D01*
X183810921Y-88080491D01*
X183813306Y-88070972D01*
X183816612Y-88061732D01*
X183820808Y-88052860D01*
X183825853Y-88044443D01*
X183831699Y-88036561D01*
X183838289Y-88029289D01*
X183845561Y-88022699D01*
X183853443Y-88016853D01*
X183861860Y-88011808D01*
X183870732Y-88007612D01*
X183879972Y-88004306D01*
X183889491Y-88001921D01*
X183899198Y-88000482D01*
X183909000Y-88000000D01*
X185059000Y-88000000D01*
X185068802Y-88000482D01*
X185068802Y-88000482D01*
G37*
D24*
X184484000Y-88200000D03*
D11*
G36*
X185068802Y-87350482D02*
X185078509Y-87351921D01*
X185088028Y-87354306D01*
X185097268Y-87357612D01*
X185106140Y-87361808D01*
X185114557Y-87366853D01*
X185122439Y-87372699D01*
X185129711Y-87379289D01*
X185136301Y-87386561D01*
X185142147Y-87394443D01*
X185147192Y-87402860D01*
X185151388Y-87411732D01*
X185154694Y-87420972D01*
X185157079Y-87430491D01*
X185158518Y-87440198D01*
X185159000Y-87450000D01*
X185159000Y-87650000D01*
X185158518Y-87659802D01*
X185157079Y-87669509D01*
X185154694Y-87679028D01*
X185151388Y-87688268D01*
X185147192Y-87697140D01*
X185142147Y-87705557D01*
X185136301Y-87713439D01*
X185129711Y-87720711D01*
X185122439Y-87727301D01*
X185114557Y-87733147D01*
X185106140Y-87738192D01*
X185097268Y-87742388D01*
X185088028Y-87745694D01*
X185078509Y-87748079D01*
X185068802Y-87749518D01*
X185059000Y-87750000D01*
X183909000Y-87750000D01*
X183899198Y-87749518D01*
X183889491Y-87748079D01*
X183879972Y-87745694D01*
X183870732Y-87742388D01*
X183861860Y-87738192D01*
X183853443Y-87733147D01*
X183845561Y-87727301D01*
X183838289Y-87720711D01*
X183831699Y-87713439D01*
X183825853Y-87705557D01*
X183820808Y-87697140D01*
X183816612Y-87688268D01*
X183813306Y-87679028D01*
X183810921Y-87669509D01*
X183809482Y-87659802D01*
X183809000Y-87650000D01*
X183809000Y-87450000D01*
X183809482Y-87440198D01*
X183810921Y-87430491D01*
X183813306Y-87420972D01*
X183816612Y-87411732D01*
X183820808Y-87402860D01*
X183825853Y-87394443D01*
X183831699Y-87386561D01*
X183838289Y-87379289D01*
X183845561Y-87372699D01*
X183853443Y-87366853D01*
X183861860Y-87361808D01*
X183870732Y-87357612D01*
X183879972Y-87354306D01*
X183889491Y-87351921D01*
X183899198Y-87350482D01*
X183909000Y-87350000D01*
X185059000Y-87350000D01*
X185068802Y-87350482D01*
X185068802Y-87350482D01*
G37*
D24*
X184484000Y-87550000D03*
D11*
G36*
X185043802Y-86700482D02*
X185053509Y-86701921D01*
X185063028Y-86704306D01*
X185072268Y-86707612D01*
X185081140Y-86711808D01*
X185089557Y-86716853D01*
X185097439Y-86722699D01*
X185104711Y-86729289D01*
X185111301Y-86736561D01*
X185117147Y-86744443D01*
X185122192Y-86752860D01*
X185126388Y-86761732D01*
X185129694Y-86770972D01*
X185132079Y-86780491D01*
X185133518Y-86790198D01*
X185134000Y-86800000D01*
X185134000Y-87000000D01*
X185133518Y-87009802D01*
X185132079Y-87019509D01*
X185129694Y-87029028D01*
X185126388Y-87038268D01*
X185122192Y-87047140D01*
X185117147Y-87055557D01*
X185111301Y-87063439D01*
X185104711Y-87070711D01*
X185097439Y-87077301D01*
X185089557Y-87083147D01*
X185081140Y-87088192D01*
X185072268Y-87092388D01*
X185063028Y-87095694D01*
X185053509Y-87098079D01*
X185043802Y-87099518D01*
X185034000Y-87100000D01*
X183884000Y-87100000D01*
X183874198Y-87099518D01*
X183864491Y-87098079D01*
X183854972Y-87095694D01*
X183845732Y-87092388D01*
X183836860Y-87088192D01*
X183828443Y-87083147D01*
X183820561Y-87077301D01*
X183813289Y-87070711D01*
X183806699Y-87063439D01*
X183800853Y-87055557D01*
X183795808Y-87047140D01*
X183791612Y-87038268D01*
X183788306Y-87029028D01*
X183785921Y-87019509D01*
X183784482Y-87009802D01*
X183784000Y-87000000D01*
X183784000Y-86800000D01*
X183784482Y-86790198D01*
X183785921Y-86780491D01*
X183788306Y-86770972D01*
X183791612Y-86761732D01*
X183795808Y-86752860D01*
X183800853Y-86744443D01*
X183806699Y-86736561D01*
X183813289Y-86729289D01*
X183820561Y-86722699D01*
X183828443Y-86716853D01*
X183836860Y-86711808D01*
X183845732Y-86707612D01*
X183854972Y-86704306D01*
X183864491Y-86701921D01*
X183874198Y-86700482D01*
X183884000Y-86700000D01*
X185034000Y-86700000D01*
X185043802Y-86700482D01*
X185043802Y-86700482D01*
G37*
D24*
X184459000Y-86900000D03*
D25*
X187159000Y-91700000D03*
D11*
G36*
X187959000Y-90500000D02*
X187959000Y-91700000D01*
X187958036Y-91700000D01*
X187958036Y-91739254D01*
X187950341Y-91817384D01*
X187935025Y-91894384D01*
X187912235Y-91969512D01*
X187882191Y-92042044D01*
X187845183Y-92111282D01*
X187801566Y-92176559D01*
X187751761Y-92237247D01*
X187696247Y-92292761D01*
X187635559Y-92342566D01*
X187570282Y-92386183D01*
X187501044Y-92423191D01*
X187428512Y-92453235D01*
X187353384Y-92476025D01*
X187276384Y-92491341D01*
X187198254Y-92499036D01*
X187119746Y-92499036D01*
X187041616Y-92491341D01*
X186964616Y-92476025D01*
X186889488Y-92453235D01*
X186816956Y-92423191D01*
X186747718Y-92386183D01*
X186682441Y-92342566D01*
X186621753Y-92292761D01*
X186566239Y-92237247D01*
X186516434Y-92176559D01*
X186472817Y-92111282D01*
X186435809Y-92042044D01*
X186405765Y-91969512D01*
X186382975Y-91894384D01*
X186367659Y-91817384D01*
X186359964Y-91739254D01*
X186359964Y-91700000D01*
X186359000Y-91700000D01*
X186359000Y-90500000D01*
X187959000Y-90500000D01*
X187959000Y-90500000D01*
G37*
D26*
X184459000Y-90700000D03*
X184459000Y-85700000D03*
D25*
X187159000Y-84700000D03*
D11*
G36*
X186359000Y-85900000D02*
X186359000Y-84700000D01*
X186359964Y-84700000D01*
X186359964Y-84660746D01*
X186367659Y-84582616D01*
X186382975Y-84505616D01*
X186405765Y-84430488D01*
X186435809Y-84357956D01*
X186472817Y-84288718D01*
X186516434Y-84223441D01*
X186566239Y-84162753D01*
X186621753Y-84107239D01*
X186682441Y-84057434D01*
X186747718Y-84013817D01*
X186816956Y-83976809D01*
X186889488Y-83946765D01*
X186964616Y-83923975D01*
X187041616Y-83908659D01*
X187119746Y-83900964D01*
X187198254Y-83900964D01*
X187276384Y-83908659D01*
X187353384Y-83923975D01*
X187428512Y-83946765D01*
X187501044Y-83976809D01*
X187570282Y-84013817D01*
X187635559Y-84057434D01*
X187696247Y-84107239D01*
X187751761Y-84162753D01*
X187801566Y-84223441D01*
X187845183Y-84288718D01*
X187882191Y-84357956D01*
X187912235Y-84430488D01*
X187935025Y-84505616D01*
X187950341Y-84582616D01*
X187958036Y-84660746D01*
X187958036Y-84700000D01*
X187959000Y-84700000D01*
X187959000Y-85900000D01*
X186359000Y-85900000D01*
X186359000Y-85900000D01*
G37*
D27*
X187159000Y-89200000D03*
X187159000Y-87200000D03*
G04 #@! TD*
D11*
G04 #@! TO.C,P2*
G36*
X156582153Y-76550843D02*
X156599141Y-76553363D01*
X156615800Y-76557535D01*
X156631970Y-76563321D01*
X156647494Y-76570664D01*
X156662225Y-76579493D01*
X156676019Y-76589723D01*
X156688744Y-76601256D01*
X156700277Y-76613981D01*
X156710507Y-76627775D01*
X156719336Y-76642506D01*
X156726679Y-76658030D01*
X156732465Y-76674200D01*
X156736637Y-76690859D01*
X156739157Y-76707847D01*
X156740000Y-76725000D01*
X156740000Y-78775000D01*
X156739157Y-78792153D01*
X156736637Y-78809141D01*
X156732465Y-78825800D01*
X156726679Y-78841970D01*
X156719336Y-78857494D01*
X156710507Y-78872225D01*
X156700277Y-78886019D01*
X156688744Y-78898744D01*
X156676019Y-78910277D01*
X156662225Y-78920507D01*
X156647494Y-78929336D01*
X156631970Y-78936679D01*
X156615800Y-78942465D01*
X156599141Y-78946637D01*
X156582153Y-78949157D01*
X156565000Y-78950000D01*
X156215000Y-78950000D01*
X156197847Y-78949157D01*
X156180859Y-78946637D01*
X156164200Y-78942465D01*
X156148030Y-78936679D01*
X156132506Y-78929336D01*
X156117775Y-78920507D01*
X156103981Y-78910277D01*
X156091256Y-78898744D01*
X156079723Y-78886019D01*
X156069493Y-78872225D01*
X156060664Y-78857494D01*
X156053321Y-78841970D01*
X156047535Y-78825800D01*
X156043363Y-78809141D01*
X156040843Y-78792153D01*
X156040000Y-78775000D01*
X156040000Y-76725000D01*
X156040843Y-76707847D01*
X156043363Y-76690859D01*
X156047535Y-76674200D01*
X156053321Y-76658030D01*
X156060664Y-76642506D01*
X156069493Y-76627775D01*
X156079723Y-76613981D01*
X156091256Y-76601256D01*
X156103981Y-76589723D01*
X156117775Y-76579493D01*
X156132506Y-76570664D01*
X156148030Y-76563321D01*
X156164200Y-76557535D01*
X156180859Y-76553363D01*
X156197847Y-76550843D01*
X156215000Y-76550000D01*
X156565000Y-76550000D01*
X156582153Y-76550843D01*
X156582153Y-76550843D01*
G37*
D28*
X156390000Y-77750000D03*
D11*
G36*
X156582153Y-80450843D02*
X156599141Y-80453363D01*
X156615800Y-80457535D01*
X156631970Y-80463321D01*
X156647494Y-80470664D01*
X156662225Y-80479493D01*
X156676019Y-80489723D01*
X156688744Y-80501256D01*
X156700277Y-80513981D01*
X156710507Y-80527775D01*
X156719336Y-80542506D01*
X156726679Y-80558030D01*
X156732465Y-80574200D01*
X156736637Y-80590859D01*
X156739157Y-80607847D01*
X156740000Y-80625000D01*
X156740000Y-82675000D01*
X156739157Y-82692153D01*
X156736637Y-82709141D01*
X156732465Y-82725800D01*
X156726679Y-82741970D01*
X156719336Y-82757494D01*
X156710507Y-82772225D01*
X156700277Y-82786019D01*
X156688744Y-82798744D01*
X156676019Y-82810277D01*
X156662225Y-82820507D01*
X156647494Y-82829336D01*
X156631970Y-82836679D01*
X156615800Y-82842465D01*
X156599141Y-82846637D01*
X156582153Y-82849157D01*
X156565000Y-82850000D01*
X156215000Y-82850000D01*
X156197847Y-82849157D01*
X156180859Y-82846637D01*
X156164200Y-82842465D01*
X156148030Y-82836679D01*
X156132506Y-82829336D01*
X156117775Y-82820507D01*
X156103981Y-82810277D01*
X156091256Y-82798744D01*
X156079723Y-82786019D01*
X156069493Y-82772225D01*
X156060664Y-82757494D01*
X156053321Y-82741970D01*
X156047535Y-82725800D01*
X156043363Y-82709141D01*
X156040843Y-82692153D01*
X156040000Y-82675000D01*
X156040000Y-80625000D01*
X156040843Y-80607847D01*
X156043363Y-80590859D01*
X156047535Y-80574200D01*
X156053321Y-80558030D01*
X156060664Y-80542506D01*
X156069493Y-80527775D01*
X156079723Y-80513981D01*
X156091256Y-80501256D01*
X156103981Y-80489723D01*
X156117775Y-80479493D01*
X156132506Y-80470664D01*
X156148030Y-80463321D01*
X156164200Y-80457535D01*
X156180859Y-80453363D01*
X156197847Y-80450843D01*
X156215000Y-80450000D01*
X156565000Y-80450000D01*
X156582153Y-80450843D01*
X156582153Y-80450843D01*
G37*
D28*
X156390000Y-81650000D03*
D11*
G36*
X155312153Y-76550843D02*
X155329141Y-76553363D01*
X155345800Y-76557535D01*
X155361970Y-76563321D01*
X155377494Y-76570664D01*
X155392225Y-76579493D01*
X155406019Y-76589723D01*
X155418744Y-76601256D01*
X155430277Y-76613981D01*
X155440507Y-76627775D01*
X155449336Y-76642506D01*
X155456679Y-76658030D01*
X155462465Y-76674200D01*
X155466637Y-76690859D01*
X155469157Y-76707847D01*
X155470000Y-76725000D01*
X155470000Y-78775000D01*
X155469157Y-78792153D01*
X155466637Y-78809141D01*
X155462465Y-78825800D01*
X155456679Y-78841970D01*
X155449336Y-78857494D01*
X155440507Y-78872225D01*
X155430277Y-78886019D01*
X155418744Y-78898744D01*
X155406019Y-78910277D01*
X155392225Y-78920507D01*
X155377494Y-78929336D01*
X155361970Y-78936679D01*
X155345800Y-78942465D01*
X155329141Y-78946637D01*
X155312153Y-78949157D01*
X155295000Y-78950000D01*
X154945000Y-78950000D01*
X154927847Y-78949157D01*
X154910859Y-78946637D01*
X154894200Y-78942465D01*
X154878030Y-78936679D01*
X154862506Y-78929336D01*
X154847775Y-78920507D01*
X154833981Y-78910277D01*
X154821256Y-78898744D01*
X154809723Y-78886019D01*
X154799493Y-78872225D01*
X154790664Y-78857494D01*
X154783321Y-78841970D01*
X154777535Y-78825800D01*
X154773363Y-78809141D01*
X154770843Y-78792153D01*
X154770000Y-78775000D01*
X154770000Y-76725000D01*
X154770843Y-76707847D01*
X154773363Y-76690859D01*
X154777535Y-76674200D01*
X154783321Y-76658030D01*
X154790664Y-76642506D01*
X154799493Y-76627775D01*
X154809723Y-76613981D01*
X154821256Y-76601256D01*
X154833981Y-76589723D01*
X154847775Y-76579493D01*
X154862506Y-76570664D01*
X154878030Y-76563321D01*
X154894200Y-76557535D01*
X154910859Y-76553363D01*
X154927847Y-76550843D01*
X154945000Y-76550000D01*
X155295000Y-76550000D01*
X155312153Y-76550843D01*
X155312153Y-76550843D01*
G37*
D28*
X155120000Y-77750000D03*
D11*
G36*
X155312153Y-80450843D02*
X155329141Y-80453363D01*
X155345800Y-80457535D01*
X155361970Y-80463321D01*
X155377494Y-80470664D01*
X155392225Y-80479493D01*
X155406019Y-80489723D01*
X155418744Y-80501256D01*
X155430277Y-80513981D01*
X155440507Y-80527775D01*
X155449336Y-80542506D01*
X155456679Y-80558030D01*
X155462465Y-80574200D01*
X155466637Y-80590859D01*
X155469157Y-80607847D01*
X155470000Y-80625000D01*
X155470000Y-82675000D01*
X155469157Y-82692153D01*
X155466637Y-82709141D01*
X155462465Y-82725800D01*
X155456679Y-82741970D01*
X155449336Y-82757494D01*
X155440507Y-82772225D01*
X155430277Y-82786019D01*
X155418744Y-82798744D01*
X155406019Y-82810277D01*
X155392225Y-82820507D01*
X155377494Y-82829336D01*
X155361970Y-82836679D01*
X155345800Y-82842465D01*
X155329141Y-82846637D01*
X155312153Y-82849157D01*
X155295000Y-82850000D01*
X154945000Y-82850000D01*
X154927847Y-82849157D01*
X154910859Y-82846637D01*
X154894200Y-82842465D01*
X154878030Y-82836679D01*
X154862506Y-82829336D01*
X154847775Y-82820507D01*
X154833981Y-82810277D01*
X154821256Y-82798744D01*
X154809723Y-82786019D01*
X154799493Y-82772225D01*
X154790664Y-82757494D01*
X154783321Y-82741970D01*
X154777535Y-82725800D01*
X154773363Y-82709141D01*
X154770843Y-82692153D01*
X154770000Y-82675000D01*
X154770000Y-80625000D01*
X154770843Y-80607847D01*
X154773363Y-80590859D01*
X154777535Y-80574200D01*
X154783321Y-80558030D01*
X154790664Y-80542506D01*
X154799493Y-80527775D01*
X154809723Y-80513981D01*
X154821256Y-80501256D01*
X154833981Y-80489723D01*
X154847775Y-80479493D01*
X154862506Y-80470664D01*
X154878030Y-80463321D01*
X154894200Y-80457535D01*
X154910859Y-80453363D01*
X154927847Y-80450843D01*
X154945000Y-80450000D01*
X155295000Y-80450000D01*
X155312153Y-80450843D01*
X155312153Y-80450843D01*
G37*
D28*
X155120000Y-81650000D03*
D11*
G36*
X154042153Y-76550843D02*
X154059141Y-76553363D01*
X154075800Y-76557535D01*
X154091970Y-76563321D01*
X154107494Y-76570664D01*
X154122225Y-76579493D01*
X154136019Y-76589723D01*
X154148744Y-76601256D01*
X154160277Y-76613981D01*
X154170507Y-76627775D01*
X154179336Y-76642506D01*
X154186679Y-76658030D01*
X154192465Y-76674200D01*
X154196637Y-76690859D01*
X154199157Y-76707847D01*
X154200000Y-76725000D01*
X154200000Y-78775000D01*
X154199157Y-78792153D01*
X154196637Y-78809141D01*
X154192465Y-78825800D01*
X154186679Y-78841970D01*
X154179336Y-78857494D01*
X154170507Y-78872225D01*
X154160277Y-78886019D01*
X154148744Y-78898744D01*
X154136019Y-78910277D01*
X154122225Y-78920507D01*
X154107494Y-78929336D01*
X154091970Y-78936679D01*
X154075800Y-78942465D01*
X154059141Y-78946637D01*
X154042153Y-78949157D01*
X154025000Y-78950000D01*
X153675000Y-78950000D01*
X153657847Y-78949157D01*
X153640859Y-78946637D01*
X153624200Y-78942465D01*
X153608030Y-78936679D01*
X153592506Y-78929336D01*
X153577775Y-78920507D01*
X153563981Y-78910277D01*
X153551256Y-78898744D01*
X153539723Y-78886019D01*
X153529493Y-78872225D01*
X153520664Y-78857494D01*
X153513321Y-78841970D01*
X153507535Y-78825800D01*
X153503363Y-78809141D01*
X153500843Y-78792153D01*
X153500000Y-78775000D01*
X153500000Y-76725000D01*
X153500843Y-76707847D01*
X153503363Y-76690859D01*
X153507535Y-76674200D01*
X153513321Y-76658030D01*
X153520664Y-76642506D01*
X153529493Y-76627775D01*
X153539723Y-76613981D01*
X153551256Y-76601256D01*
X153563981Y-76589723D01*
X153577775Y-76579493D01*
X153592506Y-76570664D01*
X153608030Y-76563321D01*
X153624200Y-76557535D01*
X153640859Y-76553363D01*
X153657847Y-76550843D01*
X153675000Y-76550000D01*
X154025000Y-76550000D01*
X154042153Y-76550843D01*
X154042153Y-76550843D01*
G37*
D28*
X153850000Y-77750000D03*
D11*
G36*
X154042153Y-80450843D02*
X154059141Y-80453363D01*
X154075800Y-80457535D01*
X154091970Y-80463321D01*
X154107494Y-80470664D01*
X154122225Y-80479493D01*
X154136019Y-80489723D01*
X154148744Y-80501256D01*
X154160277Y-80513981D01*
X154170507Y-80527775D01*
X154179336Y-80542506D01*
X154186679Y-80558030D01*
X154192465Y-80574200D01*
X154196637Y-80590859D01*
X154199157Y-80607847D01*
X154200000Y-80625000D01*
X154200000Y-82675000D01*
X154199157Y-82692153D01*
X154196637Y-82709141D01*
X154192465Y-82725800D01*
X154186679Y-82741970D01*
X154179336Y-82757494D01*
X154170507Y-82772225D01*
X154160277Y-82786019D01*
X154148744Y-82798744D01*
X154136019Y-82810277D01*
X154122225Y-82820507D01*
X154107494Y-82829336D01*
X154091970Y-82836679D01*
X154075800Y-82842465D01*
X154059141Y-82846637D01*
X154042153Y-82849157D01*
X154025000Y-82850000D01*
X153675000Y-82850000D01*
X153657847Y-82849157D01*
X153640859Y-82846637D01*
X153624200Y-82842465D01*
X153608030Y-82836679D01*
X153592506Y-82829336D01*
X153577775Y-82820507D01*
X153563981Y-82810277D01*
X153551256Y-82798744D01*
X153539723Y-82786019D01*
X153529493Y-82772225D01*
X153520664Y-82757494D01*
X153513321Y-82741970D01*
X153507535Y-82725800D01*
X153503363Y-82709141D01*
X153500843Y-82692153D01*
X153500000Y-82675000D01*
X153500000Y-80625000D01*
X153500843Y-80607847D01*
X153503363Y-80590859D01*
X153507535Y-80574200D01*
X153513321Y-80558030D01*
X153520664Y-80542506D01*
X153529493Y-80527775D01*
X153539723Y-80513981D01*
X153551256Y-80501256D01*
X153563981Y-80489723D01*
X153577775Y-80479493D01*
X153592506Y-80470664D01*
X153608030Y-80463321D01*
X153624200Y-80457535D01*
X153640859Y-80453363D01*
X153657847Y-80450843D01*
X153675000Y-80450000D01*
X154025000Y-80450000D01*
X154042153Y-80450843D01*
X154042153Y-80450843D01*
G37*
D28*
X153850000Y-81650000D03*
D11*
G36*
X152772153Y-76550843D02*
X152789141Y-76553363D01*
X152805800Y-76557535D01*
X152821970Y-76563321D01*
X152837494Y-76570664D01*
X152852225Y-76579493D01*
X152866019Y-76589723D01*
X152878744Y-76601256D01*
X152890277Y-76613981D01*
X152900507Y-76627775D01*
X152909336Y-76642506D01*
X152916679Y-76658030D01*
X152922465Y-76674200D01*
X152926637Y-76690859D01*
X152929157Y-76707847D01*
X152930000Y-76725000D01*
X152930000Y-78775000D01*
X152929157Y-78792153D01*
X152926637Y-78809141D01*
X152922465Y-78825800D01*
X152916679Y-78841970D01*
X152909336Y-78857494D01*
X152900507Y-78872225D01*
X152890277Y-78886019D01*
X152878744Y-78898744D01*
X152866019Y-78910277D01*
X152852225Y-78920507D01*
X152837494Y-78929336D01*
X152821970Y-78936679D01*
X152805800Y-78942465D01*
X152789141Y-78946637D01*
X152772153Y-78949157D01*
X152755000Y-78950000D01*
X152405000Y-78950000D01*
X152387847Y-78949157D01*
X152370859Y-78946637D01*
X152354200Y-78942465D01*
X152338030Y-78936679D01*
X152322506Y-78929336D01*
X152307775Y-78920507D01*
X152293981Y-78910277D01*
X152281256Y-78898744D01*
X152269723Y-78886019D01*
X152259493Y-78872225D01*
X152250664Y-78857494D01*
X152243321Y-78841970D01*
X152237535Y-78825800D01*
X152233363Y-78809141D01*
X152230843Y-78792153D01*
X152230000Y-78775000D01*
X152230000Y-76725000D01*
X152230843Y-76707847D01*
X152233363Y-76690859D01*
X152237535Y-76674200D01*
X152243321Y-76658030D01*
X152250664Y-76642506D01*
X152259493Y-76627775D01*
X152269723Y-76613981D01*
X152281256Y-76601256D01*
X152293981Y-76589723D01*
X152307775Y-76579493D01*
X152322506Y-76570664D01*
X152338030Y-76563321D01*
X152354200Y-76557535D01*
X152370859Y-76553363D01*
X152387847Y-76550843D01*
X152405000Y-76550000D01*
X152755000Y-76550000D01*
X152772153Y-76550843D01*
X152772153Y-76550843D01*
G37*
D28*
X152580000Y-77750000D03*
D11*
G36*
X152772153Y-80450843D02*
X152789141Y-80453363D01*
X152805800Y-80457535D01*
X152821970Y-80463321D01*
X152837494Y-80470664D01*
X152852225Y-80479493D01*
X152866019Y-80489723D01*
X152878744Y-80501256D01*
X152890277Y-80513981D01*
X152900507Y-80527775D01*
X152909336Y-80542506D01*
X152916679Y-80558030D01*
X152922465Y-80574200D01*
X152926637Y-80590859D01*
X152929157Y-80607847D01*
X152930000Y-80625000D01*
X152930000Y-82675000D01*
X152929157Y-82692153D01*
X152926637Y-82709141D01*
X152922465Y-82725800D01*
X152916679Y-82741970D01*
X152909336Y-82757494D01*
X152900507Y-82772225D01*
X152890277Y-82786019D01*
X152878744Y-82798744D01*
X152866019Y-82810277D01*
X152852225Y-82820507D01*
X152837494Y-82829336D01*
X152821970Y-82836679D01*
X152805800Y-82842465D01*
X152789141Y-82846637D01*
X152772153Y-82849157D01*
X152755000Y-82850000D01*
X152405000Y-82850000D01*
X152387847Y-82849157D01*
X152370859Y-82846637D01*
X152354200Y-82842465D01*
X152338030Y-82836679D01*
X152322506Y-82829336D01*
X152307775Y-82820507D01*
X152293981Y-82810277D01*
X152281256Y-82798744D01*
X152269723Y-82786019D01*
X152259493Y-82772225D01*
X152250664Y-82757494D01*
X152243321Y-82741970D01*
X152237535Y-82725800D01*
X152233363Y-82709141D01*
X152230843Y-82692153D01*
X152230000Y-82675000D01*
X152230000Y-80625000D01*
X152230843Y-80607847D01*
X152233363Y-80590859D01*
X152237535Y-80574200D01*
X152243321Y-80558030D01*
X152250664Y-80542506D01*
X152259493Y-80527775D01*
X152269723Y-80513981D01*
X152281256Y-80501256D01*
X152293981Y-80489723D01*
X152307775Y-80479493D01*
X152322506Y-80470664D01*
X152338030Y-80463321D01*
X152354200Y-80457535D01*
X152370859Y-80453363D01*
X152387847Y-80450843D01*
X152405000Y-80450000D01*
X152755000Y-80450000D01*
X152772153Y-80450843D01*
X152772153Y-80450843D01*
G37*
D28*
X152580000Y-81650000D03*
D11*
G36*
X151502153Y-76550843D02*
X151519141Y-76553363D01*
X151535800Y-76557535D01*
X151551970Y-76563321D01*
X151567494Y-76570664D01*
X151582225Y-76579493D01*
X151596019Y-76589723D01*
X151608744Y-76601256D01*
X151620277Y-76613981D01*
X151630507Y-76627775D01*
X151639336Y-76642506D01*
X151646679Y-76658030D01*
X151652465Y-76674200D01*
X151656637Y-76690859D01*
X151659157Y-76707847D01*
X151660000Y-76725000D01*
X151660000Y-78775000D01*
X151659157Y-78792153D01*
X151656637Y-78809141D01*
X151652465Y-78825800D01*
X151646679Y-78841970D01*
X151639336Y-78857494D01*
X151630507Y-78872225D01*
X151620277Y-78886019D01*
X151608744Y-78898744D01*
X151596019Y-78910277D01*
X151582225Y-78920507D01*
X151567494Y-78929336D01*
X151551970Y-78936679D01*
X151535800Y-78942465D01*
X151519141Y-78946637D01*
X151502153Y-78949157D01*
X151485000Y-78950000D01*
X151135000Y-78950000D01*
X151117847Y-78949157D01*
X151100859Y-78946637D01*
X151084200Y-78942465D01*
X151068030Y-78936679D01*
X151052506Y-78929336D01*
X151037775Y-78920507D01*
X151023981Y-78910277D01*
X151011256Y-78898744D01*
X150999723Y-78886019D01*
X150989493Y-78872225D01*
X150980664Y-78857494D01*
X150973321Y-78841970D01*
X150967535Y-78825800D01*
X150963363Y-78809141D01*
X150960843Y-78792153D01*
X150960000Y-78775000D01*
X150960000Y-76725000D01*
X150960843Y-76707847D01*
X150963363Y-76690859D01*
X150967535Y-76674200D01*
X150973321Y-76658030D01*
X150980664Y-76642506D01*
X150989493Y-76627775D01*
X150999723Y-76613981D01*
X151011256Y-76601256D01*
X151023981Y-76589723D01*
X151037775Y-76579493D01*
X151052506Y-76570664D01*
X151068030Y-76563321D01*
X151084200Y-76557535D01*
X151100859Y-76553363D01*
X151117847Y-76550843D01*
X151135000Y-76550000D01*
X151485000Y-76550000D01*
X151502153Y-76550843D01*
X151502153Y-76550843D01*
G37*
D28*
X151310000Y-77750000D03*
D11*
G36*
X151502153Y-80450843D02*
X151519141Y-80453363D01*
X151535800Y-80457535D01*
X151551970Y-80463321D01*
X151567494Y-80470664D01*
X151582225Y-80479493D01*
X151596019Y-80489723D01*
X151608744Y-80501256D01*
X151620277Y-80513981D01*
X151630507Y-80527775D01*
X151639336Y-80542506D01*
X151646679Y-80558030D01*
X151652465Y-80574200D01*
X151656637Y-80590859D01*
X151659157Y-80607847D01*
X151660000Y-80625000D01*
X151660000Y-82675000D01*
X151659157Y-82692153D01*
X151656637Y-82709141D01*
X151652465Y-82725800D01*
X151646679Y-82741970D01*
X151639336Y-82757494D01*
X151630507Y-82772225D01*
X151620277Y-82786019D01*
X151608744Y-82798744D01*
X151596019Y-82810277D01*
X151582225Y-82820507D01*
X151567494Y-82829336D01*
X151551970Y-82836679D01*
X151535800Y-82842465D01*
X151519141Y-82846637D01*
X151502153Y-82849157D01*
X151485000Y-82850000D01*
X151135000Y-82850000D01*
X151117847Y-82849157D01*
X151100859Y-82846637D01*
X151084200Y-82842465D01*
X151068030Y-82836679D01*
X151052506Y-82829336D01*
X151037775Y-82820507D01*
X151023981Y-82810277D01*
X151011256Y-82798744D01*
X150999723Y-82786019D01*
X150989493Y-82772225D01*
X150980664Y-82757494D01*
X150973321Y-82741970D01*
X150967535Y-82725800D01*
X150963363Y-82709141D01*
X150960843Y-82692153D01*
X150960000Y-82675000D01*
X150960000Y-80625000D01*
X150960843Y-80607847D01*
X150963363Y-80590859D01*
X150967535Y-80574200D01*
X150973321Y-80558030D01*
X150980664Y-80542506D01*
X150989493Y-80527775D01*
X150999723Y-80513981D01*
X151011256Y-80501256D01*
X151023981Y-80489723D01*
X151037775Y-80479493D01*
X151052506Y-80470664D01*
X151068030Y-80463321D01*
X151084200Y-80457535D01*
X151100859Y-80453363D01*
X151117847Y-80450843D01*
X151135000Y-80450000D01*
X151485000Y-80450000D01*
X151502153Y-80450843D01*
X151502153Y-80450843D01*
G37*
D28*
X151310000Y-81650000D03*
G04 #@! TD*
D18*
G04 #@! TO.C,R30*
X122600000Y-86350000D03*
X122600000Y-87550000D03*
G04 #@! TD*
G04 #@! TO.C,R32*
X163700000Y-102700000D03*
X162500000Y-102700000D03*
G04 #@! TD*
G04 #@! TO.C,R33*
X161550000Y-99200000D03*
X161550000Y-100400000D03*
G04 #@! TD*
G04 #@! TO.C,R34*
X170600000Y-89300000D03*
X170600000Y-88100000D03*
G04 #@! TD*
G04 #@! TO.C,R35*
X163700000Y-109450000D03*
X162500000Y-109450000D03*
G04 #@! TD*
G04 #@! TO.C,R36*
X168100000Y-88100000D03*
X168100000Y-89300000D03*
G04 #@! TD*
G04 #@! TO.C,R38*
X166850000Y-89300000D03*
X166850000Y-88100000D03*
G04 #@! TD*
G04 #@! TO.C,R39*
X182850000Y-83750000D03*
X181650000Y-83750000D03*
G04 #@! TD*
G04 #@! TO.C,R22*
X127100000Y-105050000D03*
X127100000Y-103850000D03*
G04 #@! TD*
G04 #@! TO.C,R27*
X124100000Y-87550000D03*
X124100000Y-86350000D03*
G04 #@! TD*
G04 #@! TO.C,R26*
X113500000Y-88450000D03*
X114700000Y-88450000D03*
G04 #@! TD*
G04 #@! TO.C,R25*
X128450000Y-100700000D03*
X127250000Y-100700000D03*
G04 #@! TD*
G04 #@! TO.C,R24*
X127250000Y-102700000D03*
X128450000Y-102700000D03*
G04 #@! TD*
G04 #@! TO.C,R23*
X127100000Y-99550000D03*
X127100000Y-98350000D03*
G04 #@! TD*
G04 #@! TO.C,R20*
X119500000Y-100700000D03*
X120700000Y-100700000D03*
G04 #@! TD*
G04 #@! TO.C,R2*
X162350000Y-88950000D03*
X162350000Y-87750000D03*
G04 #@! TD*
G04 #@! TO.C,R19*
X119500000Y-102700000D03*
X120700000Y-102700000D03*
G04 #@! TD*
G04 #@! TO.C,R18*
X149450000Y-89450000D03*
X148250000Y-89450000D03*
G04 #@! TD*
G04 #@! TO.C,R17*
X132350000Y-97550000D03*
X132350000Y-96350000D03*
G04 #@! TD*
G04 #@! TO.C,R16*
X133600000Y-96350000D03*
X133600000Y-97550000D03*
G04 #@! TD*
G04 #@! TO.C,R15*
X134850000Y-97550000D03*
X134850000Y-96350000D03*
G04 #@! TD*
G04 #@! TO.C,R14*
X177200000Y-93200000D03*
X176000000Y-93200000D03*
G04 #@! TD*
G04 #@! TO.C,R28*
X113350000Y-85850000D03*
X113350000Y-87050000D03*
G04 #@! TD*
G04 #@! TO.C,R21*
X159150000Y-101800000D03*
X157950000Y-101800000D03*
G04 #@! TD*
G04 #@! TO.C,R12*
X134850000Y-86050000D03*
X134850000Y-84850000D03*
G04 #@! TD*
G04 #@! TO.C,R13*
X176000000Y-92200000D03*
X177200000Y-92200000D03*
G04 #@! TD*
D29*
G04 #@! TO.C,R29*
X121700000Y-88950000D03*
X120000000Y-88950000D03*
G04 #@! TD*
G04 #@! TO.C,R31*
X116750000Y-88950000D03*
X118450000Y-88950000D03*
G04 #@! TD*
D18*
G04 #@! TO.C,C1*
X153950000Y-84700000D03*
X152850000Y-84700000D03*
G04 #@! TD*
G04 #@! TO.C,C3*
X127800000Y-83450000D03*
X128900000Y-83450000D03*
G04 #@! TD*
G04 #@! TO.C,C4*
X127850000Y-80900000D03*
X127850000Y-82000000D03*
G04 #@! TD*
G04 #@! TO.C,C7*
X149350000Y-84700000D03*
X148250000Y-84700000D03*
G04 #@! TD*
G04 #@! TO.C,C9*
X143850000Y-93150000D03*
X143850000Y-94250000D03*
G04 #@! TD*
G04 #@! TO.C,C2*
X142100000Y-87400000D03*
X142100000Y-88500000D03*
G04 #@! TD*
D30*
G04 #@! TO.C,D2*
X125475000Y-78450000D03*
X123725000Y-78450000D03*
X123725000Y-81950000D03*
X125475000Y-81950000D03*
G04 #@! TD*
D18*
G04 #@! TO.C,R5*
X140800000Y-88650000D03*
X139600000Y-88650000D03*
G04 #@! TD*
G04 #@! TO.C,R11*
X133600000Y-84850000D03*
X133600000Y-86050000D03*
G04 #@! TD*
G04 #@! TO.C,R1*
X154000000Y-98800000D03*
X152800000Y-98800000D03*
G04 #@! TD*
G04 #@! TO.C,R3*
X156300000Y-84700000D03*
X155100000Y-84700000D03*
G04 #@! TD*
G04 #@! TO.C,R4*
X151700000Y-84700000D03*
X150500000Y-84700000D03*
G04 #@! TD*
G04 #@! TO.C,R9*
X124950000Y-83950000D03*
X123750000Y-83950000D03*
G04 #@! TD*
G04 #@! TO.C,R10*
X136100000Y-86050000D03*
X136100000Y-84850000D03*
G04 #@! TD*
G04 #@! TO.C,R6*
X172800000Y-81600000D03*
X171600000Y-81600000D03*
G04 #@! TD*
G04 #@! TO.C,R8*
X139600000Y-87350000D03*
X140800000Y-87350000D03*
G04 #@! TD*
D11*
G04 #@! TO.C,D3*
G36*
X125678428Y-100425782D02*
X125694202Y-100428122D01*
X125709671Y-100431997D01*
X125724686Y-100437370D01*
X125739102Y-100444188D01*
X125752780Y-100452386D01*
X125765589Y-100461886D01*
X125777405Y-100472595D01*
X125788114Y-100484411D01*
X125797614Y-100497220D01*
X125805812Y-100510898D01*
X125812630Y-100525314D01*
X125818003Y-100540329D01*
X125821878Y-100555798D01*
X125824218Y-100571572D01*
X125825000Y-100587500D01*
X125825000Y-100912500D01*
X125824218Y-100928428D01*
X125821878Y-100944202D01*
X125818003Y-100959671D01*
X125812630Y-100974686D01*
X125805812Y-100989102D01*
X125797614Y-101002780D01*
X125788114Y-101015589D01*
X125777405Y-101027405D01*
X125765589Y-101038114D01*
X125752780Y-101047614D01*
X125739102Y-101055812D01*
X125724686Y-101062630D01*
X125709671Y-101068003D01*
X125694202Y-101071878D01*
X125678428Y-101074218D01*
X125662500Y-101075000D01*
X124937500Y-101075000D01*
X124921572Y-101074218D01*
X124905798Y-101071878D01*
X124890329Y-101068003D01*
X124875314Y-101062630D01*
X124860898Y-101055812D01*
X124847220Y-101047614D01*
X124834411Y-101038114D01*
X124822595Y-101027405D01*
X124811886Y-101015589D01*
X124802386Y-101002780D01*
X124794188Y-100989102D01*
X124787370Y-100974686D01*
X124781997Y-100959671D01*
X124778122Y-100944202D01*
X124775782Y-100928428D01*
X124775000Y-100912500D01*
X124775000Y-100587500D01*
X124775782Y-100571572D01*
X124778122Y-100555798D01*
X124781997Y-100540329D01*
X124787370Y-100525314D01*
X124794188Y-100510898D01*
X124802386Y-100497220D01*
X124811886Y-100484411D01*
X124822595Y-100472595D01*
X124834411Y-100461886D01*
X124847220Y-100452386D01*
X124860898Y-100444188D01*
X124875314Y-100437370D01*
X124890329Y-100431997D01*
X124905798Y-100428122D01*
X124921572Y-100425782D01*
X124937500Y-100425000D01*
X125662500Y-100425000D01*
X125678428Y-100425782D01*
X125678428Y-100425782D01*
G37*
D13*
X125300000Y-100750000D03*
D11*
G36*
X123278428Y-100425782D02*
X123294202Y-100428122D01*
X123309671Y-100431997D01*
X123324686Y-100437370D01*
X123339102Y-100444188D01*
X123352780Y-100452386D01*
X123365589Y-100461886D01*
X123377405Y-100472595D01*
X123388114Y-100484411D01*
X123397614Y-100497220D01*
X123405812Y-100510898D01*
X123412630Y-100525314D01*
X123418003Y-100540329D01*
X123421878Y-100555798D01*
X123424218Y-100571572D01*
X123425000Y-100587500D01*
X123425000Y-100912500D01*
X123424218Y-100928428D01*
X123421878Y-100944202D01*
X123418003Y-100959671D01*
X123412630Y-100974686D01*
X123405812Y-100989102D01*
X123397614Y-101002780D01*
X123388114Y-101015589D01*
X123377405Y-101027405D01*
X123365589Y-101038114D01*
X123352780Y-101047614D01*
X123339102Y-101055812D01*
X123324686Y-101062630D01*
X123309671Y-101068003D01*
X123294202Y-101071878D01*
X123278428Y-101074218D01*
X123262500Y-101075000D01*
X122537500Y-101075000D01*
X122521572Y-101074218D01*
X122505798Y-101071878D01*
X122490329Y-101068003D01*
X122475314Y-101062630D01*
X122460898Y-101055812D01*
X122447220Y-101047614D01*
X122434411Y-101038114D01*
X122422595Y-101027405D01*
X122411886Y-101015589D01*
X122402386Y-101002780D01*
X122394188Y-100989102D01*
X122387370Y-100974686D01*
X122381997Y-100959671D01*
X122378122Y-100944202D01*
X122375782Y-100928428D01*
X122375000Y-100912500D01*
X122375000Y-100587500D01*
X122375782Y-100571572D01*
X122378122Y-100555798D01*
X122381997Y-100540329D01*
X122387370Y-100525314D01*
X122394188Y-100510898D01*
X122402386Y-100497220D01*
X122411886Y-100484411D01*
X122422595Y-100472595D01*
X122434411Y-100461886D01*
X122447220Y-100452386D01*
X122460898Y-100444188D01*
X122475314Y-100437370D01*
X122490329Y-100431997D01*
X122505798Y-100428122D01*
X122521572Y-100425782D01*
X122537500Y-100425000D01*
X123262500Y-100425000D01*
X123278428Y-100425782D01*
X123278428Y-100425782D01*
G37*
D13*
X122900000Y-100750000D03*
D11*
G36*
X125678428Y-101375782D02*
X125694202Y-101378122D01*
X125709671Y-101381997D01*
X125724686Y-101387370D01*
X125739102Y-101394188D01*
X125752780Y-101402386D01*
X125765589Y-101411886D01*
X125777405Y-101422595D01*
X125788114Y-101434411D01*
X125797614Y-101447220D01*
X125805812Y-101460898D01*
X125812630Y-101475314D01*
X125818003Y-101490329D01*
X125821878Y-101505798D01*
X125824218Y-101521572D01*
X125825000Y-101537500D01*
X125825000Y-101862500D01*
X125824218Y-101878428D01*
X125821878Y-101894202D01*
X125818003Y-101909671D01*
X125812630Y-101924686D01*
X125805812Y-101939102D01*
X125797614Y-101952780D01*
X125788114Y-101965589D01*
X125777405Y-101977405D01*
X125765589Y-101988114D01*
X125752780Y-101997614D01*
X125739102Y-102005812D01*
X125724686Y-102012630D01*
X125709671Y-102018003D01*
X125694202Y-102021878D01*
X125678428Y-102024218D01*
X125662500Y-102025000D01*
X124937500Y-102025000D01*
X124921572Y-102024218D01*
X124905798Y-102021878D01*
X124890329Y-102018003D01*
X124875314Y-102012630D01*
X124860898Y-102005812D01*
X124847220Y-101997614D01*
X124834411Y-101988114D01*
X124822595Y-101977405D01*
X124811886Y-101965589D01*
X124802386Y-101952780D01*
X124794188Y-101939102D01*
X124787370Y-101924686D01*
X124781997Y-101909671D01*
X124778122Y-101894202D01*
X124775782Y-101878428D01*
X124775000Y-101862500D01*
X124775000Y-101537500D01*
X124775782Y-101521572D01*
X124778122Y-101505798D01*
X124781997Y-101490329D01*
X124787370Y-101475314D01*
X124794188Y-101460898D01*
X124802386Y-101447220D01*
X124811886Y-101434411D01*
X124822595Y-101422595D01*
X124834411Y-101411886D01*
X124847220Y-101402386D01*
X124860898Y-101394188D01*
X124875314Y-101387370D01*
X124890329Y-101381997D01*
X124905798Y-101378122D01*
X124921572Y-101375782D01*
X124937500Y-101375000D01*
X125662500Y-101375000D01*
X125678428Y-101375782D01*
X125678428Y-101375782D01*
G37*
D13*
X125300000Y-101700000D03*
D11*
G36*
X123278428Y-101375782D02*
X123294202Y-101378122D01*
X123309671Y-101381997D01*
X123324686Y-101387370D01*
X123339102Y-101394188D01*
X123352780Y-101402386D01*
X123365589Y-101411886D01*
X123377405Y-101422595D01*
X123388114Y-101434411D01*
X123397614Y-101447220D01*
X123405812Y-101460898D01*
X123412630Y-101475314D01*
X123418003Y-101490329D01*
X123421878Y-101505798D01*
X123424218Y-101521572D01*
X123425000Y-101537500D01*
X123425000Y-101862500D01*
X123424218Y-101878428D01*
X123421878Y-101894202D01*
X123418003Y-101909671D01*
X123412630Y-101924686D01*
X123405812Y-101939102D01*
X123397614Y-101952780D01*
X123388114Y-101965589D01*
X123377405Y-101977405D01*
X123365589Y-101988114D01*
X123352780Y-101997614D01*
X123339102Y-102005812D01*
X123324686Y-102012630D01*
X123309671Y-102018003D01*
X123294202Y-102021878D01*
X123278428Y-102024218D01*
X123262500Y-102025000D01*
X122537500Y-102025000D01*
X122521572Y-102024218D01*
X122505798Y-102021878D01*
X122490329Y-102018003D01*
X122475314Y-102012630D01*
X122460898Y-102005812D01*
X122447220Y-101997614D01*
X122434411Y-101988114D01*
X122422595Y-101977405D01*
X122411886Y-101965589D01*
X122402386Y-101952780D01*
X122394188Y-101939102D01*
X122387370Y-101924686D01*
X122381997Y-101909671D01*
X122378122Y-101894202D01*
X122375782Y-101878428D01*
X122375000Y-101862500D01*
X122375000Y-101537500D01*
X122375782Y-101521572D01*
X122378122Y-101505798D01*
X122381997Y-101490329D01*
X122387370Y-101475314D01*
X122394188Y-101460898D01*
X122402386Y-101447220D01*
X122411886Y-101434411D01*
X122422595Y-101422595D01*
X122434411Y-101411886D01*
X122447220Y-101402386D01*
X122460898Y-101394188D01*
X122475314Y-101387370D01*
X122490329Y-101381997D01*
X122505798Y-101378122D01*
X122521572Y-101375782D01*
X122537500Y-101375000D01*
X123262500Y-101375000D01*
X123278428Y-101375782D01*
X123278428Y-101375782D01*
G37*
D13*
X122900000Y-101700000D03*
D11*
G36*
X125678428Y-102325782D02*
X125694202Y-102328122D01*
X125709671Y-102331997D01*
X125724686Y-102337370D01*
X125739102Y-102344188D01*
X125752780Y-102352386D01*
X125765589Y-102361886D01*
X125777405Y-102372595D01*
X125788114Y-102384411D01*
X125797614Y-102397220D01*
X125805812Y-102410898D01*
X125812630Y-102425314D01*
X125818003Y-102440329D01*
X125821878Y-102455798D01*
X125824218Y-102471572D01*
X125825000Y-102487500D01*
X125825000Y-102812500D01*
X125824218Y-102828428D01*
X125821878Y-102844202D01*
X125818003Y-102859671D01*
X125812630Y-102874686D01*
X125805812Y-102889102D01*
X125797614Y-102902780D01*
X125788114Y-102915589D01*
X125777405Y-102927405D01*
X125765589Y-102938114D01*
X125752780Y-102947614D01*
X125739102Y-102955812D01*
X125724686Y-102962630D01*
X125709671Y-102968003D01*
X125694202Y-102971878D01*
X125678428Y-102974218D01*
X125662500Y-102975000D01*
X124937500Y-102975000D01*
X124921572Y-102974218D01*
X124905798Y-102971878D01*
X124890329Y-102968003D01*
X124875314Y-102962630D01*
X124860898Y-102955812D01*
X124847220Y-102947614D01*
X124834411Y-102938114D01*
X124822595Y-102927405D01*
X124811886Y-102915589D01*
X124802386Y-102902780D01*
X124794188Y-102889102D01*
X124787370Y-102874686D01*
X124781997Y-102859671D01*
X124778122Y-102844202D01*
X124775782Y-102828428D01*
X124775000Y-102812500D01*
X124775000Y-102487500D01*
X124775782Y-102471572D01*
X124778122Y-102455798D01*
X124781997Y-102440329D01*
X124787370Y-102425314D01*
X124794188Y-102410898D01*
X124802386Y-102397220D01*
X124811886Y-102384411D01*
X124822595Y-102372595D01*
X124834411Y-102361886D01*
X124847220Y-102352386D01*
X124860898Y-102344188D01*
X124875314Y-102337370D01*
X124890329Y-102331997D01*
X124905798Y-102328122D01*
X124921572Y-102325782D01*
X124937500Y-102325000D01*
X125662500Y-102325000D01*
X125678428Y-102325782D01*
X125678428Y-102325782D01*
G37*
D13*
X125300000Y-102650000D03*
D11*
G36*
X123278428Y-102325782D02*
X123294202Y-102328122D01*
X123309671Y-102331997D01*
X123324686Y-102337370D01*
X123339102Y-102344188D01*
X123352780Y-102352386D01*
X123365589Y-102361886D01*
X123377405Y-102372595D01*
X123388114Y-102384411D01*
X123397614Y-102397220D01*
X123405812Y-102410898D01*
X123412630Y-102425314D01*
X123418003Y-102440329D01*
X123421878Y-102455798D01*
X123424218Y-102471572D01*
X123425000Y-102487500D01*
X123425000Y-102812500D01*
X123424218Y-102828428D01*
X123421878Y-102844202D01*
X123418003Y-102859671D01*
X123412630Y-102874686D01*
X123405812Y-102889102D01*
X123397614Y-102902780D01*
X123388114Y-102915589D01*
X123377405Y-102927405D01*
X123365589Y-102938114D01*
X123352780Y-102947614D01*
X123339102Y-102955812D01*
X123324686Y-102962630D01*
X123309671Y-102968003D01*
X123294202Y-102971878D01*
X123278428Y-102974218D01*
X123262500Y-102975000D01*
X122537500Y-102975000D01*
X122521572Y-102974218D01*
X122505798Y-102971878D01*
X122490329Y-102968003D01*
X122475314Y-102962630D01*
X122460898Y-102955812D01*
X122447220Y-102947614D01*
X122434411Y-102938114D01*
X122422595Y-102927405D01*
X122411886Y-102915589D01*
X122402386Y-102902780D01*
X122394188Y-102889102D01*
X122387370Y-102874686D01*
X122381997Y-102859671D01*
X122378122Y-102844202D01*
X122375782Y-102828428D01*
X122375000Y-102812500D01*
X122375000Y-102487500D01*
X122375782Y-102471572D01*
X122378122Y-102455798D01*
X122381997Y-102440329D01*
X122387370Y-102425314D01*
X122394188Y-102410898D01*
X122402386Y-102397220D01*
X122411886Y-102384411D01*
X122422595Y-102372595D01*
X122434411Y-102361886D01*
X122447220Y-102352386D01*
X122460898Y-102344188D01*
X122475314Y-102337370D01*
X122490329Y-102331997D01*
X122505798Y-102328122D01*
X122521572Y-102325782D01*
X122537500Y-102325000D01*
X123262500Y-102325000D01*
X123278428Y-102325782D01*
X123278428Y-102325782D01*
G37*
D13*
X122900000Y-102650000D03*
G04 #@! TD*
D11*
G04 #@! TO.C,D5*
G36*
X179278428Y-89325782D02*
X179294202Y-89328122D01*
X179309671Y-89331997D01*
X179324686Y-89337370D01*
X179339102Y-89344188D01*
X179352780Y-89352386D01*
X179365589Y-89361886D01*
X179377405Y-89372595D01*
X179388114Y-89384411D01*
X179397614Y-89397220D01*
X179405812Y-89410898D01*
X179412630Y-89425314D01*
X179418003Y-89440329D01*
X179421878Y-89455798D01*
X179424218Y-89471572D01*
X179425000Y-89487500D01*
X179425000Y-89812500D01*
X179424218Y-89828428D01*
X179421878Y-89844202D01*
X179418003Y-89859671D01*
X179412630Y-89874686D01*
X179405812Y-89889102D01*
X179397614Y-89902780D01*
X179388114Y-89915589D01*
X179377405Y-89927405D01*
X179365589Y-89938114D01*
X179352780Y-89947614D01*
X179339102Y-89955812D01*
X179324686Y-89962630D01*
X179309671Y-89968003D01*
X179294202Y-89971878D01*
X179278428Y-89974218D01*
X179262500Y-89975000D01*
X178537500Y-89975000D01*
X178521572Y-89974218D01*
X178505798Y-89971878D01*
X178490329Y-89968003D01*
X178475314Y-89962630D01*
X178460898Y-89955812D01*
X178447220Y-89947614D01*
X178434411Y-89938114D01*
X178422595Y-89927405D01*
X178411886Y-89915589D01*
X178402386Y-89902780D01*
X178394188Y-89889102D01*
X178387370Y-89874686D01*
X178381997Y-89859671D01*
X178378122Y-89844202D01*
X178375782Y-89828428D01*
X178375000Y-89812500D01*
X178375000Y-89487500D01*
X178375782Y-89471572D01*
X178378122Y-89455798D01*
X178381997Y-89440329D01*
X178387370Y-89425314D01*
X178394188Y-89410898D01*
X178402386Y-89397220D01*
X178411886Y-89384411D01*
X178422595Y-89372595D01*
X178434411Y-89361886D01*
X178447220Y-89352386D01*
X178460898Y-89344188D01*
X178475314Y-89337370D01*
X178490329Y-89331997D01*
X178505798Y-89328122D01*
X178521572Y-89325782D01*
X178537500Y-89325000D01*
X179262500Y-89325000D01*
X179278428Y-89325782D01*
X179278428Y-89325782D01*
G37*
D13*
X178900000Y-89650000D03*
D11*
G36*
X181678428Y-89325782D02*
X181694202Y-89328122D01*
X181709671Y-89331997D01*
X181724686Y-89337370D01*
X181739102Y-89344188D01*
X181752780Y-89352386D01*
X181765589Y-89361886D01*
X181777405Y-89372595D01*
X181788114Y-89384411D01*
X181797614Y-89397220D01*
X181805812Y-89410898D01*
X181812630Y-89425314D01*
X181818003Y-89440329D01*
X181821878Y-89455798D01*
X181824218Y-89471572D01*
X181825000Y-89487500D01*
X181825000Y-89812500D01*
X181824218Y-89828428D01*
X181821878Y-89844202D01*
X181818003Y-89859671D01*
X181812630Y-89874686D01*
X181805812Y-89889102D01*
X181797614Y-89902780D01*
X181788114Y-89915589D01*
X181777405Y-89927405D01*
X181765589Y-89938114D01*
X181752780Y-89947614D01*
X181739102Y-89955812D01*
X181724686Y-89962630D01*
X181709671Y-89968003D01*
X181694202Y-89971878D01*
X181678428Y-89974218D01*
X181662500Y-89975000D01*
X180937500Y-89975000D01*
X180921572Y-89974218D01*
X180905798Y-89971878D01*
X180890329Y-89968003D01*
X180875314Y-89962630D01*
X180860898Y-89955812D01*
X180847220Y-89947614D01*
X180834411Y-89938114D01*
X180822595Y-89927405D01*
X180811886Y-89915589D01*
X180802386Y-89902780D01*
X180794188Y-89889102D01*
X180787370Y-89874686D01*
X180781997Y-89859671D01*
X180778122Y-89844202D01*
X180775782Y-89828428D01*
X180775000Y-89812500D01*
X180775000Y-89487500D01*
X180775782Y-89471572D01*
X180778122Y-89455798D01*
X180781997Y-89440329D01*
X180787370Y-89425314D01*
X180794188Y-89410898D01*
X180802386Y-89397220D01*
X180811886Y-89384411D01*
X180822595Y-89372595D01*
X180834411Y-89361886D01*
X180847220Y-89352386D01*
X180860898Y-89344188D01*
X180875314Y-89337370D01*
X180890329Y-89331997D01*
X180905798Y-89328122D01*
X180921572Y-89325782D01*
X180937500Y-89325000D01*
X181662500Y-89325000D01*
X181678428Y-89325782D01*
X181678428Y-89325782D01*
G37*
D13*
X181300000Y-89650000D03*
D11*
G36*
X179278428Y-88375782D02*
X179294202Y-88378122D01*
X179309671Y-88381997D01*
X179324686Y-88387370D01*
X179339102Y-88394188D01*
X179352780Y-88402386D01*
X179365589Y-88411886D01*
X179377405Y-88422595D01*
X179388114Y-88434411D01*
X179397614Y-88447220D01*
X179405812Y-88460898D01*
X179412630Y-88475314D01*
X179418003Y-88490329D01*
X179421878Y-88505798D01*
X179424218Y-88521572D01*
X179425000Y-88537500D01*
X179425000Y-88862500D01*
X179424218Y-88878428D01*
X179421878Y-88894202D01*
X179418003Y-88909671D01*
X179412630Y-88924686D01*
X179405812Y-88939102D01*
X179397614Y-88952780D01*
X179388114Y-88965589D01*
X179377405Y-88977405D01*
X179365589Y-88988114D01*
X179352780Y-88997614D01*
X179339102Y-89005812D01*
X179324686Y-89012630D01*
X179309671Y-89018003D01*
X179294202Y-89021878D01*
X179278428Y-89024218D01*
X179262500Y-89025000D01*
X178537500Y-89025000D01*
X178521572Y-89024218D01*
X178505798Y-89021878D01*
X178490329Y-89018003D01*
X178475314Y-89012630D01*
X178460898Y-89005812D01*
X178447220Y-88997614D01*
X178434411Y-88988114D01*
X178422595Y-88977405D01*
X178411886Y-88965589D01*
X178402386Y-88952780D01*
X178394188Y-88939102D01*
X178387370Y-88924686D01*
X178381997Y-88909671D01*
X178378122Y-88894202D01*
X178375782Y-88878428D01*
X178375000Y-88862500D01*
X178375000Y-88537500D01*
X178375782Y-88521572D01*
X178378122Y-88505798D01*
X178381997Y-88490329D01*
X178387370Y-88475314D01*
X178394188Y-88460898D01*
X178402386Y-88447220D01*
X178411886Y-88434411D01*
X178422595Y-88422595D01*
X178434411Y-88411886D01*
X178447220Y-88402386D01*
X178460898Y-88394188D01*
X178475314Y-88387370D01*
X178490329Y-88381997D01*
X178505798Y-88378122D01*
X178521572Y-88375782D01*
X178537500Y-88375000D01*
X179262500Y-88375000D01*
X179278428Y-88375782D01*
X179278428Y-88375782D01*
G37*
D13*
X178900000Y-88700000D03*
D11*
G36*
X181678428Y-88375782D02*
X181694202Y-88378122D01*
X181709671Y-88381997D01*
X181724686Y-88387370D01*
X181739102Y-88394188D01*
X181752780Y-88402386D01*
X181765589Y-88411886D01*
X181777405Y-88422595D01*
X181788114Y-88434411D01*
X181797614Y-88447220D01*
X181805812Y-88460898D01*
X181812630Y-88475314D01*
X181818003Y-88490329D01*
X181821878Y-88505798D01*
X181824218Y-88521572D01*
X181825000Y-88537500D01*
X181825000Y-88862500D01*
X181824218Y-88878428D01*
X181821878Y-88894202D01*
X181818003Y-88909671D01*
X181812630Y-88924686D01*
X181805812Y-88939102D01*
X181797614Y-88952780D01*
X181788114Y-88965589D01*
X181777405Y-88977405D01*
X181765589Y-88988114D01*
X181752780Y-88997614D01*
X181739102Y-89005812D01*
X181724686Y-89012630D01*
X181709671Y-89018003D01*
X181694202Y-89021878D01*
X181678428Y-89024218D01*
X181662500Y-89025000D01*
X180937500Y-89025000D01*
X180921572Y-89024218D01*
X180905798Y-89021878D01*
X180890329Y-89018003D01*
X180875314Y-89012630D01*
X180860898Y-89005812D01*
X180847220Y-88997614D01*
X180834411Y-88988114D01*
X180822595Y-88977405D01*
X180811886Y-88965589D01*
X180802386Y-88952780D01*
X180794188Y-88939102D01*
X180787370Y-88924686D01*
X180781997Y-88909671D01*
X180778122Y-88894202D01*
X180775782Y-88878428D01*
X180775000Y-88862500D01*
X180775000Y-88537500D01*
X180775782Y-88521572D01*
X180778122Y-88505798D01*
X180781997Y-88490329D01*
X180787370Y-88475314D01*
X180794188Y-88460898D01*
X180802386Y-88447220D01*
X180811886Y-88434411D01*
X180822595Y-88422595D01*
X180834411Y-88411886D01*
X180847220Y-88402386D01*
X180860898Y-88394188D01*
X180875314Y-88387370D01*
X180890329Y-88381997D01*
X180905798Y-88378122D01*
X180921572Y-88375782D01*
X180937500Y-88375000D01*
X181662500Y-88375000D01*
X181678428Y-88375782D01*
X181678428Y-88375782D01*
G37*
D13*
X181300000Y-88700000D03*
D11*
G36*
X179278428Y-87425782D02*
X179294202Y-87428122D01*
X179309671Y-87431997D01*
X179324686Y-87437370D01*
X179339102Y-87444188D01*
X179352780Y-87452386D01*
X179365589Y-87461886D01*
X179377405Y-87472595D01*
X179388114Y-87484411D01*
X179397614Y-87497220D01*
X179405812Y-87510898D01*
X179412630Y-87525314D01*
X179418003Y-87540329D01*
X179421878Y-87555798D01*
X179424218Y-87571572D01*
X179425000Y-87587500D01*
X179425000Y-87912500D01*
X179424218Y-87928428D01*
X179421878Y-87944202D01*
X179418003Y-87959671D01*
X179412630Y-87974686D01*
X179405812Y-87989102D01*
X179397614Y-88002780D01*
X179388114Y-88015589D01*
X179377405Y-88027405D01*
X179365589Y-88038114D01*
X179352780Y-88047614D01*
X179339102Y-88055812D01*
X179324686Y-88062630D01*
X179309671Y-88068003D01*
X179294202Y-88071878D01*
X179278428Y-88074218D01*
X179262500Y-88075000D01*
X178537500Y-88075000D01*
X178521572Y-88074218D01*
X178505798Y-88071878D01*
X178490329Y-88068003D01*
X178475314Y-88062630D01*
X178460898Y-88055812D01*
X178447220Y-88047614D01*
X178434411Y-88038114D01*
X178422595Y-88027405D01*
X178411886Y-88015589D01*
X178402386Y-88002780D01*
X178394188Y-87989102D01*
X178387370Y-87974686D01*
X178381997Y-87959671D01*
X178378122Y-87944202D01*
X178375782Y-87928428D01*
X178375000Y-87912500D01*
X178375000Y-87587500D01*
X178375782Y-87571572D01*
X178378122Y-87555798D01*
X178381997Y-87540329D01*
X178387370Y-87525314D01*
X178394188Y-87510898D01*
X178402386Y-87497220D01*
X178411886Y-87484411D01*
X178422595Y-87472595D01*
X178434411Y-87461886D01*
X178447220Y-87452386D01*
X178460898Y-87444188D01*
X178475314Y-87437370D01*
X178490329Y-87431997D01*
X178505798Y-87428122D01*
X178521572Y-87425782D01*
X178537500Y-87425000D01*
X179262500Y-87425000D01*
X179278428Y-87425782D01*
X179278428Y-87425782D01*
G37*
D13*
X178900000Y-87750000D03*
D11*
G36*
X181678428Y-87425782D02*
X181694202Y-87428122D01*
X181709671Y-87431997D01*
X181724686Y-87437370D01*
X181739102Y-87444188D01*
X181752780Y-87452386D01*
X181765589Y-87461886D01*
X181777405Y-87472595D01*
X181788114Y-87484411D01*
X181797614Y-87497220D01*
X181805812Y-87510898D01*
X181812630Y-87525314D01*
X181818003Y-87540329D01*
X181821878Y-87555798D01*
X181824218Y-87571572D01*
X181825000Y-87587500D01*
X181825000Y-87912500D01*
X181824218Y-87928428D01*
X181821878Y-87944202D01*
X181818003Y-87959671D01*
X181812630Y-87974686D01*
X181805812Y-87989102D01*
X181797614Y-88002780D01*
X181788114Y-88015589D01*
X181777405Y-88027405D01*
X181765589Y-88038114D01*
X181752780Y-88047614D01*
X181739102Y-88055812D01*
X181724686Y-88062630D01*
X181709671Y-88068003D01*
X181694202Y-88071878D01*
X181678428Y-88074218D01*
X181662500Y-88075000D01*
X180937500Y-88075000D01*
X180921572Y-88074218D01*
X180905798Y-88071878D01*
X180890329Y-88068003D01*
X180875314Y-88062630D01*
X180860898Y-88055812D01*
X180847220Y-88047614D01*
X180834411Y-88038114D01*
X180822595Y-88027405D01*
X180811886Y-88015589D01*
X180802386Y-88002780D01*
X180794188Y-87989102D01*
X180787370Y-87974686D01*
X180781997Y-87959671D01*
X180778122Y-87944202D01*
X180775782Y-87928428D01*
X180775000Y-87912500D01*
X180775000Y-87587500D01*
X180775782Y-87571572D01*
X180778122Y-87555798D01*
X180781997Y-87540329D01*
X180787370Y-87525314D01*
X180794188Y-87510898D01*
X180802386Y-87497220D01*
X180811886Y-87484411D01*
X180822595Y-87472595D01*
X180834411Y-87461886D01*
X180847220Y-87452386D01*
X180860898Y-87444188D01*
X180875314Y-87437370D01*
X180890329Y-87431997D01*
X180905798Y-87428122D01*
X180921572Y-87425782D01*
X180937500Y-87425000D01*
X181662500Y-87425000D01*
X181678428Y-87425782D01*
X181678428Y-87425782D01*
G37*
D13*
X181300000Y-87750000D03*
G04 #@! TD*
D11*
G04 #@! TO.C,Y1*
G36*
X147792935Y-92201372D02*
X147820601Y-92205476D01*
X147847731Y-92212272D01*
X147874065Y-92221694D01*
X147899348Y-92233652D01*
X147923338Y-92248031D01*
X147945802Y-92264692D01*
X147966525Y-92283475D01*
X147985308Y-92304198D01*
X148001969Y-92326662D01*
X148016348Y-92350652D01*
X148028306Y-92375935D01*
X148037728Y-92402269D01*
X148044524Y-92429399D01*
X148048628Y-92457065D01*
X148050000Y-92485000D01*
X148050000Y-93815000D01*
X148048628Y-93842935D01*
X148044524Y-93870601D01*
X148037728Y-93897731D01*
X148028306Y-93924065D01*
X148016348Y-93949348D01*
X148001969Y-93973338D01*
X147985308Y-93995802D01*
X147966525Y-94016525D01*
X147945802Y-94035308D01*
X147923338Y-94051969D01*
X147899348Y-94066348D01*
X147874065Y-94078306D01*
X147847731Y-94087728D01*
X147820601Y-94094524D01*
X147792935Y-94098628D01*
X147765000Y-94100000D01*
X145935000Y-94100000D01*
X145907065Y-94098628D01*
X145879399Y-94094524D01*
X145852269Y-94087728D01*
X145825935Y-94078306D01*
X145800652Y-94066348D01*
X145776662Y-94051969D01*
X145754198Y-94035308D01*
X145733475Y-94016525D01*
X145714692Y-93995802D01*
X145698031Y-93973338D01*
X145683652Y-93949348D01*
X145671694Y-93924065D01*
X145662272Y-93897731D01*
X145655476Y-93870601D01*
X145651372Y-93842935D01*
X145650000Y-93815000D01*
X145650000Y-92485000D01*
X145651372Y-92457065D01*
X145655476Y-92429399D01*
X145662272Y-92402269D01*
X145671694Y-92375935D01*
X145683652Y-92350652D01*
X145698031Y-92326662D01*
X145714692Y-92304198D01*
X145733475Y-92283475D01*
X145754198Y-92264692D01*
X145776662Y-92248031D01*
X145800652Y-92233652D01*
X145825935Y-92221694D01*
X145852269Y-92212272D01*
X145879399Y-92205476D01*
X145907065Y-92201372D01*
X145935000Y-92200000D01*
X147765000Y-92200000D01*
X147792935Y-92201372D01*
X147792935Y-92201372D01*
G37*
D31*
X146850000Y-93150000D03*
D11*
G36*
X147792935Y-96301372D02*
X147820601Y-96305476D01*
X147847731Y-96312272D01*
X147874065Y-96321694D01*
X147899348Y-96333652D01*
X147923338Y-96348031D01*
X147945802Y-96364692D01*
X147966525Y-96383475D01*
X147985308Y-96404198D01*
X148001969Y-96426662D01*
X148016348Y-96450652D01*
X148028306Y-96475935D01*
X148037728Y-96502269D01*
X148044524Y-96529399D01*
X148048628Y-96557065D01*
X148050000Y-96585000D01*
X148050000Y-97915000D01*
X148048628Y-97942935D01*
X148044524Y-97970601D01*
X148037728Y-97997731D01*
X148028306Y-98024065D01*
X148016348Y-98049348D01*
X148001969Y-98073338D01*
X147985308Y-98095802D01*
X147966525Y-98116525D01*
X147945802Y-98135308D01*
X147923338Y-98151969D01*
X147899348Y-98166348D01*
X147874065Y-98178306D01*
X147847731Y-98187728D01*
X147820601Y-98194524D01*
X147792935Y-98198628D01*
X147765000Y-98200000D01*
X145935000Y-98200000D01*
X145907065Y-98198628D01*
X145879399Y-98194524D01*
X145852269Y-98187728D01*
X145825935Y-98178306D01*
X145800652Y-98166348D01*
X145776662Y-98151969D01*
X145754198Y-98135308D01*
X145733475Y-98116525D01*
X145714692Y-98095802D01*
X145698031Y-98073338D01*
X145683652Y-98049348D01*
X145671694Y-98024065D01*
X145662272Y-97997731D01*
X145655476Y-97970601D01*
X145651372Y-97942935D01*
X145650000Y-97915000D01*
X145650000Y-96585000D01*
X145651372Y-96557065D01*
X145655476Y-96529399D01*
X145662272Y-96502269D01*
X145671694Y-96475935D01*
X145683652Y-96450652D01*
X145698031Y-96426662D01*
X145714692Y-96404198D01*
X145733475Y-96383475D01*
X145754198Y-96364692D01*
X145776662Y-96348031D01*
X145800652Y-96333652D01*
X145825935Y-96321694D01*
X145852269Y-96312272D01*
X145879399Y-96305476D01*
X145907065Y-96301372D01*
X145935000Y-96300000D01*
X147765000Y-96300000D01*
X147792935Y-96301372D01*
X147792935Y-96301372D01*
G37*
D31*
X146850000Y-97250000D03*
G04 #@! TD*
M02*
